<svg width="300" height="366" viewBox="0 0 300 366" fill="none" xmlns="http://www.w3.org/2000/svg">
<path d="M122.734 362.004C100.832 349.526 89.8395 325.627 82.9888 301.613C77.1682 280.551 73.716 258.572 72.1999 236.41C69.4304 192.616 75.256 147.179 89.0404 103.484C96.8283 78.9193 107.092 54.6753 119.944 31.7108C123.126 25.8688 131.575 30.0584 128.259 35.7746C106.302 75.2539 91.7084 118.194 85.2503 161.336C78.799 204.2 80.0646 247.443 89.8182 287.807C95.8183 312.732 105.068 340.121 127.786 353.076C129.964 354.256 130.859 357.081 129.555 359.559C128.117 361.912 124.912 363.184 122.734 362.004Z" fill="#C8D6DF"/>
<path d="M150.373 122.629C145.04 98.6113 139.43 74.6194 134.098 50.6014C133.479 47.7505 132.853 45.1773 132.235 42.3264C131.609 39.7532 131.409 36.7243 130.088 34.3552C128.512 31.1791 124.463 33.0853 121.663 34.7352C110.474 40.7792 99.5414 47.6302 88.3391 54.2296C75.4563 61.819 62.4387 69.2826 49.556 76.8719C43.9548 80.1717 39.1912 72.032 44.9272 68.8581C57.2498 61.5987 69.5724 54.3393 82.0298 47.2057C93.7923 40.2763 105.427 32.9433 117.452 26.5433C122.345 24.0032 127.918 21.8144 132.841 23.5662C138.857 25.7689 140.35 32.2779 141.587 37.9798C144.445 50.5941 147.304 63.2084 150.162 75.8227C153.525 90.329 156.753 104.709 159.974 119.368C161.346 125.195 151.88 128.583 150.373 122.629Z" fill="#C8D6DF"/>
</svg>
