<svg width="287" height="287" viewBox="0 0 287 287" fill="none" xmlns="http://www.w3.org/2000/svg">
<rect width="287" height="287" fill="#EBEFF1"/>
<path d="M207.959 244.208C198.792 246.917 187.959 248.167 175.25 248.167H112.75C100.042 248.167 89.2087 246.917 80.042 244.208C82.3337 217.125 110.146 195.771 144 195.771C177.854 195.771 205.667 217.125 207.959 244.208Z" stroke="#9DA5AA" stroke-width="15" stroke-linecap="round" stroke-linejoin="round"/>
<path d="M175.25 39.8333H112.75C60.6663 39.8333 39.833 60.6666 39.833 112.75V175.25C39.833 214.625 51.708 236.187 80.0413 244.208C82.333 217.125 110.146 195.77 144 195.77C177.854 195.77 205.666 217.125 207.958 244.208C236.291 236.187 248.166 214.625 248.166 175.25V112.75C248.166 60.6666 227.333 39.8333 175.25 39.8333ZM144 166.604C123.375 166.604 106.708 149.833 106.708 129.208C106.708 108.583 123.375 91.9166 144 91.9166C164.625 91.9166 181.291 108.583 181.291 129.208C181.291 149.833 164.625 166.604 144 166.604Z" stroke="#9DA5AA" stroke-width="15" stroke-linecap="round" stroke-linejoin="round"/>
<path d="M181.291 129.209C181.291 149.834 164.625 166.604 144 166.604C123.375 166.604 106.708 149.834 106.708 129.209C106.708 108.584 123.375 91.9167 144 91.9167C164.625 91.9167 181.291 108.584 181.291 129.209Z" stroke="#9DA5AA" stroke-width="15" stroke-linecap="round" stroke-linejoin="round"/>
</svg>
