<svg width="500" height="500" viewBox="0 0 500 500" fill="none" xmlns="http://www.w3.org/2000/svg">
<rect width="500" height="500" fill="#F0F5F8"/>
<path d="M339.542 403.291C326.708 407.083 311.542 408.833 293.75 408.833H206.25C188.458 408.833 173.292 407.083 160.458 403.291C163.667 365.375 202.604 335.479 250 335.479C297.396 335.479 336.333 365.375 339.542 403.291Z" stroke="#C8D6DF" stroke-width="20" stroke-linecap="round" stroke-linejoin="round"/>
<path d="M293.75 117.167H206.25C133.333 117.167 104.167 146.334 104.167 219.25V306.75C104.167 361.875 120.792 392.063 160.458 403.292C163.667 365.375 202.604 335.479 250 335.479C297.396 335.479 336.333 365.375 339.541 403.292C379.208 392.063 395.833 361.875 395.833 306.75V219.25C395.833 146.334 366.666 117.167 293.75 117.167ZM250 294.646C221.125 294.646 197.791 271.167 197.791 242.292C197.791 213.417 221.125 190.084 250 190.084C278.875 190.084 302.208 213.417 302.208 242.292C302.208 271.167 278.875 294.646 250 294.646Z" stroke="#C8D6DF" stroke-width="20" stroke-linecap="round" stroke-linejoin="round"/>
<path d="M302.208 242.292C302.208 271.167 278.875 294.645 250 294.645C221.125 294.645 197.792 271.167 197.792 242.292C197.792 213.417 221.125 190.083 250 190.083C278.875 190.083 302.208 213.417 302.208 242.292Z" stroke="#C8D6DF" stroke-width="1.5" stroke-linecap="round" stroke-linejoin="round"/>
</svg>
