<svg width="145" height="31" viewBox="0 0 145 31" fill="none" xmlns="http://www.w3.org/2000/svg">
<path d="M14.7469 23.4203C14.5495 23.2524 14.2941 23.1511 14.0151 23.1511H8.9849C8.70586 23.1511 8.45038 23.2524 8.25291 23.4204M14.7469 23.4203C14.9925 23.6293 15.1484 23.9413 15.1484 24.29V24.9728M14.7469 23.4203C15.6684 22.4502 16.2861 20.8604 16.2861 18.4057C16.2861 15.9882 19 14.3413 19 11.537C19 7.37445 15.6421 4 11.5 4C7.35786 4 4 7.37445 4 11.537C4 14.3413 6.71392 15.8984 6.71392 18.4057C6.71392 20.8605 7.3315 22.4503 8.25291 23.4204M8.25291 23.4204C8.00743 23.6294 7.85159 23.9414 7.85159 24.29V26.0702M15.1484 24.9728H10.316M15.1484 24.9728V27.1668M7.85159 26.0702V27.8505C7.85159 28.1832 8.02684 28.4817 8.29302 28.6026L11.2479 29.9448C11.41 30.0184 11.59 30.0184 11.7521 29.9448L14.707 28.6026C14.9732 28.4817 15.1484 28.1831 15.1484 27.8505V27.1668M7.85159 26.0702H9.44275M15.1484 27.1668H11.5532" stroke="#03C988" stroke-linecap="round" stroke-linejoin="round"/>
<path fill-rule="evenodd" clip-rule="evenodd" d="M2.00752 5.5992C1.4346 5.45245 0.834783 5.37842 0.252918 5.31061C0.127593 5.29639 0.0112376 5.37573 0.0022858 5.4875C-0.0156177 5.59936 0.0739524 5.70166 0.190325 5.71587C0.754287 5.78116 1.3361 5.85101 1.88216 5.99229C1.99853 6.02293 2.12391 5.95985 2.15971 5.85134C2.19552 5.74292 2.12389 5.62992 2.00752 5.5992Z" fill="#03C988"/>
<path fill-rule="evenodd" clip-rule="evenodd" d="M3.74403 3.51869C2.82199 2.65988 1.78359 1.91161 0.87946 1.02975C0.798894 0.947387 0.655665 0.942974 0.566148 1.01986C0.47663 1.09683 0.467713 1.22625 0.557231 1.30861C1.46136 2.193 2.49976 2.94372 3.4218 3.80508C3.51131 3.88547 3.65451 3.88662 3.74403 3.80753C3.82459 3.72852 3.83354 3.59909 3.74403 3.51869Z" fill="#03C988"/>
<path fill-rule="evenodd" clip-rule="evenodd" d="M5.472 0.215359C5.49886 0.706906 5.52566 1.19845 5.55252 1.69008C5.55252 1.80267 5.65999 1.88961 5.78531 1.88414C5.91064 1.87858 6.0001 1.78274 6.0001 1.67006C5.97325 1.1777 5.94645 0.685417 5.91959 0.193135C5.91064 0.0805429 5.8032 -0.00582104 5.67787 0.000306958C5.5615 0.00643496 5.46305 0.102849 5.472 0.215359Z" fill="#03C988"/>
<path d="M39.8911 13.9482C39.8911 14.7718 39.8462 15.5804 39.7563 16.374C39.6665 17.1602 39.513 17.9089 39.2959 18.6201C39.0863 19.3239 38.798 19.9753 38.4312 20.5742C38.0718 21.1657 37.6188 21.6785 37.0723 22.1128C36.5257 22.5396 35.8743 22.8727 35.1182 23.1123C34.3695 23.3594 33.501 23.4829 32.5127 23.4829C31.5169 23.4829 30.641 23.3556 29.8848 23.1011C29.1286 22.854 28.4772 22.5059 27.9307 22.0566C27.3916 21.6074 26.9424 21.0758 26.583 20.4619C26.2236 19.848 25.9354 19.1779 25.7183 18.4517C25.5086 17.7254 25.3589 16.9618 25.269 16.1606C25.1867 15.3521 25.1455 14.5285 25.1455 13.6899C25.1455 12.3348 25.3027 11.1182 25.6172 10.04C25.9391 8.95443 26.4108 8.03353 27.0322 7.27734C27.6536 6.52116 28.4211 5.94466 29.3345 5.54785C30.2554 5.14355 31.3148 4.94141 32.5127 4.94141C33.7181 4.94141 34.7812 5.14355 35.7021 5.54785C36.623 5.95215 37.3942 6.53988 38.0156 7.31104C38.637 8.08219 39.105 9.02555 39.4194 10.1411C39.7339 11.2567 39.8911 12.5257 39.8911 13.9482ZM27.4028 14.2964C27.4028 16.812 27.8371 18.6838 28.7056 19.9116C29.5815 21.132 30.8506 21.7422 32.5127 21.7422C33.2913 21.7422 33.9951 21.6112 34.624 21.3491C35.2529 21.0796 35.7882 20.6491 36.23 20.0576C36.6792 19.4661 37.0236 18.6987 37.2632 17.7554C37.5028 16.8045 37.6226 15.6515 37.6226 14.2964C37.6226 12.9412 37.5103 11.7808 37.2856 10.8149C37.061 9.84163 36.7316 9.04427 36.2974 8.42285C35.8706 7.80143 35.3428 7.34473 34.7139 7.05273C34.0924 6.76074 33.3849 6.61475 32.5913 6.61475C31.7677 6.61475 31.034 6.757 30.3901 7.0415C29.7463 7.31852 29.2035 7.764 28.7617 8.37793C28.32 8.99186 27.9831 9.78548 27.751 10.7588C27.5189 11.7321 27.4028 12.9113 27.4028 14.2964ZM59.9375 18.3057C59.9375 18.9495 59.8289 19.5785 59.6118 20.1924C59.4022 20.8063 59.0465 21.3566 58.5449 21.8433C58.0508 22.3299 57.3957 22.7192 56.5796 23.0112C55.7635 23.3107 54.7565 23.4604 53.5586 23.4604C52.8997 23.4604 52.2633 23.3931 51.6494 23.2583C51.0355 23.131 50.4889 22.9888 50.0098 22.8315C49.4482 22.6444 48.9204 22.431 48.4263 22.1914L48.6509 20.5068C49.0926 20.7389 49.5643 20.9486 50.0659 21.1357C50.4927 21.293 50.9831 21.4352 51.5371 21.5625C52.0911 21.6898 52.6639 21.7534 53.2554 21.7534C53.8468 21.7534 54.4121 21.7085 54.9512 21.6187C55.4902 21.5213 55.9619 21.3491 56.3662 21.1021C56.7705 20.855 57.0924 20.5143 57.332 20.0801C57.5716 19.6458 57.6914 19.0881 57.6914 18.4067C57.6914 17.98 57.624 17.5944 57.4893 17.25C57.362 16.9056 57.1748 16.5986 56.9277 16.3291C56.6807 16.0521 56.3812 15.8125 56.0293 15.6104C55.6849 15.4007 55.2956 15.2173 54.8613 15.0601L51.6719 13.937C51.1628 13.7573 50.6649 13.5439 50.1782 13.2969C49.6991 13.0423 49.2723 12.7391 48.8979 12.3872C48.5236 12.0278 48.2204 11.616 47.9883 11.1519C47.7637 10.6877 47.6514 10.1523 47.6514 9.5459C47.6514 8.71484 47.7936 8.00732 48.0781 7.42334C48.3626 6.83936 48.7594 6.36393 49.2686 5.99707C49.7852 5.62272 50.3953 5.34945 51.0991 5.17725C51.8104 5.00505 52.5928 4.91895 53.4463 4.91895C53.9928 4.91895 54.5169 4.96012 55.0186 5.04248C55.5202 5.11735 55.9956 5.22217 56.4448 5.35693C56.9015 5.4917 57.3245 5.64518 57.7139 5.81738C58.1107 5.9821 58.4701 6.1543 58.792 6.33398L58.4551 7.98486C58.1781 7.82015 57.8599 7.65918 57.5005 7.50195C57.1486 7.33724 56.7705 7.19124 56.3662 7.06396C55.9619 6.93669 55.5389 6.83187 55.0972 6.74951C54.6629 6.66715 54.2249 6.62598 53.7832 6.62598C53.0869 6.62598 52.4917 6.67839 51.9976 6.7832C51.5109 6.88802 51.1104 7.05273 50.7959 7.27734C50.4889 7.50195 50.2606 7.7902 50.1108 8.14209C49.9686 8.49398 49.8975 8.91699 49.8975 9.41113C49.8975 10.5866 50.62 11.4251 52.0649 11.9268L55.5801 13.1509C56.1641 13.353 56.7181 13.6076 57.2422 13.9146C57.7738 14.214 58.238 14.5734 58.6348 14.9927C59.0391 15.4119 59.3573 15.8949 59.5894 16.4414C59.8215 16.988 59.9375 17.6094 59.9375 18.3057ZM67.8213 11.1743C67.4844 11.1743 67.1287 11.2043 66.7544 11.2642C66.3875 11.3241 66.0207 11.4139 65.6538 11.5337C65.2944 11.646 64.9425 11.7882 64.5981 11.9604C64.2612 12.1252 63.9543 12.3161 63.6772 12.5332L62.9136 11.0508C63.3403 10.8187 63.7371 10.6165 64.104 10.4443C64.4709 10.2646 64.8415 10.1149 65.2158 9.99512C65.5977 9.87533 65.9945 9.78548 66.4062 9.72559C66.8255 9.66569 67.2972 9.63574 67.8213 9.63574C68.9518 9.63574 69.854 9.75928 70.5278 10.0063C71.2091 10.2534 71.7257 10.6353 72.0776 11.1519C72.437 11.6685 72.6691 12.3273 72.7739 13.1284C72.8862 13.9295 72.9424 14.8841 72.9424 15.9922V23H71.3701L71.0557 21.001C70.5016 21.7796 69.8428 22.3449 69.0791 22.6968C68.3154 23.0487 67.4582 23.2246 66.5073 23.2246C65.8335 23.2246 65.2233 23.1385 64.6768 22.9663C64.1377 22.7941 63.6772 22.5396 63.2954 22.2026C62.9136 21.8582 62.6178 21.4315 62.4082 20.9224C62.2061 20.4132 62.105 19.8218 62.105 19.1479C62.105 18.4966 62.2285 17.9126 62.4756 17.396C62.7227 16.8794 63.0558 16.4414 63.4751 16.082C63.8944 15.7227 64.381 15.4494 64.9351 15.2622C65.4891 15.0675 66.0731 14.9702 66.687 14.9702C67.3009 14.9702 67.8587 15.0002 68.3604 15.0601C68.8695 15.12 69.3037 15.1873 69.6631 15.2622C70.0299 15.3296 70.3145 15.3932 70.5166 15.4531L70.8086 15.5317C70.8086 14.7606 70.7936 14.098 70.7637 13.5439C70.7337 12.9899 70.6252 12.5407 70.438 12.1963C70.2508 11.8444 69.9551 11.5861 69.5508 11.4214C69.1465 11.2567 68.57 11.1743 67.8213 11.1743ZM67.0352 21.686C67.7165 21.686 68.3604 21.54 68.9668 21.248C69.5807 20.9561 70.1947 20.5256 70.8086 19.9565V16.6099C70.4941 16.5649 70.1872 16.5275 69.8877 16.4976C69.6257 16.4676 69.3449 16.4414 69.0454 16.4189C68.7459 16.389 68.4652 16.374 68.2031 16.374C67.6641 16.374 67.1549 16.404 66.6758 16.4639C66.1966 16.5163 65.7773 16.6361 65.418 16.8232C65.0586 17.0104 64.7741 17.2799 64.5645 17.6318C64.3548 17.9837 64.25 18.4517 64.25 19.0356C64.25 19.5597 64.3174 19.994 64.4521 20.3384C64.5869 20.6753 64.7741 20.9448 65.0137 21.147C65.2607 21.3491 65.5527 21.4914 65.8896 21.5737C66.234 21.6486 66.6159 21.686 67.0352 21.686ZM82.2974 11.1743C81.9455 11.1743 81.5786 11.223 81.1968 11.3203C80.8224 11.4102 80.4518 11.5374 80.085 11.7021C79.7256 11.8594 79.3812 12.0503 79.0518 12.2749C78.7298 12.4995 78.4453 12.7428 78.1982 13.0049V19.7993C78.4079 20.0539 78.6624 20.2972 78.9619 20.5293C79.2689 20.7539 79.5946 20.9523 79.939 21.1245C80.2909 21.2967 80.6502 21.4352 81.0171 21.54C81.384 21.6374 81.7358 21.686 82.0728 21.686C82.7241 21.686 83.2669 21.5513 83.7012 21.2817C84.1354 21.0047 84.4798 20.6379 84.7344 20.1812C84.9964 19.717 85.1799 19.1854 85.2847 18.5864C85.397 17.98 85.4531 17.3511 85.4531 16.6997C85.4531 15.7264 85.3708 14.8916 85.2061 14.1953C85.0488 13.499 84.828 12.9263 84.5435 12.4771C84.2664 12.0278 83.9333 11.6984 83.5439 11.4888C83.1621 11.2791 82.7466 11.1743 82.2974 11.1743ZM82.1514 23.2246C81.7695 23.2246 81.3914 23.1685 81.0171 23.0562C80.6427 22.9513 80.2834 22.8053 79.939 22.6182C79.6021 22.431 79.2839 22.2139 78.9844 21.9668C78.6849 21.7122 78.4229 21.4427 78.1982 21.1582V28.2222L76.0645 28.4692V9.87158H77.6479L78.0186 12.0952C78.2731 11.7583 78.5576 11.4401 78.8721 11.1406C79.1865 10.8411 79.5197 10.5828 79.8716 10.3657C80.2235 10.1411 80.5866 9.96517 80.9609 9.83789C81.3353 9.70312 81.7134 9.63574 82.0952 9.63574C82.8813 9.63574 83.6038 9.75928 84.2627 10.0063C84.929 10.2459 85.498 10.6353 85.9697 11.1743C86.4489 11.7134 86.8232 12.4134 87.0928 13.2744C87.3623 14.1354 87.4971 15.1799 87.4971 16.4077C87.4971 16.9393 87.4521 17.4784 87.3623 18.0249C87.2799 18.564 87.1489 19.0881 86.9692 19.5972C86.7896 20.0988 86.5575 20.5705 86.2729 21.0122C85.9884 21.4539 85.6478 21.8395 85.251 22.1689C84.8542 22.4909 84.3975 22.7492 83.8809 22.9438C83.3717 23.131 82.7952 23.2246 82.1514 23.2246ZM90.5967 23V9.87158H92.6406V23H90.5967ZM90.4058 6.58105C90.4058 6.40137 90.4357 6.23665 90.4956 6.08691C90.563 5.92969 90.6528 5.79118 90.7651 5.67139C90.8774 5.5516 91.0085 5.45801 91.1582 5.39062C91.3079 5.32324 91.4689 5.28955 91.6411 5.28955C91.8208 5.28955 91.9855 5.32699 92.1353 5.40186C92.285 5.46924 92.416 5.56283 92.5283 5.68262C92.6406 5.80241 92.7267 5.94092 92.7866 6.09814C92.8465 6.25537 92.8765 6.41634 92.8765 6.58105C92.8765 6.76074 92.8428 6.9292 92.7754 7.08643C92.7155 7.23617 92.6294 7.37093 92.5171 7.49072C92.4048 7.61051 92.2738 7.7041 92.124 7.77148C91.9743 7.83887 91.8133 7.87256 91.6411 7.87256C91.4614 7.87256 91.2967 7.83887 91.147 7.77148C90.9972 7.69661 90.8662 7.59928 90.7539 7.47949C90.6416 7.3597 90.5555 7.22493 90.4956 7.0752C90.4357 6.91797 90.4058 6.75326 90.4058 6.58105ZM105.859 21.8657C105.559 22.0828 105.219 22.2775 104.837 22.4497C104.455 22.6144 104.066 22.7567 103.669 22.8765C103.28 22.9888 102.902 23.0749 102.535 23.1348C102.168 23.1947 101.853 23.2246 101.591 23.2246C100.603 23.2246 99.7383 23.0599 98.9971 22.7305C98.2633 22.401 97.6532 21.9406 97.1665 21.3491C96.6799 20.7502 96.313 20.0426 96.0659 19.2266C95.8263 18.403 95.7065 17.4971 95.7065 16.5088C95.7065 15.6178 95.8226 14.7606 96.0547 13.937C96.2943 13.106 96.6462 12.3722 97.1104 11.7358C97.5745 11.0994 98.151 10.5903 98.8398 10.2085C99.5286 9.82666 100.33 9.63574 101.243 9.63574C102.097 9.63574 102.845 9.76676 103.489 10.0288C104.141 10.2834 104.687 10.654 105.129 11.1406C105.571 11.6273 105.904 12.2225 106.128 12.9263C106.353 13.63 106.465 14.4274 106.465 15.3184C106.465 15.5579 106.458 15.79 106.443 16.0146C106.428 16.2318 106.405 16.4377 106.375 16.6323H97.8403C97.8403 17.5682 97.9302 18.3581 98.1099 19.002C98.2896 19.6458 98.5479 20.1662 98.8848 20.563C99.2217 20.9598 99.6335 21.248 100.12 21.4277C100.607 21.5999 101.157 21.686 101.771 21.686C102.13 21.686 102.46 21.6598 102.759 21.6074C103.059 21.5475 103.34 21.4652 103.602 21.3604C103.871 21.248 104.129 21.1095 104.376 20.9448C104.631 20.7801 104.893 20.5892 105.163 20.3721L105.859 21.8657ZM104.579 14.9478C104.579 14.3488 104.504 13.8172 104.354 13.353C104.204 12.8813 103.995 12.4845 103.725 12.1626C103.456 11.8407 103.134 11.5973 102.759 11.4326C102.392 11.2604 101.988 11.1743 101.546 11.1743C100.955 11.1743 100.438 11.2829 99.9966 11.5C99.5549 11.7171 99.1805 12.0129 98.8735 12.3872C98.5741 12.7616 98.3382 13.2033 98.166 13.7124C98.0013 14.214 97.8927 14.7568 97.8403 15.3408H104.579V14.9478ZM110.879 11.9717C111.104 11.6947 111.403 11.4176 111.777 11.1406C112.152 10.8636 112.56 10.6128 113.001 10.3882C113.451 10.1636 113.915 9.98389 114.394 9.84912C114.881 9.70687 115.345 9.63574 115.787 9.63574C116.573 9.63574 117.235 9.75553 117.774 9.99512C118.321 10.2272 118.766 10.5679 119.111 11.0171C119.455 11.4588 119.702 12.0016 119.852 12.6455C120.009 13.2894 120.088 14.0194 120.088 14.8354V23H117.954V14.8354C117.954 14.2664 117.909 13.7573 117.819 13.3081C117.729 12.8514 117.583 12.4658 117.381 12.1514C117.179 11.8369 116.917 11.5973 116.595 11.4326C116.273 11.2604 115.876 11.1743 115.405 11.1743C115.045 11.1743 114.652 11.2454 114.226 11.3877C113.799 11.5299 113.387 11.7021 112.99 11.9043C112.593 12.1064 112.23 12.3198 111.901 12.5444C111.571 12.769 111.328 12.96 111.171 13.1172V23H109.037V9.87158H110.609L110.879 11.9717ZM127.107 23.2246C126.448 23.2246 125.92 23.116 125.523 22.8989C125.127 22.6743 124.823 22.3486 124.614 21.9219C124.404 21.4876 124.266 20.9523 124.198 20.3159C124.131 19.672 124.097 18.9308 124.097 18.0923V11.0396H122.042V9.87158H124.131L124.412 5.81738L126.231 5.30078V9.87158H129.971V11.0396H126.231V19.687C126.231 20.0913 126.25 20.4245 126.287 20.6865C126.332 20.9411 126.403 21.1432 126.5 21.293C126.598 21.4427 126.725 21.5475 126.882 21.6074C127.047 21.6598 127.249 21.686 127.489 21.686C127.758 21.686 128.069 21.6112 128.421 21.4614C128.78 21.3042 129.263 21.0571 129.87 20.7202L130.622 22.1016C129.963 22.5059 129.349 22.7941 128.78 22.9663C128.211 23.1385 127.653 23.2246 127.107 23.2246ZM142.56 21.8657C142.261 22.0828 141.92 22.2775 141.538 22.4497C141.156 22.6144 140.767 22.7567 140.37 22.8765C139.981 22.9888 139.603 23.0749 139.236 23.1348C138.869 23.1947 138.555 23.2246 138.292 23.2246C137.304 23.2246 136.439 23.0599 135.698 22.7305C134.965 22.401 134.354 21.9406 133.868 21.3491C133.381 20.7502 133.014 20.0426 132.767 19.2266C132.528 18.403 132.408 17.4971 132.408 16.5088C132.408 15.6178 132.524 14.7606 132.756 13.937C132.995 13.106 133.347 12.3722 133.812 11.7358C134.276 11.0994 134.852 10.5903 135.541 10.2085C136.23 9.82666 137.031 9.63574 137.944 9.63574C138.798 9.63574 139.547 9.76676 140.19 10.0288C140.842 10.2834 141.388 10.654 141.83 11.1406C142.272 11.6273 142.605 12.2225 142.83 12.9263C143.054 13.63 143.167 14.4274 143.167 15.3184C143.167 15.5579 143.159 15.79 143.144 16.0146C143.129 16.2318 143.107 16.4377 143.077 16.6323H134.542C134.542 17.5682 134.631 18.3581 134.811 19.002C134.991 19.6458 135.249 20.1662 135.586 20.563C135.923 20.9598 136.335 21.248 136.821 21.4277C137.308 21.5999 137.858 21.686 138.472 21.686C138.832 21.686 139.161 21.6598 139.46 21.6074C139.76 21.5475 140.041 21.4652 140.303 21.3604C140.572 21.248 140.831 21.1095 141.078 20.9448C141.332 20.7801 141.594 20.5892 141.864 20.3721L142.56 21.8657ZM141.28 14.9478C141.28 14.3488 141.205 13.8172 141.055 13.353C140.905 12.8813 140.696 12.4845 140.426 12.1626C140.157 11.8407 139.835 11.5973 139.46 11.4326C139.094 11.2604 138.689 11.1743 138.248 11.1743C137.656 11.1743 137.139 11.2829 136.698 11.5C136.256 11.7171 135.882 12.0129 135.575 12.3872C135.275 12.7616 135.039 13.2033 134.867 13.7124C134.702 14.214 134.594 14.7568 134.542 15.3408H141.28V14.9478Z" fill="#2C383F"/>
</svg>
