<svg width="146" height="31" viewBox="0 0 146 31" fill="none" xmlns="http://www.w3.org/2000/svg">
<path d="M15.2469 23.4203C15.0495 23.2524 14.7941 23.1511 14.5151 23.1511H9.4849C9.20586 23.1511 8.95038 23.2524 8.75291 23.4204M15.2469 23.4203C15.4925 23.6293 15.6484 23.9413 15.6484 24.29V24.9728M15.2469 23.4203C16.1684 22.4502 16.7861 20.8604 16.7861 18.4057C16.7861 15.9882 19.5 14.3413 19.5 11.537C19.5 7.37445 16.1421 4 12 4C7.85786 4 4.5 7.37445 4.5 11.537C4.5 14.3413 7.21392 15.8984 7.21392 18.4057C7.21392 20.8605 7.8315 22.4503 8.75291 23.4204M8.75291 23.4204C8.50743 23.6294 8.35159 23.9414 8.35159 24.29V26.0702M15.6484 24.9728H10.816M15.6484 24.9728V27.1668M8.35159 26.0702V27.8505C8.35159 28.1832 8.52684 28.4817 8.79302 28.6026L11.7479 29.9448C11.91 30.0184 12.09 30.0184 12.2521 29.9448L15.207 28.6026C15.4732 28.4817 15.6484 28.1831 15.6484 27.8505V27.1668M8.35159 26.0702H9.94275M15.6484 27.1668H12.0532" stroke="white" stroke-linecap="round" stroke-linejoin="round"/>
<path fill-rule="evenodd" clip-rule="evenodd" d="M2.50752 5.59932C1.9346 5.45257 1.33478 5.37855 0.752918 5.31073C0.627593 5.29651 0.511238 5.37585 0.502286 5.48762C0.484382 5.59948 0.573952 5.70178 0.690325 5.71599C1.25429 5.78128 1.8361 5.85114 2.38216 5.99241C2.49853 6.02305 2.62391 5.95997 2.65971 5.85146C2.69552 5.74304 2.62389 5.63004 2.50752 5.59932Z" fill="white"/>
<path fill-rule="evenodd" clip-rule="evenodd" d="M4.24403 3.51857C3.32199 2.65975 2.28359 1.91148 1.37946 1.02962C1.29889 0.947264 1.15567 0.942852 1.06615 1.01974C0.97663 1.09671 0.967713 1.22613 1.05723 1.30849C1.96136 2.19288 2.99976 2.9436 3.9218 3.80495C4.01131 3.88535 4.15451 3.8865 4.24403 3.8074C4.32459 3.72839 4.33354 3.59897 4.24403 3.51857Z" fill="white"/>
<path fill-rule="evenodd" clip-rule="evenodd" d="M5.97188 0.215359C5.99874 0.706906 6.02554 1.19845 6.05239 1.69008C6.05239 1.80267 6.15987 1.88961 6.28519 1.88414C6.41052 1.87858 6.49998 1.78274 6.49998 1.67006C6.47313 1.1777 6.44632 0.685417 6.41947 0.193135C6.41052 0.0805429 6.30308 -0.00582104 6.17775 0.000306958C6.06138 0.00643496 5.96293 0.102849 5.97188 0.215359Z" fill="white"/>
<path d="M40.3911 13.9482C40.3911 14.7718 40.3462 15.5804 40.2563 16.374C40.1665 17.1602 40.013 17.9089 39.7959 18.6201C39.5863 19.3239 39.298 19.9753 38.9312 20.5742C38.5718 21.1657 38.1188 21.6785 37.5723 22.1128C37.0257 22.5396 36.3743 22.8727 35.6182 23.1123C34.8695 23.3594 34.001 23.4829 33.0127 23.4829C32.0169 23.4829 31.141 23.3556 30.3848 23.1011C29.6286 22.854 28.9772 22.5059 28.4307 22.0566C27.8916 21.6074 27.4424 21.0758 27.083 20.4619C26.7236 19.848 26.4354 19.1779 26.2183 18.4517C26.0086 17.7254 25.8589 16.9618 25.769 16.1606C25.6867 15.3521 25.6455 14.5285 25.6455 13.6899C25.6455 12.3348 25.8027 11.1182 26.1172 10.04C26.4391 8.95443 26.9108 8.03353 27.5322 7.27734C28.1536 6.52116 28.9211 5.94466 29.8345 5.54785C30.7554 5.14355 31.8148 4.94141 33.0127 4.94141C34.2181 4.94141 35.2812 5.14355 36.2021 5.54785C37.123 5.95215 37.8942 6.53988 38.5156 7.31104C39.137 8.08219 39.605 9.02555 39.9194 10.1411C40.2339 11.2567 40.3911 12.5257 40.3911 13.9482ZM27.9028 14.2964C27.9028 16.812 28.3371 18.6838 29.2056 19.9116C30.0815 21.132 31.3506 21.7422 33.0127 21.7422C33.7913 21.7422 34.4951 21.6112 35.124 21.3491C35.7529 21.0796 36.2882 20.6491 36.73 20.0576C37.1792 19.4661 37.5236 18.6987 37.7632 17.7554C38.0028 16.8045 38.1226 15.6515 38.1226 14.2964C38.1226 12.9412 38.0103 11.7808 37.7856 10.8149C37.561 9.84163 37.2316 9.04427 36.7974 8.42285C36.3706 7.80143 35.8428 7.34473 35.2139 7.05273C34.5924 6.76074 33.8849 6.61475 33.0913 6.61475C32.2677 6.61475 31.534 6.757 30.8901 7.0415C30.2463 7.31852 29.7035 7.764 29.2617 8.37793C28.82 8.99186 28.4831 9.78548 28.251 10.7588C28.0189 11.7321 27.9028 12.9113 27.9028 14.2964ZM60.4375 18.3057C60.4375 18.9495 60.3289 19.5785 60.1118 20.1924C59.9022 20.8063 59.5465 21.3566 59.0449 21.8433C58.5508 22.3299 57.8957 22.7192 57.0796 23.0112C56.2635 23.3107 55.2565 23.4604 54.0586 23.4604C53.3997 23.4604 52.7633 23.3931 52.1494 23.2583C51.5355 23.131 50.9889 22.9888 50.5098 22.8315C49.9482 22.6444 49.4204 22.431 48.9263 22.1914L49.1509 20.5068C49.5926 20.7389 50.0643 20.9486 50.5659 21.1357C50.9927 21.293 51.4831 21.4352 52.0371 21.5625C52.5911 21.6898 53.1639 21.7534 53.7554 21.7534C54.3468 21.7534 54.9121 21.7085 55.4512 21.6187C55.9902 21.5213 56.4619 21.3491 56.8662 21.1021C57.2705 20.855 57.5924 20.5143 57.832 20.0801C58.0716 19.6458 58.1914 19.0881 58.1914 18.4067C58.1914 17.98 58.124 17.5944 57.9893 17.25C57.862 16.9056 57.6748 16.5986 57.4277 16.3291C57.1807 16.0521 56.8812 15.8125 56.5293 15.6104C56.1849 15.4007 55.7956 15.2173 55.3613 15.0601L52.1719 13.937C51.6628 13.7573 51.1649 13.5439 50.6782 13.2969C50.1991 13.0423 49.7723 12.7391 49.3979 12.3872C49.0236 12.0278 48.7204 11.616 48.4883 11.1519C48.2637 10.6877 48.1514 10.1523 48.1514 9.5459C48.1514 8.71484 48.2936 8.00732 48.5781 7.42334C48.8626 6.83936 49.2594 6.36393 49.7686 5.99707C50.2852 5.62272 50.8953 5.34945 51.5991 5.17725C52.3104 5.00505 53.0928 4.91895 53.9463 4.91895C54.4928 4.91895 55.0169 4.96012 55.5186 5.04248C56.0202 5.11735 56.4956 5.22217 56.9448 5.35693C57.4015 5.4917 57.8245 5.64518 58.2139 5.81738C58.6107 5.9821 58.9701 6.1543 59.292 6.33398L58.9551 7.98486C58.6781 7.82015 58.3599 7.65918 58.0005 7.50195C57.6486 7.33724 57.2705 7.19124 56.8662 7.06396C56.4619 6.93669 56.0389 6.83187 55.5972 6.74951C55.1629 6.66715 54.7249 6.62598 54.2832 6.62598C53.5869 6.62598 52.9917 6.67839 52.4976 6.7832C52.0109 6.88802 51.6104 7.05273 51.2959 7.27734C50.9889 7.50195 50.7606 7.7902 50.6108 8.14209C50.4686 8.49398 50.3975 8.91699 50.3975 9.41113C50.3975 10.5866 51.12 11.4251 52.5649 11.9268L56.0801 13.1509C56.6641 13.353 57.2181 13.6076 57.7422 13.9146C58.2738 14.214 58.738 14.5734 59.1348 14.9927C59.5391 15.4119 59.8573 15.8949 60.0894 16.4414C60.3215 16.988 60.4375 17.6094 60.4375 18.3057ZM68.3213 11.1743C67.9844 11.1743 67.6287 11.2043 67.2544 11.2642C66.8875 11.3241 66.5207 11.4139 66.1538 11.5337C65.7944 11.646 65.4425 11.7882 65.0981 11.9604C64.7612 12.1252 64.4543 12.3161 64.1772 12.5332L63.4136 11.0508C63.8403 10.8187 64.2371 10.6165 64.604 10.4443C64.9709 10.2646 65.3415 10.1149 65.7158 9.99512C66.0977 9.87533 66.4945 9.78548 66.9062 9.72559C67.3255 9.66569 67.7972 9.63574 68.3213 9.63574C69.4518 9.63574 70.354 9.75928 71.0278 10.0063C71.7091 10.2534 72.2257 10.6353 72.5776 11.1519C72.937 11.6685 73.1691 12.3273 73.2739 13.1284C73.3862 13.9295 73.4424 14.8841 73.4424 15.9922V23H71.8701L71.5557 21.001C71.0016 21.7796 70.3428 22.3449 69.5791 22.6968C68.8154 23.0487 67.9582 23.2246 67.0073 23.2246C66.3335 23.2246 65.7233 23.1385 65.1768 22.9663C64.6377 22.7941 64.1772 22.5396 63.7954 22.2026C63.4136 21.8582 63.1178 21.4315 62.9082 20.9224C62.7061 20.4132 62.605 19.8218 62.605 19.1479C62.605 18.4966 62.7285 17.9126 62.9756 17.396C63.2227 16.8794 63.5558 16.4414 63.9751 16.082C64.3944 15.7227 64.881 15.4494 65.4351 15.2622C65.9891 15.0675 66.5731 14.9702 67.187 14.9702C67.8009 14.9702 68.3587 15.0002 68.8604 15.0601C69.3695 15.12 69.8037 15.1873 70.1631 15.2622C70.5299 15.3296 70.8145 15.3932 71.0166 15.4531L71.3086 15.5317C71.3086 14.7606 71.2936 14.098 71.2637 13.5439C71.2337 12.9899 71.1252 12.5407 70.938 12.1963C70.7508 11.8444 70.4551 11.5861 70.0508 11.4214C69.6465 11.2567 69.07 11.1743 68.3213 11.1743ZM67.5352 21.686C68.2165 21.686 68.8604 21.54 69.4668 21.248C70.0807 20.9561 70.6947 20.5256 71.3086 19.9565V16.6099C70.9941 16.5649 70.6872 16.5275 70.3877 16.4976C70.1257 16.4676 69.8449 16.4414 69.5454 16.4189C69.2459 16.389 68.9652 16.374 68.7031 16.374C68.1641 16.374 67.6549 16.404 67.1758 16.4639C66.6966 16.5163 66.2773 16.6361 65.918 16.8232C65.5586 17.0104 65.2741 17.2799 65.0645 17.6318C64.8548 17.9837 64.75 18.4517 64.75 19.0356C64.75 19.5597 64.8174 19.994 64.9521 20.3384C65.0869 20.6753 65.2741 20.9448 65.5137 21.147C65.7607 21.3491 66.0527 21.4914 66.3896 21.5737C66.734 21.6486 67.1159 21.686 67.5352 21.686ZM82.7974 11.1743C82.4455 11.1743 82.0786 11.223 81.6968 11.3203C81.3224 11.4102 80.9518 11.5374 80.585 11.7021C80.2256 11.8594 79.8812 12.0503 79.5518 12.2749C79.2298 12.4995 78.9453 12.7428 78.6982 13.0049V19.7993C78.9079 20.0539 79.1624 20.2972 79.4619 20.5293C79.7689 20.7539 80.0946 20.9523 80.439 21.1245C80.7909 21.2967 81.1502 21.4352 81.5171 21.54C81.884 21.6374 82.2358 21.686 82.5728 21.686C83.2241 21.686 83.7669 21.5513 84.2012 21.2817C84.6354 21.0047 84.9798 20.6379 85.2344 20.1812C85.4964 19.717 85.6799 19.1854 85.7847 18.5864C85.897 17.98 85.9531 17.3511 85.9531 16.6997C85.9531 15.7264 85.8708 14.8916 85.7061 14.1953C85.5488 13.499 85.328 12.9263 85.0435 12.4771C84.7664 12.0278 84.4333 11.6984 84.0439 11.4888C83.6621 11.2791 83.2466 11.1743 82.7974 11.1743ZM82.6514 23.2246C82.2695 23.2246 81.8914 23.1685 81.5171 23.0562C81.1427 22.9513 80.7834 22.8053 80.439 22.6182C80.1021 22.431 79.7839 22.2139 79.4844 21.9668C79.1849 21.7122 78.9229 21.4427 78.6982 21.1582V28.2222L76.5645 28.4692V9.87158H78.1479L78.5186 12.0952C78.7731 11.7583 79.0576 11.4401 79.3721 11.1406C79.6865 10.8411 80.0197 10.5828 80.3716 10.3657C80.7235 10.1411 81.0866 9.96517 81.4609 9.83789C81.8353 9.70312 82.2134 9.63574 82.5952 9.63574C83.3813 9.63574 84.1038 9.75928 84.7627 10.0063C85.429 10.2459 85.998 10.6353 86.4697 11.1743C86.9489 11.7134 87.3232 12.4134 87.5928 13.2744C87.8623 14.1354 87.9971 15.1799 87.9971 16.4077C87.9971 16.9393 87.9521 17.4784 87.8623 18.0249C87.7799 18.564 87.6489 19.0881 87.4692 19.5972C87.2896 20.0988 87.0575 20.5705 86.7729 21.0122C86.4884 21.4539 86.1478 21.8395 85.751 22.1689C85.3542 22.4909 84.8975 22.7492 84.3809 22.9438C83.8717 23.131 83.2952 23.2246 82.6514 23.2246ZM91.0967 23V9.87158H93.1406V23H91.0967ZM90.9058 6.58105C90.9058 6.40137 90.9357 6.23665 90.9956 6.08691C91.063 5.92969 91.1528 5.79118 91.2651 5.67139C91.3774 5.5516 91.5085 5.45801 91.6582 5.39062C91.8079 5.32324 91.9689 5.28955 92.1411 5.28955C92.3208 5.28955 92.4855 5.32699 92.6353 5.40186C92.785 5.46924 92.916 5.56283 93.0283 5.68262C93.1406 5.80241 93.2267 5.94092 93.2866 6.09814C93.3465 6.25537 93.3765 6.41634 93.3765 6.58105C93.3765 6.76074 93.3428 6.9292 93.2754 7.08643C93.2155 7.23617 93.1294 7.37093 93.0171 7.49072C92.9048 7.61051 92.7738 7.7041 92.624 7.77148C92.4743 7.83887 92.3133 7.87256 92.1411 7.87256C91.9614 7.87256 91.7967 7.83887 91.647 7.77148C91.4972 7.69661 91.3662 7.59928 91.2539 7.47949C91.1416 7.3597 91.0555 7.22493 90.9956 7.0752C90.9357 6.91797 90.9058 6.75326 90.9058 6.58105ZM106.359 21.8657C106.059 22.0828 105.719 22.2775 105.337 22.4497C104.955 22.6144 104.566 22.7567 104.169 22.8765C103.78 22.9888 103.402 23.0749 103.035 23.1348C102.668 23.1947 102.353 23.2246 102.091 23.2246C101.103 23.2246 100.238 23.0599 99.4971 22.7305C98.7633 22.401 98.1532 21.9406 97.6665 21.3491C97.1799 20.7502 96.813 20.0426 96.5659 19.2266C96.3263 18.403 96.2065 17.4971 96.2065 16.5088C96.2065 15.6178 96.3226 14.7606 96.5547 13.937C96.7943 13.106 97.1462 12.3722 97.6104 11.7358C98.0745 11.0994 98.651 10.5903 99.3398 10.2085C100.029 9.82666 100.83 9.63574 101.743 9.63574C102.597 9.63574 103.345 9.76676 103.989 10.0288C104.641 10.2834 105.187 10.654 105.629 11.1406C106.071 11.6273 106.404 12.2225 106.628 12.9263C106.853 13.63 106.965 14.4274 106.965 15.3184C106.965 15.5579 106.958 15.79 106.943 16.0146C106.928 16.2318 106.905 16.4377 106.875 16.6323H98.3403C98.3403 17.5682 98.4302 18.3581 98.6099 19.002C98.7896 19.6458 99.0479 20.1662 99.3848 20.563C99.7217 20.9598 100.133 21.248 100.62 21.4277C101.107 21.5999 101.657 21.686 102.271 21.686C102.63 21.686 102.96 21.6598 103.259 21.6074C103.559 21.5475 103.84 21.4652 104.102 21.3604C104.371 21.248 104.629 21.1095 104.876 20.9448C105.131 20.7801 105.393 20.5892 105.663 20.3721L106.359 21.8657ZM105.079 14.9478C105.079 14.3488 105.004 13.8172 104.854 13.353C104.704 12.8813 104.495 12.4845 104.225 12.1626C103.956 11.8407 103.634 11.5973 103.259 11.4326C102.892 11.2604 102.488 11.1743 102.046 11.1743C101.455 11.1743 100.938 11.2829 100.497 11.5C100.055 11.7171 99.6805 12.0129 99.3735 12.3872C99.0741 12.7616 98.8382 13.2033 98.666 13.7124C98.5013 14.214 98.3927 14.7568 98.3403 15.3408H105.079V14.9478ZM111.379 11.9717C111.604 11.6947 111.903 11.4176 112.277 11.1406C112.652 10.8636 113.06 10.6128 113.501 10.3882C113.951 10.1636 114.415 9.98389 114.894 9.84912C115.381 9.70687 115.845 9.63574 116.287 9.63574C117.073 9.63574 117.735 9.75553 118.274 9.99512C118.821 10.2272 119.266 10.5679 119.611 11.0171C119.955 11.4588 120.202 12.0016 120.352 12.6455C120.509 13.2894 120.588 14.0194 120.588 14.8354V23H118.454V14.8354C118.454 14.2664 118.409 13.7573 118.319 13.3081C118.229 12.8514 118.083 12.4658 117.881 12.1514C117.679 11.8369 117.417 11.5973 117.095 11.4326C116.773 11.2604 116.376 11.1743 115.905 11.1743C115.545 11.1743 115.152 11.2454 114.726 11.3877C114.299 11.5299 113.887 11.7021 113.49 11.9043C113.093 12.1064 112.73 12.3198 112.401 12.5444C112.071 12.769 111.828 12.96 111.671 13.1172V23H109.537V9.87158H111.109L111.379 11.9717ZM127.607 23.2246C126.948 23.2246 126.42 23.116 126.023 22.8989C125.627 22.6743 125.323 22.3486 125.114 21.9219C124.904 21.4876 124.766 20.9523 124.698 20.3159C124.631 19.672 124.597 18.9308 124.597 18.0923V11.0396H122.542V9.87158H124.631L124.912 5.81738L126.731 5.30078V9.87158H130.471V11.0396H126.731V19.687C126.731 20.0913 126.75 20.4245 126.787 20.6865C126.832 20.9411 126.903 21.1432 127 21.293C127.098 21.4427 127.225 21.5475 127.382 21.6074C127.547 21.6598 127.749 21.686 127.989 21.686C128.258 21.686 128.569 21.6112 128.921 21.4614C129.28 21.3042 129.763 21.0571 130.37 20.7202L131.122 22.1016C130.463 22.5059 129.849 22.7941 129.28 22.9663C128.711 23.1385 128.153 23.2246 127.607 23.2246ZM143.06 21.8657C142.761 22.0828 142.42 22.2775 142.038 22.4497C141.656 22.6144 141.267 22.7567 140.87 22.8765C140.481 22.9888 140.103 23.0749 139.736 23.1348C139.369 23.1947 139.055 23.2246 138.792 23.2246C137.804 23.2246 136.939 23.0599 136.198 22.7305C135.465 22.401 134.854 21.9406 134.368 21.3491C133.881 20.7502 133.514 20.0426 133.267 19.2266C133.028 18.403 132.908 17.4971 132.908 16.5088C132.908 15.6178 133.024 14.7606 133.256 13.937C133.495 13.106 133.847 12.3722 134.312 11.7358C134.776 11.0994 135.352 10.5903 136.041 10.2085C136.73 9.82666 137.531 9.63574 138.444 9.63574C139.298 9.63574 140.047 9.76676 140.69 10.0288C141.342 10.2834 141.888 10.654 142.33 11.1406C142.772 11.6273 143.105 12.2225 143.33 12.9263C143.554 13.63 143.667 14.4274 143.667 15.3184C143.667 15.5579 143.659 15.79 143.644 16.0146C143.629 16.2318 143.607 16.4377 143.577 16.6323H135.042C135.042 17.5682 135.131 18.3581 135.311 19.002C135.491 19.6458 135.749 20.1662 136.086 20.563C136.423 20.9598 136.835 21.248 137.321 21.4277C137.808 21.5999 138.358 21.686 138.972 21.686C139.332 21.686 139.661 21.6598 139.96 21.6074C140.26 21.5475 140.541 21.4652 140.803 21.3604C141.072 21.248 141.331 21.1095 141.578 20.9448C141.832 20.7801 142.094 20.5892 142.364 20.3721L143.06 21.8657ZM141.78 14.9478C141.78 14.3488 141.705 13.8172 141.555 13.353C141.405 12.8813 141.196 12.4845 140.926 12.1626C140.657 11.8407 140.335 11.5973 139.96 11.4326C139.594 11.2604 139.189 11.1743 138.748 11.1743C138.156 11.1743 137.639 11.2829 137.198 11.5C136.756 11.7171 136.382 12.0129 136.075 12.3872C135.775 12.7616 135.539 13.2033 135.367 13.7124C135.202 14.214 135.094 14.7568 135.042 15.3408H141.78V14.9478Z" fill="white"/>
</svg>
