<svg width="143" height="31" viewBox="0 0 143 31" fill="none" xmlns="http://www.w3.org/2000/svg">
<path d="M14.7469 23.4203C14.5495 23.2524 14.2941 23.1511 14.0151 23.1511H8.9849C8.70586 23.1511 8.45038 23.2524 8.25291 23.4204M14.7469 23.4203C14.9925 23.6293 15.1484 23.9413 15.1484 24.29V24.9728M14.7469 23.4203C15.6684 22.4502 16.2861 20.8604 16.2861 18.4057C16.2861 15.9882 19 14.3413 19 11.537C19 7.37445 15.6421 4 11.5 4C7.35786 4 4 7.37445 4 11.537C4 14.3413 6.71392 15.8984 6.71392 18.4057C6.71392 20.8605 7.3315 22.4503 8.25291 23.4204M8.25291 23.4204C8.00743 23.6294 7.85159 23.9414 7.85159 24.29V26.0702M15.1484 24.9728H10.316M15.1484 24.9728V27.1668M7.85159 26.0702V27.8505C7.85159 28.1832 8.02684 28.4817 8.29302 28.6026L11.2479 29.9448C11.41 30.0184 11.59 30.0184 11.7521 29.9448L14.707 28.6026C14.9732 28.4817 15.1484 28.1831 15.1484 27.8505V27.1668M7.85159 26.0702H9.44275M15.1484 27.1668H11.5532" stroke="white" stroke-linecap="round" stroke-linejoin="round"/>
<path fill-rule="evenodd" clip-rule="evenodd" d="M2.00752 5.59932C1.4346 5.45257 0.834783 5.37855 0.252918 5.31073C0.127593 5.29651 0.0112376 5.37585 0.0022858 5.48762C-0.0156177 5.59948 0.0739524 5.70178 0.190325 5.71599C0.754287 5.78128 1.3361 5.85114 1.88216 5.99241C1.99853 6.02305 2.12391 5.95997 2.15971 5.85146C2.19552 5.74304 2.12389 5.63004 2.00752 5.59932Z" fill="white"/>
<path fill-rule="evenodd" clip-rule="evenodd" d="M3.74427 3.51857C2.82224 2.65975 1.78383 1.91148 0.879704 1.02962C0.799138 0.947264 0.65591 0.942852 0.566392 1.01974C0.476874 1.09671 0.467957 1.22613 0.557475 1.30849C1.4616 2.19288 2.50001 2.9436 3.42204 3.80495C3.51156 3.88535 3.65475 3.8865 3.74427 3.8074C3.82484 3.72839 3.83379 3.59897 3.74427 3.51857Z" fill="white"/>
<path fill-rule="evenodd" clip-rule="evenodd" d="M5.47176 0.215359C5.49861 0.706906 5.52542 1.19845 5.55227 1.69008C5.55227 1.80267 5.65974 1.88961 5.78507 1.88414C5.91039 1.87858 5.99986 1.78274 5.99986 1.67006C5.973 1.1777 5.9462 0.685417 5.91935 0.193135C5.91039 0.0805429 5.80296 -0.00582104 5.67763 0.000306958C5.56126 0.00643496 5.46281 0.102849 5.47176 0.215359Z" fill="white"/>
<path d="M38.7456 15.479C38.7456 16.3026 38.7007 17.1112 38.6108 17.9048C38.521 18.6909 38.3675 19.4396 38.1504 20.1509C37.9408 20.8547 37.6525 21.506 37.2856 22.105C36.9263 22.6965 36.4733 23.2093 35.9268 23.6436C35.3802 24.0703 34.7288 24.4035 33.9727 24.6431C33.224 24.8901 32.3555 25.0137 31.3672 25.0137C30.3714 25.0137 29.4954 24.8864 28.7393 24.6318C27.9831 24.3848 27.3317 24.0366 26.7852 23.5874C26.2461 23.1382 25.7969 22.6066 25.4375 21.9927C25.0781 21.3787 24.7899 20.7087 24.5728 19.9824C24.3631 19.2562 24.2134 18.4925 24.1235 17.6914C24.0412 16.8828 24 16.0592 24 15.2207C24 13.8656 24.1572 12.6489 24.4717 11.5708C24.7936 10.4852 25.2653 9.56429 25.8867 8.80811C26.5081 8.05192 27.2756 7.47542 28.189 7.07861C29.1099 6.67432 30.1693 6.47217 31.3672 6.47217C32.5726 6.47217 33.6357 6.67432 34.5566 7.07861C35.4775 7.48291 36.2487 8.07064 36.8701 8.8418C37.4915 9.61296 37.9595 10.5563 38.2739 11.6719C38.5884 12.7874 38.7456 14.0565 38.7456 15.479ZM26.2573 15.8271C26.2573 18.3428 26.6916 20.2145 27.5601 21.4424C28.436 22.6628 29.7051 23.2729 31.3672 23.2729C32.1458 23.2729 32.8496 23.1419 33.4785 22.8799C34.1074 22.6104 34.6427 22.1799 35.0845 21.5884C35.5337 20.9969 35.8781 20.2295 36.1177 19.2861C36.3573 18.3353 36.4771 17.1823 36.4771 15.8271C36.4771 14.472 36.3647 13.3115 36.1401 12.3457C35.9155 11.3724 35.5861 10.575 35.1519 9.95361C34.7251 9.33219 34.1973 8.87549 33.5684 8.5835C32.9469 8.2915 32.2394 8.14551 31.4458 8.14551C30.6222 8.14551 29.8885 8.28776 29.2446 8.57227C28.6007 8.84928 28.0579 9.29476 27.6162 9.90869C27.1745 10.5226 26.8376 11.3162 26.6055 12.2896C26.3734 13.2629 26.2573 14.4421 26.2573 15.8271Z" fill="white"/>
<path d="M58.792 19.8364C58.792 20.4803 58.6834 21.1092 58.4663 21.7231C58.2567 22.3371 57.901 22.8874 57.3994 23.374C56.9053 23.8607 56.2502 24.25 55.4341 24.542C54.618 24.8415 53.611 24.9912 52.4131 24.9912C51.7542 24.9912 51.1178 24.9238 50.5039 24.7891C49.89 24.6618 49.3434 24.5195 48.8643 24.3623C48.3027 24.1751 47.7749 23.9618 47.2808 23.7222L47.5054 22.0376C47.9471 22.2697 48.4188 22.4793 48.9204 22.6665C49.3472 22.8237 49.8376 22.966 50.3916 23.0933C50.9456 23.2205 51.5184 23.2842 52.1099 23.2842C52.7013 23.2842 53.2666 23.2393 53.8057 23.1494C54.3447 23.0521 54.8164 22.8799 55.2207 22.6328C55.625 22.3857 55.9469 22.0451 56.1865 21.6108C56.4261 21.1766 56.5459 20.6188 56.5459 19.9375C56.5459 19.5107 56.4785 19.1252 56.3438 18.7808C56.2165 18.4364 56.0293 18.1294 55.7822 17.8599C55.5352 17.5828 55.2357 17.3433 54.8838 17.1411C54.5394 16.9315 54.1501 16.748 53.7158 16.5908L50.5264 15.4678C50.0173 15.2881 49.5194 15.0747 49.0327 14.8276C48.5535 14.5731 48.1268 14.2699 47.7524 13.918C47.3781 13.5586 47.0749 13.1468 46.8428 12.6826C46.6182 12.2184 46.5059 11.6831 46.5059 11.0767C46.5059 10.2456 46.6481 9.53809 46.9326 8.9541C47.2171 8.37012 47.6139 7.89469 48.123 7.52783C48.6396 7.15348 49.2498 6.88021 49.9536 6.70801C50.6649 6.53581 51.4473 6.44971 52.3008 6.44971C52.8473 6.44971 53.3714 6.49089 53.873 6.57324C54.3747 6.64811 54.8501 6.75293 55.2993 6.8877C55.756 7.02246 56.179 7.17594 56.5684 7.34814C56.9652 7.51286 57.3245 7.68506 57.6465 7.86475L57.3096 9.51562C57.0326 9.35091 56.7144 9.18994 56.355 9.03271C56.0031 8.868 55.625 8.72201 55.2207 8.59473C54.8164 8.46745 54.3934 8.36263 53.9517 8.28027C53.5174 8.19792 53.0794 8.15674 52.6377 8.15674C51.9414 8.15674 51.3462 8.20915 50.8521 8.31396C50.3654 8.41878 49.9648 8.5835 49.6504 8.80811C49.3434 9.03271 49.1151 9.32096 48.9653 9.67285C48.8231 10.0247 48.752 10.4478 48.752 10.9419C48.752 12.1174 49.4744 12.9559 50.9194 13.4575L54.4346 14.6816C55.0186 14.8838 55.5726 15.1383 56.0967 15.4453C56.6283 15.7448 57.0924 16.1042 57.4893 16.5234C57.8936 16.9427 58.2118 17.4256 58.4438 17.9722C58.6759 18.5187 58.792 19.1401 58.792 19.8364Z" fill="white"/>
<path d="M66.6758 12.7051C66.3389 12.7051 65.9832 12.735 65.6089 12.7949C65.242 12.8548 64.8752 12.9447 64.5083 13.0645C64.1489 13.1768 63.797 13.319 63.4526 13.4912C63.1157 13.6559 62.8088 13.8468 62.5317 14.064L61.7681 12.5815C62.1948 12.3494 62.5916 12.1473 62.9585 11.9751C63.3254 11.7954 63.696 11.6457 64.0703 11.5259C64.4521 11.4061 64.849 11.3162 65.2607 11.2563C65.68 11.1965 66.1517 11.1665 66.6758 11.1665C67.8063 11.1665 68.7085 11.29 69.3823 11.5371C70.0636 11.7842 70.5802 12.166 70.9321 12.6826C71.2915 13.1992 71.5236 13.8581 71.6284 14.6592C71.7407 15.4603 71.7969 16.4149 71.7969 17.5229V24.5308H70.2246L69.9102 22.5317C69.3561 23.3104 68.6973 23.8757 67.9336 24.2275C67.1699 24.5794 66.3127 24.7554 65.3618 24.7554C64.688 24.7554 64.0778 24.6693 63.5312 24.4971C62.9922 24.3249 62.5317 24.0703 62.1499 23.7334C61.7681 23.389 61.4723 22.9622 61.2627 22.4531C61.0605 21.944 60.9595 21.3525 60.9595 20.6787C60.9595 20.0273 61.083 19.4434 61.3301 18.9268C61.5771 18.4102 61.9103 17.9722 62.3296 17.6128C62.7489 17.2534 63.2355 16.9801 63.7896 16.793C64.3436 16.5983 64.9276 16.501 65.5415 16.501C66.1554 16.501 66.7132 16.5309 67.2148 16.5908C67.724 16.6507 68.1582 16.7181 68.5176 16.793C68.8844 16.8604 69.1689 16.924 69.3711 16.9839L69.6631 17.0625C69.6631 16.2913 69.6481 15.6287 69.6182 15.0747C69.5882 14.5207 69.4797 14.0715 69.2925 13.7271C69.1053 13.3752 68.8096 13.1169 68.4053 12.9521C68.001 12.7874 67.4245 12.7051 66.6758 12.7051ZM65.8896 23.2168C66.571 23.2168 67.2148 23.0708 67.8213 22.7788C68.4352 22.4868 69.0492 22.0563 69.6631 21.4873V18.1406C69.3486 18.0957 69.0417 18.0583 68.7422 18.0283C68.4801 17.9984 68.1994 17.9722 67.8999 17.9497C67.6004 17.9198 67.3197 17.9048 67.0576 17.9048C66.5186 17.9048 66.0094 17.9347 65.5303 17.9946C65.0511 18.047 64.6318 18.1668 64.2725 18.354C63.9131 18.5412 63.6286 18.8107 63.4189 19.1626C63.2093 19.5145 63.1045 19.9824 63.1045 20.5664C63.1045 21.0905 63.1719 21.5247 63.3066 21.8691C63.4414 22.2061 63.6286 22.4756 63.8682 22.6777C64.1152 22.8799 64.4072 23.0221 64.7441 23.1045C65.0885 23.1794 65.4704 23.2168 65.8896 23.2168Z" fill="white"/>
<path d="M81.1519 12.7051C80.8 12.7051 80.4331 12.7537 80.0513 12.8511C79.6769 12.9409 79.3063 13.0682 78.9395 13.2329C78.5801 13.3901 78.2357 13.5811 77.9062 13.8057C77.5843 14.0303 77.2998 14.2736 77.0527 14.5356V21.3301C77.2624 21.5846 77.5169 21.828 77.8164 22.0601C78.1234 22.2847 78.4491 22.4831 78.7935 22.6553C79.1453 22.8275 79.5047 22.966 79.8716 23.0708C80.2384 23.1681 80.5903 23.2168 80.9272 23.2168C81.5786 23.2168 82.1214 23.082 82.5557 22.8125C82.9899 22.5355 83.3343 22.1686 83.5889 21.7119C83.8509 21.2477 84.0343 20.7161 84.1392 20.1172C84.2515 19.5107 84.3076 18.8818 84.3076 18.2305C84.3076 17.2572 84.2253 16.4224 84.0605 15.7261C83.9033 15.0298 83.6825 14.457 83.3979 14.0078C83.1209 13.5586 82.7878 13.2292 82.3984 13.0195C82.0166 12.8099 81.6011 12.7051 81.1519 12.7051ZM81.0059 24.7554C80.624 24.7554 80.2459 24.6992 79.8716 24.5869C79.4972 24.4821 79.1379 24.3361 78.7935 24.1489C78.4565 23.9618 78.1383 23.7446 77.8389 23.4976C77.5394 23.243 77.2773 22.9735 77.0527 22.689V29.7529L74.9189 30V11.4023H76.5024L76.873 13.626C77.1276 13.2891 77.4121 12.9709 77.7266 12.6714C78.041 12.3719 78.3742 12.1136 78.7261 11.8965C79.078 11.6719 79.4411 11.4959 79.8154 11.3687C80.1898 11.2339 80.5679 11.1665 80.9497 11.1665C81.7358 11.1665 82.4583 11.29 83.1172 11.5371C83.7835 11.7767 84.3525 12.166 84.8242 12.7051C85.3034 13.2441 85.6777 13.9442 85.9473 14.8052C86.2168 15.6662 86.3516 16.7106 86.3516 17.9385C86.3516 18.4701 86.3066 19.0091 86.2168 19.5557C86.1344 20.0947 86.0034 20.6188 85.8237 21.1279C85.644 21.6296 85.4119 22.1012 85.1274 22.543C84.8429 22.9847 84.5023 23.3703 84.1055 23.6997C83.7087 24.0216 83.252 24.2799 82.7354 24.4746C82.2262 24.6618 81.6497 24.7554 81.0059 24.7554Z" fill="white"/>
<path d="M89.4512 24.5308V11.4023H91.4951V24.5308H89.4512ZM89.2603 8.11182C89.2603 7.93213 89.2902 7.76742 89.3501 7.61768C89.4175 7.46045 89.5073 7.32194 89.6196 7.20215C89.7319 7.08236 89.863 6.98877 90.0127 6.92139C90.1624 6.854 90.3234 6.82031 90.4956 6.82031C90.6753 6.82031 90.84 6.85775 90.9897 6.93262C91.1395 7 91.2705 7.09359 91.3828 7.21338C91.4951 7.33317 91.5812 7.47168 91.6411 7.62891C91.701 7.78613 91.731 7.9471 91.731 8.11182C91.731 8.2915 91.6973 8.45996 91.6299 8.61719C91.57 8.76693 91.4839 8.90169 91.3716 9.02148C91.2593 9.14128 91.1283 9.23486 90.9785 9.30225C90.8288 9.36963 90.6678 9.40332 90.4956 9.40332C90.3159 9.40332 90.1512 9.36963 90.0015 9.30225C89.8517 9.22738 89.7207 9.13005 89.6084 9.01025C89.4961 8.89046 89.41 8.7557 89.3501 8.60596C89.2902 8.44873 89.2603 8.28402 89.2603 8.11182Z" fill="white"/>
<path d="M104.713 23.3965C104.414 23.6136 104.073 23.8083 103.691 23.9805C103.31 24.1452 102.92 24.2874 102.523 24.4072C102.134 24.5195 101.756 24.6056 101.389 24.6655C101.022 24.7254 100.708 24.7554 100.446 24.7554C99.4575 24.7554 98.5928 24.5907 97.8516 24.2612C97.1178 23.9318 96.5076 23.4714 96.021 22.8799C95.5343 22.2809 95.1675 21.5734 94.9204 20.7573C94.6808 19.9338 94.561 19.0278 94.561 18.0396C94.561 17.1486 94.6771 16.2913 94.9092 15.4678C95.1488 14.6367 95.5007 13.903 95.9648 13.2666C96.429 12.6302 97.0055 12.1211 97.6943 11.7393C98.3831 11.3574 99.1842 11.1665 100.098 11.1665C100.951 11.1665 101.7 11.2975 102.344 11.5596C102.995 11.8141 103.542 12.1847 103.983 12.6714C104.425 13.158 104.758 13.7533 104.983 14.457C105.208 15.1608 105.32 15.9582 105.32 16.8491C105.32 17.0887 105.312 17.3208 105.297 17.5454C105.282 17.7625 105.26 17.9684 105.23 18.1631H96.6948C96.6948 19.099 96.7847 19.8888 96.9644 20.5327C97.144 21.1766 97.4023 21.6969 97.7393 22.0938C98.0762 22.4906 98.488 22.7788 98.9746 22.9585C99.4613 23.1307 100.012 23.2168 100.625 23.2168C100.985 23.2168 101.314 23.1906 101.614 23.1382C101.913 23.0783 102.194 22.9959 102.456 22.8911C102.726 22.7788 102.984 22.6403 103.231 22.4756C103.486 22.3109 103.748 22.12 104.017 21.9028L104.713 23.3965ZM103.433 16.4785C103.433 15.8796 103.358 15.348 103.208 14.8838C103.059 14.4121 102.849 14.0153 102.58 13.6934C102.31 13.3714 101.988 13.1281 101.614 12.9634C101.247 12.7912 100.843 12.7051 100.401 12.7051C99.8094 12.7051 99.2928 12.8136 98.8511 13.0308C98.4093 13.2479 98.035 13.5436 97.728 13.918C97.4285 14.2923 97.1927 14.734 97.0205 15.2432C96.8558 15.7448 96.7472 16.2876 96.6948 16.8716H103.433V16.4785Z" fill="white"/>
<path d="M109.733 13.5024C109.958 13.2254 110.257 12.9484 110.632 12.6714C111.006 12.3944 111.414 12.1436 111.856 11.9189C112.305 11.6943 112.769 11.5146 113.249 11.3799C113.735 11.2376 114.199 11.1665 114.641 11.1665C115.427 11.1665 116.09 11.2863 116.629 11.5259C117.175 11.758 117.621 12.0986 117.965 12.5479C118.31 12.9896 118.557 13.5324 118.707 14.1763C118.864 14.8201 118.942 15.5501 118.942 16.3662V24.5308H116.809V16.3662C116.809 15.7972 116.764 15.2881 116.674 14.8389C116.584 14.3822 116.438 13.9966 116.236 13.6821C116.034 13.3677 115.772 13.1281 115.45 12.9634C115.128 12.7912 114.731 12.7051 114.259 12.7051C113.9 12.7051 113.507 12.7762 113.08 12.9185C112.653 13.0607 112.242 13.2329 111.845 13.4351C111.448 13.6372 111.085 13.8506 110.755 14.0752C110.426 14.2998 110.183 14.4907 110.025 14.6479V24.5308H107.892V11.4023H109.464L109.733 13.5024Z" fill="white"/>
<path d="M125.961 24.7554C125.303 24.7554 124.775 24.6468 124.378 24.4297C123.981 24.2051 123.678 23.8794 123.468 23.4526C123.259 23.0184 123.12 22.4831 123.053 21.8467C122.985 21.2028 122.952 20.4616 122.952 19.623V12.5703H120.896V11.4023H122.985L123.266 7.34814L125.085 6.83154V11.4023H128.825V12.5703H125.085V21.2178C125.085 21.6221 125.104 21.9552 125.142 22.2173C125.187 22.4718 125.258 22.674 125.355 22.8237C125.452 22.9735 125.58 23.0783 125.737 23.1382C125.902 23.1906 126.104 23.2168 126.343 23.2168C126.613 23.2168 126.924 23.1419 127.275 22.9922C127.635 22.835 128.118 22.5879 128.724 22.251L129.477 23.6323C128.818 24.0366 128.204 24.3249 127.635 24.4971C127.066 24.6693 126.508 24.7554 125.961 24.7554Z" fill="white"/>
<path d="M141.415 23.3965C141.115 23.6136 140.774 23.8083 140.393 23.9805C140.011 24.1452 139.621 24.2874 139.225 24.4072C138.835 24.5195 138.457 24.6056 138.09 24.6655C137.723 24.7254 137.409 24.7554 137.147 24.7554C136.159 24.7554 135.294 24.5907 134.553 24.2612C133.819 23.9318 133.209 23.4714 132.722 22.8799C132.236 22.2809 131.869 21.5734 131.622 20.7573C131.382 19.9338 131.262 19.0278 131.262 18.0396C131.262 17.1486 131.378 16.2913 131.61 15.4678C131.85 14.6367 132.202 13.903 132.666 13.2666C133.13 12.6302 133.707 12.1211 134.396 11.7393C135.084 11.3574 135.885 11.1665 136.799 11.1665C137.652 11.1665 138.401 11.2975 139.045 11.5596C139.696 11.8141 140.243 12.1847 140.685 12.6714C141.126 13.158 141.459 13.7533 141.684 14.457C141.909 15.1608 142.021 15.9582 142.021 16.8491C142.021 17.0887 142.014 17.3208 141.999 17.5454C141.984 17.7625 141.961 17.9684 141.931 18.1631H133.396C133.396 19.099 133.486 19.8888 133.666 20.5327C133.845 21.1766 134.104 21.6969 134.44 22.0938C134.777 22.4906 135.189 22.7788 135.676 22.9585C136.162 23.1307 136.713 23.2168 137.327 23.2168C137.686 23.2168 138.015 23.1906 138.315 23.1382C138.614 23.0783 138.895 22.9959 139.157 22.8911C139.427 22.7788 139.685 22.6403 139.932 22.4756C140.187 22.3109 140.449 22.12 140.718 21.9028L141.415 23.3965ZM140.134 16.4785C140.134 15.8796 140.059 15.348 139.91 14.8838C139.76 14.4121 139.55 14.0153 139.281 13.6934C139.011 13.3714 138.689 13.1281 138.315 12.9634C137.948 12.7912 137.544 12.7051 137.102 12.7051C136.511 12.7051 135.994 12.8136 135.552 13.0308C135.111 13.2479 134.736 13.5436 134.429 13.918C134.13 14.2923 133.894 14.734 133.722 15.2432C133.557 15.7448 133.448 16.2876 133.396 16.8716H140.134V16.4785Z" fill="white"/>
</svg>
