<svg width="392" height="260" viewBox="0 0 392 260" fill="none" xmlns="http://www.w3.org/2000/svg">
<g opacity="0.3" filter="url(#filter0_d_78_324)">
<path d="M308.656 212.464C307.293 214.326 303.174 216.559 297.604 210.6C292.033 204.64 268.759 177.293 257.818 164.365L218.645 182.027L207.413 203.752C206.3 207.455 206.534 213.821 216.372 209.667C226.21 205.514 252.981 193.091 265.137 187.398L304.399 234.645C306.546 237.466 311.677 241.487 315.027 235.007C318.378 228.526 361.031 147.574 381.938 107.908C382.037 105.393 380.488 100.486 373.503 100.981C371.567 101.006 368.591 101.008 367.345 101.005C353.344 127.611 324.875 181.671 308.656 212.464Z" fill="url(#paint0_linear_78_324)"/>
<path d="M308.656 212.464C307.293 214.326 303.174 216.559 297.604 210.6C292.033 204.64 268.759 177.293 257.818 164.365L218.645 182.027L207.413 203.752C206.3 207.455 206.534 213.821 216.372 209.667C226.21 205.514 252.981 193.091 265.137 187.398L304.399 234.645C306.546 237.466 311.677 241.487 315.027 235.007C318.378 228.526 361.031 147.574 381.938 107.908C382.037 105.393 380.488 100.486 373.503 100.981C371.567 101.006 368.591 101.008 367.345 101.005C353.344 127.611 324.875 181.671 308.656 212.464Z" fill="#00744E"/>
<path d="M308.656 212.464C307.293 214.326 303.174 216.559 297.604 210.6C292.033 204.64 268.759 177.293 257.818 164.365L218.645 182.027L207.413 203.752C206.3 207.455 206.534 213.821 216.372 209.667C226.21 205.514 252.981 193.091 265.137 187.398L304.399 234.645C306.546 237.466 311.677 241.487 315.027 235.007C318.378 228.526 361.031 147.574 381.938 107.908C382.037 105.393 380.488 100.486 373.503 100.981C371.567 101.006 368.591 101.008 367.345 101.005C353.344 127.611 324.875 181.671 308.656 212.464Z" fill="#38B5A6"/>
<path fill-rule="evenodd" clip-rule="evenodd" d="M179.974 89.4723C177.686 86.1505 175.53 79.4748 185.209 79.3463C194.889 79.2177 312.487 77.9907 370.076 77.3933C373.444 77.8514 376.824 82.9353 375.567 85.3656C375.247 85.9862 372.147 91.8813 367.345 101.005C353.344 127.611 324.875 181.671 308.656 212.464C307.293 214.326 303.174 216.559 297.604 210.6C292.033 204.64 268.759 177.293 257.818 164.365L218.645 182.027L206.109 187.679C203.689 187.711 199.098 186.364 200.094 180.72L220.321 141.596L219.563 140.738C211.76 134.137 194.277 119.452 186.77 113.518C183.293 103.507 190.774 101.9 194.948 102.347L195.272 102.413L179.974 89.4723ZM302.414 198.971L354.667 100.225L268.219 158.193L302.414 198.971Z" fill="url(#paint1_linear_78_324)"/>
<path fill-rule="evenodd" clip-rule="evenodd" d="M179.974 89.4723C177.686 86.1505 175.53 79.4748 185.209 79.3463C194.889 79.2177 312.487 77.9907 370.076 77.3933C373.444 77.8514 376.824 82.9353 375.567 85.3656C375.247 85.9862 372.147 91.8813 367.345 101.005C353.344 127.611 324.875 181.671 308.656 212.464C307.293 214.326 303.174 216.559 297.604 210.6C292.033 204.64 268.759 177.293 257.818 164.365L218.645 182.027L206.109 187.679C203.689 187.711 199.098 186.364 200.094 180.72L220.321 141.596L219.563 140.738C211.76 134.137 194.277 119.452 186.77 113.518C183.293 103.507 190.774 101.9 194.948 102.347L195.272 102.413L179.974 89.4723ZM302.414 198.971L354.667 100.225L268.219 158.193L302.414 198.971Z" fill="#00744E"/>
<path d="M354.667 100.225L302.414 198.971L268.219 158.193L354.667 100.225Z" fill="url(#paint2_linear_78_324)"/>
<path d="M354.667 100.225L302.414 198.971L268.219 158.193L354.667 100.225Z" fill="#00744E"/>
<path d="M354.667 100.225L302.414 198.971L268.219 158.193L354.667 100.225Z" fill="white" fill-opacity="0.2"/>
<path d="M200.094 180.72C199.098 186.364 203.689 187.711 206.109 187.679L218.645 182.027M200.094 180.72C202.03 176.974 212.175 157.351 220.321 141.596M200.094 180.72L220.321 141.596M354.667 100.225C334.261 138.788 322.82 160.408 302.414 198.971M354.667 100.225C320.907 122.863 301.979 135.555 268.219 158.193M354.667 100.225L302.414 198.971M354.667 100.225L268.219 158.193M302.414 198.971L268.219 158.193M220.321 141.596C222.745 136.907 224.992 132.56 226.793 129.077L195.272 102.413M220.321 141.596L219.563 140.738C211.76 134.137 194.277 119.452 186.77 113.518C183.293 103.507 190.774 101.9 194.948 102.347L195.272 102.413M218.645 182.027L257.818 164.365C268.759 177.293 292.033 204.64 297.604 210.599C303.174 216.559 307.293 214.326 308.656 212.464C324.875 181.671 353.344 127.611 367.345 101.005M218.645 182.027L207.413 203.752C206.3 207.455 206.534 213.821 216.372 209.667C226.21 205.514 252.981 193.091 265.137 187.398L304.399 234.645C306.546 237.466 311.677 241.487 315.027 235.007C318.378 228.526 361.031 147.574 381.938 107.908C382.037 105.393 380.488 100.486 373.503 100.981C371.567 101.006 368.591 101.008 367.345 101.005M367.345 101.005C372.147 91.8813 375.247 85.9862 375.567 85.3656C376.824 82.9353 373.444 77.8514 370.076 77.3933C312.487 77.9907 194.889 79.2177 185.209 79.3463C175.53 79.4748 177.686 86.1505 179.974 89.4723L195.272 102.413M198.811 90.2278L235.298 121.924L333.806 89.4402L198.811 90.2278Z" stroke="black" stroke-opacity="0.75"/>
</g>
<path opacity="0.3" d="M207.128 211.692C147.404 216.886 90.2773 178.873 97.8509 161.922C110.42 133.792 133.555 126.218 155.194 131.628C178.5 137.454 172.029 175.786 155.194 181.398C125.982 191.135 31.1305 204.479 -19 210.61" stroke="black" stroke-dasharray="2 2"/>
<defs>
<filter id="filter0_d_78_324" x="173.526" y="76.8931" width="212.916" height="170.099" filterUnits="userSpaceOnUse" color-interpolation-filters="sRGB">
<feFlood flood-opacity="0" result="BackgroundImageFix"/>
<feColorMatrix in="SourceAlpha" type="matrix" values="0 0 0 0 0 0 0 0 0 0 0 0 0 0 0 0 0 0 127 0" result="hardAlpha"/>
<feOffset dy="4"/>
<feGaussianBlur stdDeviation="2"/>
<feComposite in2="hardAlpha" operator="out"/>
<feColorMatrix type="matrix" values="0 0 0 0 0 0 0 0 0 0 0 0 0 0 0 0 0 0 0.25 0"/>
<feBlend mode="normal" in2="BackgroundImageFix" result="effect1_dropShadow_78_324"/>
<feBlend mode="normal" in="SourceGraphic" in2="effect1_dropShadow_78_324" result="shape"/>
</filter>
<linearGradient id="paint0_linear_78_324" x1="375.795" y1="91.8994" x2="187.995" y2="190.61" gradientUnits="userSpaceOnUse">
<stop stop-color="#02B97D"/>
<stop offset="1" stop-color="#032218"/>
</linearGradient>
<linearGradient id="paint1_linear_78_324" x1="375.795" y1="91.8994" x2="187.995" y2="190.61" gradientUnits="userSpaceOnUse">
<stop stop-color="#38B5A6"/>
<stop offset="1" stop-color="#25BAD3"/>
</linearGradient>
<linearGradient id="paint2_linear_78_324" x1="375.795" y1="91.8994" x2="187.995" y2="190.61" gradientUnits="userSpaceOnUse">
<stop stop-color="#02B97D"/>
<stop offset="1" stop-color="#032218"/>
</linearGradient>
</defs>
</svg>
