<svg width="348" height="660" viewBox="0 0 348 660" fill="none" xmlns="http://www.w3.org/2000/svg">
<path fill-rule="evenodd" clip-rule="evenodd" d="M12.5584 50.7738C95.3592 26.8685 188.857 -27.6692 262.508 17.1175C335.523 61.5172 335.118 168.326 345.471 253.215C354.124 324.161 339.612 392.727 316.567 460.374C293.862 527.022 273.61 601.646 214.022 639.07C155.603 675.76 81.4888 653.518 12.5584 651.306C-53.6584 649.18 -126.151 665.435 -179.731 626.43C-233.305 587.429 -231.094 509.32 -262.604 450.992C-304.511 373.421 -423.891 312.23 -394.356 229.145C-364.506 145.173 -232.349 172.192 -150.787 136.44C-93.0682 111.138 -47.9843 68.2531 12.5584 50.7738Z" fill="#C8D6DF"/>
</svg>
