<svg width="337" height="350" viewBox="0 0 337 350" fill="none" xmlns="http://www.w3.org/2000/svg">
<path fill-rule="evenodd" clip-rule="evenodd" d="M157.666 16.2699C177.42 20.3488 199.049 18.5329 216.306 28.959C233.34 39.2497 237.17 63.977 254.057 74.5048C275.304 87.7501 308.179 78.4063 325.139 96.8069C340.56 113.538 336.771 140.811 336.118 163.535C335.493 185.276 325.484 205.175 321.409 226.54C317.011 249.596 322.041 274.876 310.934 295.562C299.722 316.443 281.504 336.128 258.82 343.1C235.381 350.304 210.964 332.646 186.467 333.818C165.47 334.822 146.587 353.376 125.936 349.457C105.276 345.536 91.1288 326.608 75.3509 312.73C61.0338 300.138 49.14 285.673 36.85 271.102C24.1062 255.994 3.20834 244.163 0.963892 224.541C-1.39122 203.951 20.5835 188.015 25.0308 167.773C28.8955 150.182 20.9799 131.716 25.2043 114.208C29.7316 95.4443 40.8436 79.3802 50.406 62.6055C62.2616 41.8078 66.8053 12.1375 88.8069 2.63295C110.466 -6.72388 134.554 11.4978 157.666 16.2699Z" fill="#C8D6DF"/>
<path d="M216.502 83.515C218.987 84.869 221.71 82.771 220.356 83.0389C219.243 83.1933 218.11 83.0173 217.097 82.533C217.587 80.6604 217.867 78.739 217.93 76.8044C217.454 72.1175 215.624 82.9496 216.502 83.515ZM223.644 85.6279C222.156 87.1158 220.311 88.202 221.844 88.0383C223.897 87.83 225.281 85.7915 224.537 84.7202C223.942 85.1071 224.328 84.9285 223.644 85.6279ZM221.918 75.4207C221.472 75.9563 221.918 77.1615 222.022 77.6972C222.054 77.8436 222.14 77.9726 222.263 78.0583C222.386 78.144 222.537 78.1801 222.686 78.1594C222.834 78.1387 222.969 78.0628 223.064 77.9468C223.159 77.8307 223.207 77.6831 223.198 77.5335C223.034 76.1944 222.707 74.4981 221.918 75.4207ZM213.615 78.1584C213.124 74.7362 212.127 76.2093 212.217 76.7747C212.336 79.0661 213.779 79.319 213.615 78.1584ZM221.025 73.0548C229.179 73.8435 220.757 70.3319 220.311 72.9358L221.025 73.0548ZM169.602 134.268C167.906 134.863 168.248 136.664 170.346 135.875C174.636 134.153 179.142 133.026 183.738 132.527C183.738 144.609 183.128 149.296 183.827 149.624C184.586 149.326 185.211 133.123 185.166 131.769C185.032 129.269 172.266 133.316 169.602 134.268ZM155.199 150.993C153.012 155.68 149.143 162.078 153.89 163.7C156.553 164.592 167.832 163.7 165.674 157.644C163.77 152.228 157.729 145.71 155.199 150.993ZM230.072 182.403C228.063 181.823 210.446 178.504 209.583 179.353C207.708 181.242 218.109 180.171 229.744 183.549C229.896 183.592 230.059 183.573 230.197 183.496C230.336 183.42 230.438 183.291 230.481 183.139C230.524 182.987 230.506 182.824 230.429 182.686C230.352 182.548 230.224 182.446 230.072 182.403ZM231.723 173.817C226.623 172.599 221.434 171.793 216.204 171.407C216.046 171.427 215.903 171.508 215.805 171.634C215.708 171.759 215.664 171.919 215.683 172.077C215.703 172.234 215.785 172.378 215.91 172.476C216.036 172.573 216.195 172.617 216.353 172.597C221.42 173.001 226.449 173.792 231.396 174.963C231.548 175.007 231.711 174.988 231.849 174.911C231.987 174.834 232.089 174.706 232.133 174.554C232.176 174.402 232.157 174.239 232.08 174.101C232.004 173.963 231.875 173.861 231.723 173.817ZM115.799 88.5591C113.909 88.7674 113.329 88.2317 113.165 88.6484C112.763 91.401 119.965 88.44 115.799 88.5591ZM109.549 77.355C109.549 73.65 108.359 74.7511 108.359 77.355C108.359 77.5128 108.422 77.6642 108.533 77.7758C108.645 77.8874 108.796 77.9501 108.954 77.9501C109.112 77.9501 109.264 77.8874 109.375 77.7758C109.487 77.6642 109.549 77.5128 109.549 77.355ZM120.099 75.9563C120.112 76.0335 120.139 76.1074 120.181 76.1739C120.222 76.2403 120.276 76.298 120.339 76.3436C120.403 76.3892 120.475 76.4218 120.551 76.4396C120.627 76.4574 120.706 76.46 120.783 76.4473C120.861 76.4346 120.934 76.4069 121.001 76.3656C121.067 76.3243 121.125 76.2704 121.171 76.2068C121.216 76.1432 121.249 76.0713 121.267 75.9952C121.284 75.919 121.287 75.8401 121.274 75.7629C120.724 72.177 119.667 73.2483 120.099 75.9563Z" fill="#2C383F"/>
<path d="M286.137 217.607C297.252 209.096 296.88 193.443 296.553 192.937C300.823 188.473 300.942 175.528 299.707 172.865C298.041 169.249 305.48 137.378 293.339 128.495C294.41 128.019 296.449 126.798 296.597 125.206C296.865 122.067 293.904 121.561 291.642 120.222C282.194 114.672 281.599 102.367 263.089 97.8135C262.405 96.5488 262.256 96.3256 261.705 95.4031C275.097 96.3256 273.371 88.9901 271.064 87.1748C269.613 86.3353 268.057 85.69 266.437 85.2554C272.076 82.8896 271.913 75.7922 264.651 76.4469C263.788 76.5213 266.586 74.2299 264.309 71.2986C263.797 70.508 263.075 69.876 262.223 69.4738C261.371 69.0716 260.424 68.9151 259.488 69.0221C259.488 64.0375 257.093 62.014 254.251 62.014C258.432 55.8837 252.852 49.0541 245.026 52.8483C246.886 48.5333 241.931 40.7663 230.578 49.7683C229.864 46.6436 219.984 43.3851 218.912 47.953C218.362 50.2891 214.449 43.7571 207.307 49.1136C205.357 50.6015 204.331 53.0566 206.622 53.8303C199.525 54.3511 196.802 60.9575 202.307 62.3859C203.498 62.6984 200.046 63.5019 200.596 67.9359C201.013 71.3284 204.018 73.2776 206.473 71.4177C207.292 70.8076 207.054 70.6737 206.979 71.3135C206.959 71.5646 206.99 71.8172 207.069 72.0562C207.149 72.2952 207.276 72.5157 207.442 72.7046C207.609 72.8934 207.812 73.0468 208.039 73.1555C208.266 73.2641 208.513 73.3259 208.765 73.3371C208.99 74.6404 209.333 75.9204 209.791 77.1611C204.405 77.1611 201.206 81.8034 202.635 84.0651C204.286 86.6541 207.188 84.9281 203.557 86.8029C196.519 90.4483 198.29 96.4893 202.605 96.4447C206.92 96.4 204.093 94.8079 204.762 99.1229C205.179 101.965 209.791 104.747 213.69 101.176C214.791 102.501 215.014 103.349 216.353 104.033C205.179 111.473 209.077 115.088 194.585 129.7C192.903 131.411 192.412 130.771 191.609 131.56C190.805 132.348 191.907 137.08 196.073 136.738C191.505 150.129 196.073 146.008 189.466 146.707C189.318 146.707 191.207 127.17 190.954 124.477C190.805 123.153 190.538 123.183 175.599 126.59C176.09 116.621 175.986 96.0132 175.123 95.8048C174.974 95.8048 164.216 95.8048 164.216 95.5221C163.978 94.5699 164.677 90.478 164.484 89.7043C164.305 89.1984 163.71 89.2133 163.234 88.9008C157.461 85.062 164.722 87.16 165.273 86.5946C166.076 85.7018 165.273 76.6998 166.761 76.6998C168.248 77.4884 167.058 85.0173 167.624 85.7316C169.454 87.3385 168.204 78.8424 170.183 79.0805C171.269 79.2888 170.034 85.4191 170.451 86.4309C171.805 88.3652 171.328 83.455 172.935 81.8629C174.81 80.9553 172.846 95.2543 172.638 95.5519C173.397 96.1471 176.73 78.2026 172.355 81.0297C171.076 81.8629 172.355 80.6726 171.418 78.6936C170.897 77.667 169.409 77.5033 168.576 78.9615C167.787 73.7537 165.183 75.0185 164.782 78.6788C164.395 85.5828 164.558 84.5412 164.439 85.7762C160.496 84.2883 157.55 87.7849 163.338 89.7936C164.246 90.1061 163.338 93.4093 163.621 95.2989C163.621 95.6114 163.785 95.5073 163.011 95.4329C159.827 95.1055 150.304 122.35 147.373 126.263C151.435 132.214 150.081 133.092 149.709 132.11C145.677 123.778 128.878 106.325 110.204 100.016C108.716 99.5395 109.074 100.016 108.716 98.0814C107.63 96.4893 123.506 104.658 122.108 80.7024C128.818 80.9255 127.836 70.4208 122.227 70.1232C125.932 65.585 124.771 61.8503 121.036 57.8775C119.385 45.9741 106.589 45.7062 95.206 50.051C92.5129 51.0777 92.0367 52.6846 90.6529 55.0653C89.3138 55.2736 88.7038 54.3065 86.1148 55.7944C78.2436 60.3326 80.163 73.1585 86.6802 78.3365C85.5047 81.7439 86.5314 85.5232 90.9654 85.2108C90.9654 99.4651 92.2599 96.1619 85.4749 97.3374C37.1172 105.714 23.6068 164.339 44.5718 183.801C45.7323 184.887 40.6436 192.163 49.72 197.326C50.0108 203.936 51.5877 210.425 54.3623 216.431C56.4306 220.895 56.505 219.928 56.2966 220.583C47.4583 248.704 30.615 298.907 30.3472 300.098C29.38 304.398 33.6057 305.648 35.5549 302.344C36.4179 300.856 60.2397 236.429 63.3048 228.037C64.6921 229.14 66.1375 230.168 67.6347 231.117C66.9949 242.559 63.3346 292.122 63.9892 294.979C64.1115 295.674 64.4623 296.309 64.9861 296.782C65.5098 297.255 66.1765 297.54 66.8804 297.591C67.5844 297.642 68.2853 297.457 68.8721 297.065C69.4588 296.672 69.8978 296.096 70.1195 295.425C70.3427 294.682 75.1041 261.932 77.9907 236.31C95.1019 243.288 114.49 244.137 117.986 244.181C120.962 303.564 120.516 299.993 126.795 298.178C127.896 297.851 127.926 298.178 128.104 291.14C131.08 293.699 144.174 303.981 148.147 304.755C149.337 304.978 150.438 302.597 148.876 299.845C139.799 283.879 138.802 291.244 147.15 280.695C148.087 282.972 151.718 292.226 153.101 292.45C156.598 292.836 155.259 300.44 157.401 300.514C161.211 300.663 180.955 299.294 182.503 297.107C183.158 296.199 181.744 294.25 179.929 293.432C160.229 286.245 168.248 299.636 166.746 257.454C166.746 256.382 175.242 246.547 179.289 234.048C181.536 227.1 179.289 224.094 180.405 220.657C182.86 212.548 178.515 214.244 187.458 213.783C189.362 217.473 190.776 215.271 191.817 219.735C192.873 224.513 195.079 228.962 198.245 232.694C198.825 225.882 200.327 219.18 202.709 212.771C204.197 212.637 202.515 211.194 199.123 233.602C199.257 233.751 198.692 274.431 200.462 275.264C201.854 275.71 203.301 275.96 204.762 276.008C204.405 276.291 204.643 286.096 204.48 286.096C204.48 286.468 192.427 290.381 191.088 296.437C190.91 297.762 190.88 298.312 192.264 298.312C196.861 298.059 212.321 294.205 213.333 294.205C213.333 295.857 213.08 295.991 214.642 295.976C215.966 295.976 217.618 295.976 218.049 295.366C218.451 294.369 217.529 278.404 217.767 276.544C217.767 276.395 217.514 276.544 221.144 276.544C221.293 297.776 221.457 295.768 222.945 296.199C229.298 297.285 228.138 298.684 230.384 261.456C236.128 266.664 233.569 266.723 240.8 262.081C241.782 263.316 246.752 269.193 246.752 269.238C244.371 273.88 240.235 282.808 243.865 286.691C244.892 287.569 246.097 285.962 256.319 272.467C260.336 267.14 258.238 272.199 260.634 270.146C264.964 266.441 263.61 268.658 251.706 254.82C258.685 249.776 257.926 251.204 252.406 245.996C222.32 217.532 233.182 237.233 271.288 224.63C272.21 234.212 279.203 293.625 280.617 294.652C281.584 295.351 284.783 294.949 285.78 294.503C287.491 293.729 285.363 272.422 282.239 233.825C294.812 268.167 307.37 301.02 307.37 301.169C309.036 304.695 313.188 303.996 312.965 300.499C312.92 300.559 290.408 231.385 286.137 217.607ZM259.801 269.357C259.101 268.628 258.938 268.077 258.313 268.286C257.137 268.881 245.993 284.653 244.386 285.665C241.083 280.784 247.912 269.714 247.57 269.03C247.362 268.747 251.766 267.542 256.736 261.843C262.42 268.42 262.33 267.274 259.786 269.357H259.801ZM256.126 261.054C253.675 264.14 250.642 266.713 247.198 268.628C242.734 263.688 242.124 262.959 241.246 261.888C253.492 254.135 249.653 253.466 256.111 261.054H256.126ZM296.121 193.845C295.868 205.287 291.568 212.592 285.884 216.803C280.543 199.588 281.971 204.811 282.73 199.171C297.609 195.169 296.136 192.193 296.106 193.845H296.121ZM298.398 170.871C295.288 167.404 290.497 166.407 286.048 165.38C289.753 163.491 294.112 161.14 295.214 158.194C296.701 153.313 294.425 141.574 293.502 138.717C289.678 126.739 287.179 130.548 292.014 129.015C301.805 135.622 299.409 155.902 298.383 170.871H298.398ZM240.205 171.109C231.545 172.106 236.232 174.174 234.253 175.335C232.854 176.138 232.378 177.82 234.64 178.311C236.306 178.683 236.128 178.311 235.354 178.802C233.688 179.798 233.256 182.209 239.491 181.584C238.776 182.953 235.19 189.842 234.208 191.062C233.851 191.508 209.464 189.991 193.365 188.086C193.499 187.937 209.152 168.222 212.946 164.845C213.303 164.681 239.729 167.821 239.877 167.821C239.583 168.919 239.694 170.086 240.19 171.109H240.205ZM235.637 180.468C234.521 178.98 242.02 179.322 240.324 177.7C240.175 177.611 225.861 176.912 240.919 175.245C241.056 175.214 241.177 175.134 241.26 175.021C241.343 174.907 241.381 174.767 241.369 174.627C241.356 174.487 241.293 174.356 241.191 174.259C241.089 174.162 240.955 174.106 240.815 174.1C238.137 174.174 236.47 174.665 235.934 174.1C235.057 172.389 240.101 172.403 240.949 172.091C242.437 171.689 239.743 169.115 241.172 167.627C241.916 166.958 244.073 171.228 244.386 171.511C248.716 174.382 265.842 148.016 276.302 147.034C278.891 146.781 271.838 146.469 268.952 149.251C263 132.408 263.149 133.003 263.193 132.348C263.387 129.759 266.303 128.658 268.818 129.075C271.332 129.492 271.868 131.128 274.576 131.143C275.961 131.15 277.334 130.879 278.612 130.344C279.89 129.81 281.048 129.024 282.016 128.033C283.93 128.831 285.97 129.29 288.042 129.387C291.404 136.589 292.58 137.288 293.86 145.487C294.529 149.757 295.898 156.989 292.892 159.771C286.569 165.633 244.192 183.399 235.622 180.468H235.637ZM243.567 168.222C246.543 168.609 246.097 168.222 245.517 169.517C244.728 171.168 245.279 170.648 243.553 168.222H243.567ZM211.741 90.0317C203.959 87.6212 212.098 78.4853 211.741 81.3868C211.741 81.5356 211.309 81.6695 211.19 81.7439C209.702 82.592 207.827 89.1836 214.434 89.4514C218.005 89.6151 214.047 90.7608 211.741 90.0317ZM212.098 81.1041C209.866 75.1524 209.777 76.0898 209.286 73.3669C212.261 73.0246 215.475 73.2627 213.541 72.1468C212.485 71.5367 211.443 72.2509 211.919 71.8492C216.383 67.6086 214.791 63.3531 215.684 65.6594C216.113 66.6791 216.793 67.5738 217.661 68.26C218.529 68.9463 219.557 69.4019 220.648 69.5845C221.739 69.7672 222.859 69.6709 223.903 69.3046C224.947 68.9383 225.882 68.3139 226.62 67.4895C227.87 70.8076 229.268 72.5336 233.211 72.9205C235.845 73.1734 235.429 72.8461 236.425 71.8492C240.249 68.0252 243.865 75.569 239.223 77.8009C237.526 78.3961 239.952 86.044 244.49 84.0948C247.882 82.6069 246.96 75.569 243.181 75.2863C241.782 75.1821 242.496 74.825 242.719 74.7953C247.63 74.0959 249.713 82.5771 245.368 84.9876C241.38 87.2046 236.604 82.5771 238.389 77.9497C235.19 78.3812 235.205 82.5623 236.902 85.3149C237.11 85.6423 230.221 85.9101 230.861 90.9393C231.292 93.1117 233.836 93.6027 236.024 93.5581C231.366 104.42 237.303 105.938 242.452 100.775C242.876 102.146 243.487 103.453 244.267 104.658C246.692 107.738 220.653 115.431 221.412 103.438C222.88 102.612 224.274 101.661 225.578 100.596C225.773 99.1115 225.738 97.6059 225.474 96.1322C224.805 92.2487 218.332 97.7391 212.038 81.0743L212.098 81.1041ZM230.533 132.244C227.557 129.953 223.094 112.782 222.231 108.661C233.583 115.356 243.82 106.563 243.24 107.827C241.499 111.488 232.289 129.64 230.474 132.214L230.533 132.244ZM231.679 142.377C226.248 142.987 224.849 135.681 229.016 133.896C237.14 130.89 239.52 141.469 231.679 142.377ZM218.645 104.777C218.645 104.777 219.984 104.093 220.891 103.587C220.743 106.964 222.335 107.574 218.645 104.747V104.777ZM192.695 134.357C190.672 131.292 193.32 133.122 199.941 125.697C205.104 119.924 210.506 107.53 217.067 104.866C217.439 105.194 219.433 106.756 221.338 108.08C222.454 115.297 226.248 128.911 229.045 132.423C229.179 132.586 222.424 134.759 227.037 141.826C235.131 148.314 241.767 134.387 232.691 132.527C230.563 132.11 231.738 134.997 241.946 112.261C244.922 105.566 243.359 107.798 245.859 105.923C248.016 107.098 254.013 107.5 254.013 101.072C259.072 105.253 265.425 103.661 263.759 99.1973C278.936 103.319 280.766 112.351 287.714 118.719C292.178 122.855 295.779 122.409 295.422 125.058C295.422 126.352 291.107 129.685 284.411 127.81C282.12 127.17 281.867 126.694 281.435 127.23C280.439 128.308 279.2 129.133 277.82 129.635C276.44 130.137 274.961 130.302 273.505 130.117C272.24 129.789 271.526 129.03 269.74 128.391C267.315 127.691 263.788 128.391 262.702 130.92C259.191 116.785 260.158 114.91 259.354 114.106C256.23 117.291 266.63 145.68 268.044 149.995C265.514 151.483 258.968 157.985 256.899 160.054C256.379 160.574 245.561 158.104 209.628 157.926C212.723 151.751 217.886 147.823 218.154 147.079C218.243 146.588 212.098 140.413 213.229 133.598C214.94 123.183 219.404 117.439 217.514 119.15C213.943 124.715 211.16 130.95 212.544 137.526C211.907 137.985 211.169 138.284 210.393 138.401C209.617 138.517 208.824 138.447 208.08 138.196C205.104 137.08 204.39 132.557 196.475 135.815C195.771 136.009 195.025 135.971 194.345 135.709C193.664 135.446 193.086 134.973 192.695 134.357ZM196.995 136.649C199.703 136.187 201.786 135.161 203.587 136.277C205.075 137.199 207.902 141.455 212.663 138.776C213.973 140.696 213.511 143.597 216.814 146.93C202.902 160.679 211.354 164.607 187.74 164.264C188.097 160.619 188.916 151.9 189.318 147.213C196.608 146.35 191.892 151.215 196.995 136.649ZM189.704 124.879C189.704 131.694 186.595 164.8 185.836 171.57C178.798 173.921 132.583 186.911 116.558 189.425C116.885 179.798 119.712 151.409 122.301 142.124C130.277 138.196 181.982 126.01 189.704 124.879ZM84.0614 174.442C88.5252 171.466 110.933 166.571 117.793 164.994C117.793 165.351 117.54 167.166 117.495 167.523C81.5915 174.859 88.7782 176.48 84.1061 174.442H84.0614ZM124.236 107.619C115.754 127.334 115.308 121.516 122.911 123.882C123.7 124.135 111.99 148.879 111.945 149.698C110.145 185.259 110.844 142.079 114.356 106.548C114.847 101.652 112.883 100.715 124.25 107.619H124.236ZM114.594 159.131C114.594 159.289 114.531 159.44 114.419 159.552C114.308 159.664 114.156 159.726 113.999 159.726C113.841 159.726 113.689 159.664 113.578 159.552C113.466 159.44 113.403 159.289 113.403 159.131C113.389 155.768 114.594 154.013 114.594 159.131ZM109.074 100.179C115.873 102.515 114.266 100.492 113.21 111.383C113.21 111.071 111.826 110.253 108.642 107.009C110.07 105.714 109.445 102.069 109.074 100.179ZM109.252 115.297C110.264 115.044 110.413 112.321 110.502 110.446C113.865 113.571 113.15 111.25 112.406 120.013C110.413 114.791 110.428 115.103 110.16 114.984C109.788 115.728 107.809 116.651 106.782 115.832C106.678 116.889 107.243 129.075 107.333 132.512C83.005 89.8234 98.9854 121.725 103.672 113.095C108.002 115.803 106.47 115.996 109.282 115.297H109.252ZM122.271 70.9564C126.735 70.8671 127.42 79.3483 122.465 79.5418C117.51 79.7352 117.391 71.0457 122.271 70.9564ZM118.001 65.1684C118.358 66.3438 119.013 68.7394 119.489 70.9267C117.123 72.9056 118.596 74.4977 116.841 74.7655C116.513 73.9323 116.513 73.4561 116.067 73.9323C116.067 75.1673 116.469 74.825 114.802 75.1375C111.99 75.6434 114.088 75.3458 112.377 73.3817C111.771 72.6202 110.967 72.0397 110.054 71.7037C109.141 71.3676 108.153 71.289 107.197 71.4763C106.242 71.6636 105.357 72.1097 104.639 72.7658C103.92 73.422 103.395 74.263 103.122 75.197C101.827 75.197 97.8248 75.0482 97.1701 74.9441C96.2773 72.3104 94.6704 62.9216 94.6555 62.8026C105.8 69.7066 115.159 67.5788 118.001 65.1684ZM112.645 78.5597C111.722 81.3273 105.815 82.3242 104.327 77.8902C101.961 70.9564 115.486 69.9 112.615 78.5597H112.645ZM88.5252 84.08C86.5909 83.083 86.0999 77.0867 89.4924 76.6403C91.6945 76.3725 92.87 78.8127 93.7478 79.2144C96.0095 80.2262 97.4081 78.8127 97.4081 76.313H102.943C102.631 84.0502 114.847 83.7526 113.552 76.4469C117.272 76.2832 115.591 73.9025 117.406 81.9522C116.216 82.5325 114.192 82.8003 114.103 83.1277C114.519 83.7824 118.567 83.4104 118.567 81.8332C118.105 79.14 117.763 77.5182 117.525 76.6254C117.792 77.458 118.229 78.2261 118.808 78.8817C119.387 79.5372 120.095 80.0659 120.888 80.4345C120.977 81.5802 120.992 82.4432 121.022 83.9609C121.483 102.143 107.63 95.2394 107.452 97.3523C107.452 98.0963 109.222 104.792 107.972 105.967C104.282 105.075 92.3789 97.5011 92.007 96.519C91.9921 79.4227 91.9623 85.8357 88.5252 84.08ZM105.517 106.399C104.425 109.094 103.127 111.7 101.634 114.196C91.7391 107.574 90.6083 103.691 87.2158 97.7392C95.206 96.3703 87.2009 97.8731 105.517 106.414V106.399ZM86.1743 98.1855C113.969 145.799 111.127 137.482 110.591 145.204C106.931 142.942 87.2158 130.533 84.7905 128.569C85.3708 126.843 91.2035 121.516 91.5308 120.534C91.8582 119.552 73.8393 101.638 73.8989 101.623C77.8683 100.159 81.9483 99.0146 86.0999 98.2004L86.1743 98.1855ZM64.7035 165.142C67.1288 165.723 66.5634 166.124 67.0841 165.276C73.5269 154.861 76.4581 135.339 76.7408 135.101C77.6038 136.157 75.4017 153.789 68.0215 164.86C66.6229 166.958 66.608 164.86 70.67 169.636C82.2908 166.794 102.393 164.696 118.09 163.044C118.09 163.431 117.971 164.056 117.927 164.532C107.734 166.571 76.1307 171.674 82.6776 178.043C84.731 179.784 114.966 191.434 116.439 189.946C131.779 187.982 182.8 174.159 186.55 172.597C186.952 172.329 186.907 172.954 187.651 165.321C196.46 165.618 199.555 166.809 205.075 162.777C206.677 161.618 208.118 160.252 209.36 158.715C224.016 158.893 241.395 159.473 256.007 161.125C241.336 176.138 249.757 168.059 245.889 167.538C239.386 166.645 212.693 164.19 212.857 164.443C212.44 163.863 193.156 186.063 192.026 188.116C190.895 190.169 233.955 193.026 234.878 192.059C235.8 191.092 240.041 182.953 240.83 181.51C248.388 180.528 258.685 179.099 284.649 166.169C307.117 171.793 300.02 182.254 289.113 186.345C285.304 187.833 248.745 198.398 199.48 202.073C109.401 208.783 55.3146 190.169 58.231 190.169C58.96 190.169 59.2874 189.217 60.5521 186.866C66.9205 192.476 83.0794 197.416 79.0769 192.238C79.9056 192.36 80.7478 192.36 81.5766 192.238C83.1538 191.88 83.2579 190.378 81.9932 189.262C81.3534 188.711 81.2641 188.89 81.8295 188.845C84.2995 188.667 84.4483 186.747 82.5288 185.661C79.9398 184.173 75.3868 184.337 74.0774 181.956C73.1251 180.23 76.5176 178.489 75.3422 176.599C74.5238 175.29 73.2144 175.826 71.9348 176.689C69.3458 178.489 70.2832 178.638 68.4233 176.927C71.8158 174.561 72.8871 175.722 72.3365 174.04C71.6999 172.182 70.6317 170.501 69.2195 169.135C67.8072 167.769 66.0913 166.758 64.2124 166.184C51.8477 163.654 47.4732 172.136 47.0864 172.136C46.2531 169.889 53.782 162.583 64.6291 165.113L64.7035 165.142ZM73.8096 183.236C75.5802 185.453 82.8711 185.869 82.7372 187.476C82.1122 189.172 73.884 185.036 74.256 187.223C74.494 187.878 74.9702 187.536 77.8865 188.548C83.615 190.556 83.3026 192.639 74.6726 189.723C73.0805 189.187 72.8573 189.723 73.1103 190.303C73.3632 190.884 78.7049 192.029 78.4073 193.279C78.0948 194.246 65.5962 190.601 60.8497 186.39C62.5851 182.875 65.0444 179.766 68.0662 177.269C69.2714 178.444 69.7773 178.98 70.0749 178.876C70.3725 178.772 74.6577 175.022 74.8214 177.388C74.8511 178.995 71.414 180.319 73.7352 183.206L73.8096 183.236ZM50.3598 197.669C63.4685 204.915 63.9297 196.493 56.743 219.407C52.9193 212.755 50.7076 205.3 50.2854 197.639L50.3598 197.669ZM34.4241 301.928C33.8884 302.969 31.4482 303.758 32.0732 300.44C34.7961 286.364 53.544 236.459 62.2186 202.445C65.4921 203.471 67.6942 204.081 70.9825 204.93C68.5274 211.759 35.0341 300.99 34.4241 301.928ZM69.5095 292.182C68.8399 296.646 65.4028 296.899 65.0457 292.093C64.6291 285.709 66.7419 269 68.1703 231.489C71.0955 233.258 74.1494 234.805 77.3062 236.117C76.7259 240.655 71.4735 279.133 69.5095 292.182ZM126.616 297.003C121.498 298.967 122.539 300.871 118.805 244.181C119.504 244.181 123.759 244.256 127.539 243.928C127.107 271.142 127.196 293.253 126.616 297.003ZM63.6024 227.263C70.1344 209.408 63.1411 219.987 81.5914 228.93C97.9587 236.861 112.719 237.857 130.946 237.605C131.809 240.045 132.434 241.875 132.568 242.068C115.1 245.282 80.2077 240.58 63.6024 227.263ZM128.179 288.045C129.056 236.578 125.976 244.434 132.97 243.229C135.752 250.922 137.121 254.567 138.088 257.171C128.476 283.195 128.803 281.9 129.756 282.466C131.11 283.358 130.797 282.109 128.179 288.045ZM146.599 279.564C144.735 282.013 142.748 284.367 140.647 286.617C137.189 285.22 133.842 283.564 130.634 281.662C130.5 281.573 137.002 262.215 138.371 257.855C145.766 277.779 146.763 279.356 146.599 279.564ZM165.079 288.641C164.335 288.864 156.33 290.783 153.339 291.274C116.29 214.928 150.021 242.693 105.026 235.388C94.6108 233.676 80.3416 229.317 72.2175 221.624C65.9682 215.672 67.1288 217.904 71.5628 205.108C73.9435 205.584 106.559 214.467 159.172 214.467C166.775 233.974 166.165 282.242 165.079 288.641ZM166.567 255.192C165.838 244.256 165.183 227.71 160.333 214.452C177.369 214.542 175.346 213.857 176.045 214.735C185.107 226.088 174.795 243.556 166.582 255.192H166.567ZM179.289 219.973C177.191 212.816 173.575 214.542 180.241 214.185C180.075 216.135 179.761 218.07 179.304 219.973H179.289ZM191.029 215.985C187.309 213.292 189.288 213.798 190.88 213.708C190.999 216.089 191.207 216.104 191.044 215.985H191.029ZM216.859 294.845C213.779 294.845 214.374 295.559 214.3 293.819C214.196 291.661 197.382 297.285 191.981 297.285C192.487 292.822 200.909 288.834 205.015 287.034C205.015 287.034 205.953 287.034 209.122 287.376C219.389 288.462 216.874 283.909 216.874 294.845H216.859ZM204.956 276.172C211.949 276.767 217.142 276.484 217.127 276.633C216.874 278.493 217.127 286.23 216.829 286.29C212.996 287.015 209.058 286.98 205.238 286.185C205.015 275.621 205.134 276.797 204.956 276.172ZM49.0058 195.496C46.6251 194.008 44.6759 192.684 45.8067 185.229C65.4772 201.894 181.208 217.562 286.063 188.369C297.966 185.051 299.722 178.95 299.707 179.441C299.32 192.996 295.362 195.08 283.429 198.279C183.946 224.898 72.7383 211 49.0058 195.496ZM222.662 295.009C222.275 292.524 222.156 279.505 222.126 276.588C225.251 276.499 224.314 279.088 225.965 257.84C226.069 257.93 227.453 233.051 228.361 226.296C228.48 225.359 228.867 225.136 228.837 226.296C228.837 227.04 228.837 228.022 228.763 229.272C227.528 263.837 225.787 257.543 229.209 260.519C226.62 296.854 227.81 296.973 222.662 295.009ZM233.732 228.573C233.375 228.573 233.985 229.034 229.06 224.541C232.259 224.109 260.307 223.945 274.546 212.86C275.751 216.238 275.469 215.449 277.626 221.386C264.934 226.728 247.109 229.198 233.732 228.573ZM281.242 293.744C281.019 293.476 273.192 237.337 271.734 224.555C279.68 222.026 277.061 219.854 281.167 231.102C285.051 290.709 287.625 296.943 281.242 293.744ZM308.724 301.303C308.352 300.648 273.728 209.051 271.377 202.058C274.353 201.344 278.147 200.391 280.409 199.796C288.711 234.019 309.26 287.986 311.134 300.47C311.596 303.505 309.825 303.341 308.724 301.303Z" fill="#2C383F"/>
</svg>
