<svg width="338" height="350" viewBox="0 0 338 350" fill="none" xmlns="http://www.w3.org/2000/svg">
<path fill-rule="evenodd" clip-rule="evenodd" d="M170.714 36.9234C189.653 35.5655 204.108 54.0588 222.783 57.4912C254.01 63.2309 297.104 38.3375 316.211 63.6665C334.124 87.4128 291.661 117.85 290.731 147.568C289.847 175.848 318.856 201.296 311.056 228.496C303.262 255.679 275.185 271.756 250.937 286.35C226.384 301.128 199.273 315.435 170.714 312.965C142.734 310.544 122.647 286.816 98.132 273.131C73.2245 259.226 40.2562 255.676 24.9764 231.607C9.65077 207.466 17.6822 176.143 18.4203 147.568C19.1409 119.672 7.38846 83.3645 29.2544 65.995C54.0815 46.2732 91.7183 71.046 122.789 64.6605C141.187 60.8796 151.979 38.2667 170.714 36.9234Z" fill="#C8D6DF"/>
<path d="M114.889 267.309C117.96 266.221 121.107 265.359 124.304 264.73L124.691 266.148C124.735 266.316 124.837 266.462 124.979 266.56C125.121 266.658 125.294 266.702 125.465 266.683L138.124 265.209C141.607 257.267 148 245.235 148.093 245.051C148 242.047 148.093 239.523 148.093 236.648C140.851 239.338 127.455 244.442 120.453 247.704C120.295 247.806 120.173 247.955 120.103 248.13C120.034 248.305 120.021 248.498 120.066 248.68C120.066 248.68 120.195 249.141 120.361 249.804C116.934 249.804 106.671 249.307 104.201 251.647C103.818 252.182 103.629 252.832 103.667 253.49C103.52 256.032 104.791 275.785 106.818 281.59C107.868 284.63 110.079 284.298 111.59 281.387C113.339 277.002 114.462 272.394 114.925 267.696C114.925 267.457 114.87 267.475 114.889 267.309ZM112.77 250.818C115.018 250.634 115.718 250.67 120.545 250.523C121.411 253.803 123.199 260.547 124.12 263.993C120.869 264.496 117.66 265.241 114.52 266.222C113.542 261.14 112.956 255.99 112.77 250.818Z" fill="#2C383F"/>
<path d="M284.483 89.5525C284.944 88.9076 284.354 88.0785 283.857 87.4335C285.266 85.984 286.829 84.6926 288.518 83.5825C291.369 82.1617 293.975 80.2957 296.239 78.0546C297.179 77.078 298.948 75.0696 298.284 73.8903C297.621 72.7111 296.442 72.6373 294.839 73.3191C295.533 72.5899 296.1 71.749 296.515 70.8316C297.031 69.3943 295.815 68.2335 293.18 69.3022C294.138 67.7728 294.359 66.1698 292.738 65.3959C291.43 64.7694 289.513 66.2619 288.408 67.2385C286.237 69.1353 284.199 71.1793 282.309 73.356C281.148 70.9237 279.305 68.1229 277.002 69.0074C274.699 69.8918 276.486 73.8535 277.665 76.0093L273.483 78.9022C272.85 78.561 272.136 78.4015 271.419 78.4416C266.665 79.2523 244.83 95.8727 242.619 95.8727C240.924 95.8727 216.712 84.2642 195.78 80.9107C195.739 80.7851 195.664 80.6736 195.563 80.5888C195.462 80.504 195.339 80.4496 195.208 80.4316C191.557 79.8086 187.856 79.531 184.153 79.6024C184.04 79.61 183.931 79.6419 183.833 79.696C183.734 79.7501 183.648 79.8251 183.581 79.9157H182.034C181.665 78.4232 180.302 74.9775 179.823 73.6508C181.076 72.5636 182.808 72.0109 183.71 70.2604C185.369 67.0174 185.295 61.379 184.834 57.7674C186.917 56.1828 186.972 53.64 186.493 51.0419C186.309 49.9916 185.737 47.6146 184.853 47.025C184.355 46.6933 183.305 47.025 182.402 47.3567C181.499 45.2561 181.499 46.2142 181.868 45.3666C182.039 44.976 182.139 44.5579 182.163 44.1321C183.139 44.4269 185.166 42.4737 184.466 39.8941C184.099 38.9706 183.649 38.0825 183.121 37.2407C183.379 36.6142 183.932 35.8588 182.2 33.5555C181.454 32.7508 180.485 32.1864 179.417 31.934H178.57C177.958 31.0463 177.061 30.3958 176.027 30.0914C174.466 29.6934 172.812 29.9251 171.42 30.7363C171.052 31.0127 170.757 31.3812 170.388 31.6392C169.555 31.1333 168.599 30.8657 167.624 30.8657C166.65 30.8657 165.694 31.1333 164.861 31.6392C164.373 31.8306 163.929 32.1185 163.555 32.4859C163.181 32.8532 162.886 33.2922 162.686 33.7766C161.783 33.4651 160.826 33.3452 159.874 33.4245C158.922 33.5038 157.997 33.7806 157.158 34.2373C153.975 35.9633 151.594 38.8668 150.525 42.3263C150.495 42.848 150.495 43.3709 150.525 43.8926H150.322C147.558 43.4872 144.039 50.0469 146.858 55.1509C147.19 55.759 147.614 56.3302 148.019 56.9935C149.198 58.8362 148.738 59.3889 151.373 61.6369C152.146 62.3003 152.275 62.245 152.755 62.6504C153.234 63.0557 153.049 62.8531 153.326 63.8849C153.476 64.4928 153.746 65.0647 154.119 65.5676C154.493 66.0705 154.962 66.4944 155.5 66.8147C155.696 68.617 156.464 70.309 157.693 71.6423C158.082 72.0776 158.535 72.4505 159.038 72.7479C159.173 72.8243 159.325 72.8684 159.48 72.8769C160.033 76.3042 160.715 80.7633 161.009 82.6612L159.37 83.5456C157.224 84.409 155.137 85.4123 153.123 86.5491C152.965 86.6584 152.853 86.8226 152.81 87.0097C150.857 88.0416 149.014 89.0182 147.964 89.6447C133.333 98.3234 91.7824 155.537 91.3586 158.153C91.3118 158.303 91.3118 158.464 91.3586 158.614C91.9542 159.564 92.6798 160.426 93.5145 161.175C93.2573 161.644 92.9482 162.083 92.5932 162.483C88.9079 164.897 83.3801 168.49 80.4135 171.696C80.2054 171.882 80.0493 172.118 79.9606 172.383C79.8719 172.647 79.8536 172.93 79.9075 173.203C79.9615 173.477 80.0858 173.731 80.2682 173.942C80.4507 174.153 80.6849 174.312 80.9478 174.405C81.5006 174.589 81.5927 174.534 85.1858 172.562C84.1983 173.428 83.3907 174.48 82.8089 175.658C82.5693 176.671 83.4906 177.261 84.6515 177.077C85.3046 176.905 85.9266 176.632 86.4941 176.266C86.1618 176.779 85.9849 177.377 85.9849 177.989C85.9849 178.6 86.1618 179.199 86.4941 179.712C88.3367 182.033 93.1644 174.718 95.7072 172.912C96.739 174.221 98.1394 177.279 100.369 176.469C102.304 175.75 100.185 171.494 100.369 170.259C101.119 169.539 101.919 168.874 102.764 168.269C104.186 169.323 105.811 170.07 107.537 170.462C110.577 170.462 142.307 138.437 144.721 135.876C143.855 144.02 139.488 178.975 140.409 185.774C140.833 188.851 148.222 189.293 151.336 189.459C150.396 211.57 149.769 245.069 149.604 245.419C144.721 255.941 143.394 258.815 141.754 262.003C138.769 267.715 126.202 288.794 124.784 293.585C124.581 294.341 124.563 294.636 125.355 296.036C122.98 298.532 120.777 301.185 118.758 303.978C117.745 305.82 122.093 322.993 125.171 329.074C125.871 330.438 127.013 332.538 128.543 332.483C133.149 332.317 133.131 315.77 133.002 311.145C133.001 311.003 132.949 310.865 132.854 310.758C133.689 309.512 134.6 308.318 135.581 307.184C136.167 307.587 136.783 307.944 137.424 308.253C138.05 308.529 138.751 308.05 139.267 307.626C145.402 302.798 178.496 261.561 185.59 242.103C188.814 233.221 193.108 220.949 194.324 212.252C195.067 206.753 195.135 201.184 194.527 195.669C194.527 195.591 194.558 195.516 194.613 195.46C194.668 195.405 194.743 195.374 194.821 195.374C194.9 195.374 194.975 195.405 195.03 195.46C195.085 195.516 195.116 195.591 195.116 195.669C196.039 201.216 196.219 206.861 195.651 212.455C194.287 224.524 184.761 249.676 179.675 258.926C184.061 258.115 192.979 256.346 197.291 255.056C211.663 250.689 224.93 237.662 226.091 223.032C226.466 216.139 226.466 209.231 226.091 202.339C225.966 192.824 224.729 183.356 222.405 174.129C226.312 172.01 229.886 169.522 231.047 167.237C233.535 162.354 226.957 134.254 225.519 126.368C233.387 127.234 246.783 128.8 253.03 123.917C260.179 118.168 275.62 101.99 284.483 89.5525ZM132.007 310.132C128.69 308.124 124.047 303.351 123.346 299.611C124.102 298.652 124.894 297.768 125.631 296.773C128.128 300.584 131.242 303.952 134.844 306.742C133.832 307.815 132.885 308.947 132.007 310.132ZM278.495 76.5253C278.59 76.4644 278.658 76.3694 278.686 76.2598C278.713 76.1501 278.697 76.0341 278.642 75.9356C277.997 74.7379 276.062 70.5183 277.407 70.0393C278.181 69.7444 278.863 70.2235 279.434 70.8684C280.307 71.975 280.986 73.2209 281.443 74.5537C281.477 74.662 281.54 74.7591 281.625 74.8344C281.71 74.9097 281.814 74.9605 281.925 74.9813C282.037 75.0022 282.152 74.9922 282.259 74.9526C282.365 74.913 282.459 74.8451 282.53 74.7563C284.372 72.711 288.684 68.0492 291.116 66.7963C292.959 65.8381 293.401 67.607 288.887 71.7345C287.85 72.5251 286.854 73.3676 285.902 74.2589C285.849 74.3312 285.821 74.4183 285.821 74.5076C285.821 74.597 285.849 74.684 285.902 74.7563C285.902 75.2354 286.289 75.7698 286.952 75.2723C288.554 73.8663 290.247 72.5675 292.019 71.3844C292.924 70.7416 293.976 70.3361 295.078 70.2051C294.525 71.9003 289.384 76.5068 288.942 77.0228C288.802 77.1485 288.717 77.3242 288.705 77.5122C288.693 77.7001 288.755 77.8853 288.878 78.0278C289.001 78.1702 289.176 78.2587 289.363 78.274C289.551 78.2894 289.737 78.2305 289.882 78.1099C291.927 76.7832 295.502 73.6876 296.736 74.1483C297.971 74.6089 294.304 78.0362 293.383 78.847C288.095 83.4351 289.458 80.4869 283.341 86.7149C280.678 83.7979 277.62 81.2675 274.257 79.1971L278.495 76.5253ZM198.433 164.658C198.12 162.115 197.733 159.369 197.254 156.513L198.046 155.463C201.731 150.727 202.837 143.191 202.487 137.276C204.458 145.918 206.025 154.413 207.222 162.852L198.433 164.658ZM171.033 101.566C166.187 97.8812 158.393 91.5241 153.86 87.1756L161.231 83.4903C167.998 89.812 173.792 97.102 178.422 105.123C185.502 118.128 190.754 132.048 194.029 146.489L167.753 109.324L171.181 102.211C171.226 102.102 171.236 101.981 171.21 101.865C171.183 101.75 171.122 101.645 171.033 101.566ZM183.489 80.6711C183.6 80.8738 184.871 83.5825 186.806 88.318C186.806 88.5207 186.456 93.1272 186.29 94.7487C183.938 93.8165 181.72 92.5774 179.694 91.0635C180.099 89.4604 181.923 82.1821 182.052 80.5422L183.489 80.6711ZM176.948 100.461C177.077 100.129 177.206 99.6869 177.353 99.171L178.588 99.8159C179.288 100.277 179.012 98.8762 179.638 102.93C179.638 103.612 179.823 104.367 179.859 105.196C179.012 103.667 177.961 102.027 176.966 100.461H176.948ZM175.916 98.913C172.435 93.9755 168.472 89.3956 164.087 85.2408L177.962 91.2662C177.427 92.5376 176.653 96.4255 175.935 98.913H175.916ZM190.086 109.711C188.243 104.68 186.824 99.0604 186.124 97.5863C186.166 97.1266 186.166 96.6641 186.124 96.2044C186.391 96.3036 186.67 96.3656 186.953 96.3886C187.131 96.3907 187.304 96.3284 187.439 96.2132C187.575 96.0981 187.664 95.9379 187.691 95.7622C187.838 95.1541 188.077 92.0769 188.114 91.3952C193.474 104.928 197.949 118.796 201.51 132.909C191.099 110.761 192.702 117.173 190.104 109.711H190.086ZM205.324 144.886C201.123 124.746 193.734 99.6317 185.332 81.0212C188.418 81.023 191.498 81.2694 194.545 81.7583C196.111 95.7622 194.803 95.2831 195.853 95.8359C196.904 96.3886 203.224 98.9314 204.163 99.3184C204.071 100.737 205.398 141.312 205.343 144.886H205.324ZM184.116 48.2043C185.076 50.3005 185.415 52.6283 185.092 54.9114C184.942 55.4925 184.634 56.0205 184.202 56.4368C183.769 56.8531 183.23 57.1412 182.644 57.2692C182.058 57.3971 181.447 57.3599 180.881 57.1616C180.314 56.9633 179.814 56.6117 179.436 56.1459C178.556 54.2939 177.895 52.3461 177.464 50.3417C177.962 49.6968 183.268 48.407 184.116 48.2043ZM158.761 66.6304C158.088 66.324 157.399 66.0533 156.698 65.8197C156.227 65.6261 155.806 65.3272 155.469 64.946C155.131 64.5648 154.885 64.1113 154.75 63.6203C154.615 63.1294 154.594 62.614 154.689 62.1137C154.784 61.6134 154.992 61.1415 155.297 60.7341C156.458 59.7575 157.508 59.8127 158.467 61.2684C159.075 62.3924 159.056 62.4845 159.333 62.5951C159.412 62.63 159.498 62.6476 159.584 62.6467C159.671 62.6458 159.757 62.6263 159.835 62.5897C159.914 62.553 159.983 62.5 160.04 62.4342C160.096 62.3684 160.138 62.2914 160.162 62.2081C160.435 61.0548 160.479 59.859 160.291 58.6888C160.07 57.4173 160.033 51.7789 160.07 51.5947C160.608 51.8784 161.213 52.0121 161.82 51.9816C165.155 51.8527 165.819 50.139 167.145 48.7386C168.675 48.886 168.988 49.6231 170.72 48.7386C171.531 48.2773 172.275 47.7069 172.931 47.0434C173.461 47.2602 173.972 47.519 174.461 47.8173C175.565 48.3484 176.81 48.5115 178.014 48.2826C179.218 48.0538 180.317 47.4451 181.149 46.5459C181.352 46.9329 181.536 47.3198 181.702 47.7252C180.009 48.2506 178.415 49.0539 176.985 50.1022C176.672 50.4891 177.132 52.5897 177.243 53.0872C175.699 53.2814 174.206 53.7626 172.839 54.506C172.563 53.5479 171.955 51.7605 170.996 51.263C170.708 51.1748 170.4 51.1748 170.112 51.263C168.454 51.521 162.502 53.3083 161.783 54.2849C161.157 54.9667 162.944 60.2365 163.497 61.1026C165.616 64.3824 171.826 63.4243 172.986 59.5916C173.274 58.3054 173.274 56.9715 172.986 55.6853C173.521 55.6853 175.124 55.1141 175.308 55.0588C176.58 57.9149 176.948 58.0807 178.422 61.1579C178.219 61.3237 177.888 61.6001 177.611 61.7843C176.303 62.6504 176.027 62.503 176.1 62.8715C176.122 62.9446 176.169 63.0074 176.234 63.0481C176.298 63.0888 176.375 63.1047 176.451 63.0926C177.224 62.9821 177.98 62.7715 178.699 62.4661C179.129 62.3056 179.484 61.9902 179.694 61.5817C180.209 60.4208 177.353 56.0538 176.229 54.7456C176.451 54.7456 176.966 54.377 177.353 54.1743C177.869 56.2381 178.219 57.8596 180.209 58.6703C180.785 58.8875 181.398 58.9863 182.012 58.961C182.626 58.9357 183.229 58.7867 183.784 58.5229C184.079 61.7659 184.024 67.0358 182.476 69.9103C181.684 71.4028 179.73 71.974 178.477 73.2086C178.109 73.5587 178.348 74.0562 178.477 74.5905C180.523 80.2842 180.56 80.2658 180.449 81.0028C179.907 84.062 179.149 87.079 178.183 90.0316C177.722 89.8289 172.544 87.0834 162.41 83.1403C162.097 81.0581 160.42 69.9471 159.885 67.9018C159.922 67.1832 159.83 67.0174 158.761 66.5383V66.6304ZM171.66 59.1126C171.07 61.121 168.288 61.987 166.298 61.4342C164.308 60.8815 164.179 59.868 163.239 57.4726C162.799 56.5575 162.494 55.5829 162.336 54.5797C162.944 53.9164 169.596 52.5528 170.425 52.4239C171.588 54.4134 172.025 56.745 171.66 59.0204V59.1126ZM99.5582 169.743C98.858 170.425 99.7978 172.654 99.9452 174.589C99.9452 174.755 99.9452 175.474 99.8346 175.529C98.8212 175.861 97.8815 174.331 97.3102 173.41C96.739 172.489 96.1678 171.236 95.2649 171.567C93.4223 172.433 89.1475 178.109 87.4707 178.698C86.6231 177.077 91.4692 172.452 91.635 172.194C91.7061 172.075 91.7433 171.94 91.7427 171.802C91.7421 171.663 91.7035 171.528 91.6313 171.41C91.5592 171.292 91.456 171.197 91.3332 171.133C91.2104 171.07 91.0726 171.042 90.9348 171.051C90.6031 171.051 90.382 171.346 89.8661 171.807C88.2968 173.338 86.5006 174.619 84.5409 175.603C86.3177 173.564 88.2193 171.638 90.2346 169.835C90.3341 169.733 90.4042 169.606 90.4373 169.467C90.4373 169.467 90.0503 168.49 89.2949 168.877C88.2262 169.467 83.03 172.47 81.3901 173.244C81.1689 173.097 81.2979 172.876 81.3901 172.654C83.9881 169.467 89.7002 165.597 93.2012 163.147C93.6121 162.723 93.9541 162.238 94.2147 161.709C96.6393 163.965 99.2259 166.041 101.954 167.919C101.113 168.47 100.313 169.08 99.5582 169.743ZM142.436 186.492C142.031 186.235 141.736 185.995 141.68 185.663C140.667 178.145 146.305 135.544 146.213 133.867C146.213 133.769 146.194 133.672 146.155 133.581C146.117 133.49 146.061 133.408 145.991 133.34C145.92 133.271 145.837 133.217 145.745 133.181C145.654 133.145 145.556 133.128 145.458 133.13C144.518 133.13 146.176 133.13 122.701 155.61C121.154 157.066 109.324 168.38 107.352 169.135C104.644 168.932 94.4542 160.806 92.7958 158.245C96.002 151.759 134.881 98.3971 148.332 90.2343C149.364 89.6078 151.133 88.6312 153.068 87.5994C153.737 88.2304 154.458 88.8036 155.224 89.313C159.499 93.3668 165.45 98.4155 169.965 102.211L166.445 109.195C166.392 109.287 166.364 109.392 166.364 109.499C166.364 109.606 166.392 109.71 166.445 109.803C195.024 150.801 194.6 150.34 194.785 150.34C196.617 159.814 197.756 169.409 198.193 179.048C198.193 181.646 198.193 181.425 198.304 181.241C198.415 181.057 198.304 181.37 198.304 181.37C193.845 186.235 149.714 190.767 142.436 186.492ZM244.296 125.447C235.949 126.608 226.514 124.875 224.69 124.802C223.677 119.89 221.656 115.241 218.757 111.148C218.713 111.088 218.648 111.048 218.575 111.034C218.502 111.02 218.426 111.035 218.363 111.074C218.3 111.114 218.255 111.176 218.235 111.247C218.216 111.319 218.225 111.396 218.259 111.461C219.328 113.636 222.903 123.014 223.787 125.299C223.511 126.184 232.116 161.765 229.684 166.555C227.509 170.886 214.851 176.34 210.281 177.906C209.377 167.648 207.901 157.448 205.859 147.355C206.485 142.049 205.674 110.503 205.435 98.8393C205.428 98.7038 205.383 98.573 205.304 98.4622C205.226 98.3513 205.118 98.2648 204.993 98.2128L196.719 94.7303C196.682 90.3515 196.405 85.9779 195.89 81.6293C216.546 85.204 240.61 97.0151 242.619 97.0336C245.53 97.0336 267.162 80.45 271.64 79.7867C273.63 79.4734 282.18 86.936 283.175 88.9998C274.441 101.198 259.092 117.229 251.979 122.775C249.688 124.307 247.043 125.227 244.296 125.447Z" fill="#2C383F"/>
<path d="M169.762 55.4278C169.739 55.3068 169.692 55.1915 169.625 55.0885C169.557 54.9855 169.47 54.8969 169.368 54.8276C169.266 54.7583 169.152 54.7097 169.031 54.6847C168.911 54.6596 168.787 54.6585 168.666 54.6815C168.545 54.7045 168.429 54.7511 168.326 54.8186C168.223 54.8862 168.135 54.9733 168.065 55.0751C167.996 55.1769 167.948 55.2914 167.922 55.412C167.897 55.5326 167.896 55.6569 167.919 55.7779C168.288 57.6205 168.362 58.0443 169.172 58.0443C169.326 58.0448 169.476 58.0071 169.611 57.9346C169.746 57.8621 169.861 57.757 169.945 57.6289C170.03 57.5009 170.08 57.3538 170.093 57.2011C170.106 57.0484 170.081 56.8949 170.02 56.7545C169.965 56.4596 169.799 55.5936 169.762 55.4278ZM175.4 67.6259C176.598 67.976 177.74 67.4048 177.704 67.11C177.667 66.8151 177.704 66.9625 176.082 66.3545C174.995 65.9491 173.797 64.5119 173.373 64.733C172.95 64.9541 173.595 66.1334 173.742 66.3545C174.136 66.9526 174.72 67.4005 175.4 67.6259ZM209.102 50.121C206.688 60.237 204.919 68.8236 204.624 70.5372C204.428 71.2828 204.391 72.0611 204.514 72.8221C205.49 74.9042 218.112 79.0133 219.715 78.2025C221.318 77.3918 225.483 68.0128 230.329 58.3391C233.297 58.434 236.268 58.2178 239.192 57.6942C242.27 57.1294 245.266 56.1824 248.11 54.875C254.338 52.0005 261.156 39.6918 262.077 33.5007C262.768 26.7789 261.344 20.009 258.005 14.1348C242.545 -12.6753 197.198 1.75241 200.884 31.5291C201.936 38.3425 204.771 44.7566 209.102 50.121ZM220.342 72.0666C220.342 72.3614 220.01 72.3246 218.499 72.0666C215.409 71.6782 212.416 70.7225 209.673 69.2474C208.383 68.5472 208.033 68.3998 208.162 68.0865C208.291 67.7733 208.567 67.8839 210.557 68.4366C210.742 68.4366 216.454 70.2793 218.094 70.8505C220.213 71.8086 220.342 71.8086 220.342 72.0666ZM220.01 42.0872C221.978 42.1893 223.938 41.7832 225.704 40.908C227.344 41.7028 229.119 42.184 230.937 42.3268C227.841 48.0942 221.558 59.8501 219.531 66.1149L211.718 63.9591C213.561 59.4263 217.633 48.8128 219.973 42.0872H220.01ZM219.365 40.5579C217.99 40.3501 216.72 39.6968 215.752 38.6983C214.783 37.6998 214.169 36.4112 214.003 35.03C213.487 31.3448 215.846 27.2173 219.402 28.1939C221.632 28.802 221.908 30.5709 221.521 32.8005C221.189 34.422 219.992 38.4941 219.328 40.4842L219.365 40.5579ZM224.377 36.1356C224.574 34.9299 225.026 33.7802 225.704 32.7636C226.026 32.2095 226.497 31.7568 227.064 31.4572C227.631 31.1575 228.27 31.0228 228.91 31.0684C230.273 31.4738 230.863 34.0534 229.739 35.6749C228.659 37.1085 227.314 38.3219 225.777 39.2496C225.249 38.9393 224.828 38.4746 224.571 37.9179C224.314 37.3613 224.233 36.7393 224.34 36.1356H224.377ZM207.443 12.716C215.698 2.78427 231.232 -1.15892 242.453 2.93168C248.549 5.02423 253.677 9.26118 256.881 14.8534C260.058 20.4431 261.416 26.8828 260.769 33.2795C259.921 39.0101 253.398 50.9134 247.668 53.5483C242.428 55.9382 236.712 57.0979 230.955 56.9387C230.329 56.9387 229.665 56.9387 229.426 57.3809C228.339 59.5921 226.349 63.867 224.395 67.8839C223.047 67.2326 221.648 66.6904 220.213 66.2624C222.35 60.1449 229.094 48.131 232.3 42.3084C235.078 42.5464 237.871 42.064 240.408 40.908C241.093 40.5471 241.662 39.9983 242.046 39.3258C242.431 38.6533 242.615 37.8851 242.579 37.1113C242.542 36.3375 242.285 35.5903 241.839 34.9573C241.392 34.3243 240.774 33.8317 240.058 33.5375C237.202 32.1371 234.64 35.4907 233.148 38.3099C232.742 39.0469 232.282 39.913 231.766 40.8895C230.276 40.7916 228.806 40.4878 227.399 39.9867C228.8 39.0019 230.043 37.8088 231.084 36.4488C231.668 35.5678 231.963 34.5275 231.93 33.4713C231.897 32.4152 231.537 31.3953 230.9 30.5525C230.399 29.9711 229.704 29.5924 228.944 29.4872C228.184 29.382 227.412 29.5577 226.772 29.9813C225.482 30.7742 224.448 31.9227 223.794 33.289C223.14 34.6552 222.895 36.1811 223.087 37.6834C223.288 38.5314 223.744 39.2971 224.395 39.8761C223.187 40.3767 221.889 40.6274 220.581 40.6132C221.318 38.4389 222.516 34.5141 222.829 32.911C223.026 31.9971 223.069 31.0569 222.958 30.1287C222.816 29.3318 222.446 28.5932 221.893 28.0015C221.341 27.4098 220.629 26.9904 219.844 26.7935C215.367 25.5221 212.068 30.4788 212.713 35.1037C212.895 36.7611 213.607 38.3158 214.742 39.5371C215.877 40.7585 217.375 41.5817 219.015 41.8846C216.656 48.518 212.971 59.2236 211.129 63.7933L207.075 62.743C209.673 49.6973 209.986 50.0105 209.618 49.8447C205.431 44.5066 202.752 38.1436 201.86 31.4185C201.426 28.0838 201.699 24.6951 202.661 21.4728C203.622 18.2505 205.252 15.2668 207.443 12.716ZM233.019 41.0001C234.309 38.66 236.888 33.5375 239.394 34.7905C239.896 34.9924 240.332 35.3274 240.657 35.7593C240.982 36.1912 241.182 36.7036 241.237 37.2412C241.2 40.4842 236.151 41.0554 232.945 41.0001H233.019ZM303.554 49.126C305.775 47.8201 308.397 47.3743 310.925 47.8731C313.701 47.9227 316.353 49.0327 318.336 50.9754C320.32 52.9181 321.486 55.5462 321.593 58.3207C319.924 57.352 317.972 56.9877 316.066 57.2888C311.441 57.6942 305.397 60.2001 306.208 64.6593C306.871 68.3445 311.735 67.847 315.421 66.852C319.106 65.857 322.036 64.0512 322.791 60.495C327.269 63.7564 328.319 69.4685 328.503 75.0516C328.503 75.1298 328.534 75.2048 328.59 75.2601C328.645 75.3154 328.72 75.3464 328.798 75.3464C328.876 75.3464 328.951 75.3154 329.006 75.2601C329.062 75.2048 329.093 75.1298 329.093 75.0516C329.222 68.8052 328.098 62.6877 322.994 59.1314C323.046 57.5316 322.774 55.9378 322.192 54.4465C321.611 52.9551 320.733 51.5973 319.611 50.4552C318.49 49.3131 317.148 48.4104 315.668 47.8019C314.187 47.1933 312.599 46.8916 310.998 46.9149C308.44 46.5414 305.832 47.076 303.628 48.4258C302.946 48.7575 303.259 49.255 303.554 49.126ZM320.359 62.3376C318.277 65.0647 312.38 66.4835 309.653 66.0228C308.64 65.857 307.811 65.4332 307.59 64.3829C306.926 60.6977 313.283 58.6892 317.079 58.5602C318.625 58.4417 320.166 58.8368 321.464 59.6842C321.325 60.6476 320.945 61.5602 320.359 62.3376ZM295.115 27.5859C297.087 25.1536 295.76 20.9156 290.25 20.8972C288.113 20.8972 287.081 23.0715 287.229 25.1536C287.56 30.1103 293.143 29.9628 295.115 27.5859ZM288.518 25.0615C288.518 23.8454 289.09 22.2607 290.361 22.2791C293.328 22.2791 294.691 23.6611 294.691 25.1905C294.617 28.673 288.279 30.4788 288.518 25.0615ZM287.763 233.959C271.566 227.491 264.048 258.797 250.819 285.699C250.735 286.83 250.772 287.967 250.929 289.09C250.929 291.909 251.242 310.575 252.882 312.694C253.325 313.541 255.186 312.694 256.052 312.159C263.407 307.606 270.338 302.401 276.763 296.608C276.817 296.545 276.859 296.472 276.884 296.393C276.909 296.313 276.918 296.23 276.91 296.147C280.337 291.264 293.18 265.836 296.294 253.085C298.469 244.056 296.313 237.331 287.763 233.959ZM293.549 257.36C284.878 256.249 276.494 253.511 268.839 249.289C273.151 241.126 278.476 231.821 287.265 235.322C297.05 239.21 296.847 247.262 293.549 257.305V257.36ZM262.888 305.268C262.322 304.794 261.704 304.385 261.045 304.052C258.555 302.786 255.678 302.509 252.993 303.278C252.809 301.085 251.758 286.823 251.758 286.694C265.559 291.743 261.303 289.55 274.975 296.35C273.538 297.713 268.139 301.491 262.888 305.231V305.268ZM272.396 251.943C274.193 252.924 276.038 253.816 277.923 254.614C273.7 261.249 269.968 268.183 266.757 275.362C263.662 281.83 263.772 281.793 260.621 288.85C258.779 288.261 256.936 287.708 255.093 287.155C257.083 283.193 271.235 254.227 272.396 251.906V251.943ZM261.34 289.034C267.328 278.292 273.427 264.933 278.66 254.854C280.503 255.628 282.346 256.254 284.188 256.807C283.212 258.65 280.356 263.551 279.6 264.97C278.845 266.389 271.272 281.314 270.737 282.456C269.89 284.299 267.568 289.44 266.849 291.08C264.97 290.251 263.164 289.624 261.266 288.998L261.34 289.034ZM267.513 291.319C268.637 289.274 273.262 280.687 273.833 279.582C274.699 277.868 284.354 258.134 284.888 256.991C286.584 257.47 288.371 257.876 289.513 258.097C286.141 267.31 276.431 285.054 272.93 293.807C269.742 292.314 269.024 291.946 267.439 291.282L267.513 291.319ZM268.637 249.824L271.935 251.666C265.288 262.986 259.498 274.787 254.614 286.971L251.85 286.123C262.556 263.312 263.053 260.327 268.563 249.787L268.637 249.824ZM276.228 295.41L273.446 294.083C276.449 288.187 285.847 273.059 290.14 258.226C291.172 258.41 292.185 258.576 293.162 258.705C288.427 271.34 282.741 283.597 276.154 295.373L276.228 295.41ZM218.499 307.368C219.234 306.76 219.758 305.937 220 305.015C220.241 304.092 220.187 303.117 219.844 302.228C219.688 300.944 219.099 299.751 218.175 298.847C217.25 297.942 216.046 297.379 214.759 297.25C213.472 297.122 212.179 297.435 211.094 298.139C210.009 298.842 209.196 299.895 208.789 301.122C206.43 299.593 203.869 297.971 201.418 296.423C203.261 293.973 208.678 295.06 209.231 297.068C209.243 297.146 209.286 297.217 209.35 297.263C209.414 297.31 209.493 297.329 209.572 297.317C209.65 297.305 209.72 297.262 209.767 297.198C209.813 297.134 209.833 297.054 209.82 296.976C209.544 293.77 202.874 291.891 200.183 295.668C197.807 294.212 194.858 292.443 192.389 291.098C194.508 289.256 199.244 290.287 199.76 292.204C199.784 292.269 199.831 292.324 199.892 292.358C199.952 292.393 200.024 292.404 200.092 292.391C200.161 292.378 200.223 292.34 200.266 292.286C200.31 292.231 200.333 292.163 200.331 292.093C200.091 289.108 193.919 287.1 191.118 290.38C189.944 289.722 188.71 289.179 187.433 288.758C187.199 288.661 186.943 288.634 186.694 288.68C186.446 288.726 186.216 288.842 186.032 289.016C181.37 294.82 165.653 309.893 158.393 311.643C158.21 311.671 158.038 311.746 157.894 311.861C157.75 311.976 157.639 312.127 157.571 312.299C157.504 312.471 157.483 312.658 157.511 312.84C157.539 313.023 157.614 313.195 157.73 313.339C159.324 314.957 161.15 316.329 163.147 317.411C161.304 319.253 159.867 320.912 158.798 322.109C158.246 322.699 157.951 333.976 158.43 336.463C158.501 336.707 158.658 336.916 158.872 337.053C161.194 338.638 191.099 351.573 194.158 349.841C196.203 348.68 220.618 323.27 221.005 322.496C221.595 321.28 221.392 313.173 221.355 309.93C221.208 308.953 219.384 307.903 218.499 307.368ZM159.535 331.709V327.6C167.182 331.286 184.687 338.803 191.321 340.904C193.016 341.457 193.163 341.383 194.048 340.904C199.115 337.661 217.007 317.503 220.286 314.426V318.314C210.336 328.282 193.44 345.75 193.126 344.755C191.302 344.645 161.12 332.446 159.535 331.709ZM218.038 301.159C218.701 302.275 219.057 303.546 219.07 304.844C219.064 305.257 218.963 305.663 218.774 306.03C218.585 306.398 218.315 306.717 217.983 306.963C216.435 305.931 213.506 304.015 210.041 301.767C211.939 298.026 216.159 297.971 217.965 301.159H218.038ZM159.075 312.952C166.924 310.63 181.831 296.258 186.843 290.029C188.049 290.365 189.212 290.841 190.307 291.448C188.464 294.876 190.436 298.634 191.136 298.1C191.523 297.805 190.823 297.695 190.712 295.889C190.665 294.57 190.964 293.261 191.578 292.093C194.121 293.42 197.106 295.152 199.631 296.608C198.083 300.053 199.944 303.462 200.589 302.965C201.234 302.467 200.294 302.578 200.183 300.772C200.139 299.588 200.365 298.409 200.847 297.326C203.445 298.856 206.098 300.44 208.531 301.933C208.156 302.851 208.007 303.846 208.097 304.833C208.187 305.821 208.512 306.773 209.046 307.608C209.071 307.639 209.101 307.666 209.135 307.686C209.17 307.705 209.208 307.718 209.247 307.723C209.286 307.729 209.326 307.726 209.365 307.716C209.403 307.705 209.439 307.688 209.47 307.663C209.502 307.639 209.528 307.609 209.548 307.575C209.568 307.54 209.581 307.502 209.586 307.463C209.591 307.424 209.588 307.384 209.578 307.345C209.568 307.307 209.55 307.271 209.526 307.24C209.194 306.507 209.031 305.711 209.047 304.907C209.063 304.104 209.258 303.314 209.618 302.596C213.911 305.213 217.375 307.405 218.444 308.124C218.241 308.308 199.023 325.408 192.481 330.493C188.188 329.369 165.653 318.185 159.075 312.952ZM159.775 323.215C168.122 326.9 187.083 335.45 191.449 336.279C192.205 336.427 192.5 336.482 193.937 335.339C200.073 330.42 220.028 309.543 220.213 309.764C220.222 309.819 220.222 309.875 220.213 309.93V313.615C216.104 316.913 193.255 340.904 192.887 339.762C191.044 339.762 161.102 327.545 159.572 326.863C159.535 326.089 159.701 324.026 159.775 323.215ZM193.329 348.606C191.486 349.656 163.423 338.251 159.664 335.929C159.523 334.755 159.456 333.574 159.462 332.391C167.532 336.371 191.007 346.285 193.163 346.192C196.314 346.027 218.591 320.949 220.176 319.198C220.194 320.139 220.101 321.079 219.899 321.999C219.586 322.607 194.545 347.924 193.329 348.606ZM40.6683 244.738C40.7973 246.71 40.8894 248.423 40.8894 250.026C40.8894 250.271 40.9865 250.505 41.1593 250.678C41.3321 250.851 41.5664 250.948 41.8107 250.948C42.0551 250.948 42.2894 250.851 42.4622 250.678C42.635 250.505 42.7321 250.271 42.7321 250.026C42.7321 248.313 42.6399 246.617 42.5109 244.609C42.4938 244.365 42.3804 244.137 42.1955 243.976C42.0106 243.816 41.7695 243.735 41.5251 243.752C41.2808 243.769 41.0532 243.883 40.8926 244.068C40.7319 244.253 40.6512 244.494 40.6683 244.738ZM321.428 207.794C321.307 207.801 321.19 207.832 321.081 207.885C320.973 207.938 320.877 208.012 320.798 208.103C320.719 208.194 320.659 208.3 320.621 208.415C320.584 208.529 320.57 208.65 320.58 208.77C320.69 210.465 320.801 212.29 320.801 214.058C320.801 214.303 320.898 214.537 321.071 214.71C321.244 214.883 321.478 214.98 321.722 214.98C321.967 214.98 322.201 214.883 322.374 214.71C322.547 214.537 322.644 214.303 322.644 214.058C322.644 212.216 322.533 210.373 322.404 208.641C322.397 208.521 322.366 208.403 322.313 208.295C322.26 208.187 322.186 208.09 322.095 208.011C322.004 207.932 321.898 207.872 321.783 207.835C321.669 207.798 321.548 207.784 321.428 207.794ZM35.8959 240.15C36.1403 240.15 36.3746 240.053 36.5474 239.88C36.7202 239.707 36.8173 239.473 36.8173 239.229C36.8173 238.984 36.7202 238.75 36.5474 238.577C36.3746 238.404 36.1403 238.307 35.8959 238.307C33.6664 238.307 31.8053 238.473 29.9627 238.436C29.7167 238.436 29.4804 238.533 29.3047 238.705C29.129 238.877 29.0278 239.112 29.023 239.358C29.023 239.602 29.1201 239.836 29.2928 240.009C29.4656 240.182 29.7 240.279 29.9443 240.279C31.8422 240.316 33.9244 240.242 35.8959 240.15ZM315.715 202.339C313.504 202.339 311.643 202.468 309.782 202.487C309.538 202.487 309.304 202.584 309.131 202.757C308.958 202.929 308.861 203.164 308.861 203.408C308.861 203.653 308.958 203.887 309.131 204.06C309.304 204.232 309.538 204.329 309.782 204.329C311.772 204.329 313.836 204.329 315.826 204.182C316.07 204.167 316.299 204.056 316.461 203.873C316.624 203.69 316.707 203.45 316.692 203.205C316.677 202.961 316.566 202.733 316.383 202.57C316.2 202.408 315.96 202.325 315.715 202.339ZM40.1708 228.763C40.2814 230.458 40.3919 232.282 40.3919 234.051C40.3966 234.294 40.4952 234.525 40.667 234.697C40.8388 234.869 41.0704 234.967 41.3132 234.972C41.5576 234.972 41.7919 234.875 41.9647 234.702C42.1375 234.53 42.2345 234.295 42.2345 234.051C42.2345 232.208 42.124 230.366 42.0134 228.634C41.9963 228.389 41.8829 228.162 41.698 228.001C41.5131 227.84 41.272 227.76 41.0276 227.777C40.7833 227.794 40.5557 227.907 40.3951 228.092C40.2344 228.277 40.1537 228.518 40.1708 228.763ZM322.146 198.083C322.146 196.24 322.036 194.398 321.907 192.666C321.889 192.421 321.776 192.194 321.591 192.033C321.406 191.872 321.165 191.792 320.921 191.809C320.676 191.826 320.449 191.939 320.288 192.124C320.128 192.309 320.047 192.55 320.064 192.795C320.175 194.49 320.285 196.314 320.285 198.083C320.285 198.327 320.382 198.562 320.555 198.734C320.728 198.907 320.962 199.004 321.206 199.004C321.453 199.004 321.689 198.908 321.865 198.736C322.04 198.563 322.141 198.329 322.146 198.083ZM53.7693 239.91C53.8903 239.906 54.0092 239.877 54.1192 239.826C54.2292 239.776 54.3281 239.704 54.4102 239.615C54.4924 239.526 54.5561 239.421 54.5979 239.308C54.6397 239.194 54.6587 239.073 54.6538 238.952C54.6352 238.711 54.5261 238.486 54.3483 238.322C54.1706 238.158 53.9375 238.067 53.6956 238.068C51.466 238.16 49.605 238.234 47.744 238.197C47.4996 238.197 47.2653 238.294 47.0925 238.467C46.9197 238.639 46.8227 238.874 46.8227 239.118C46.8227 239.362 46.9197 239.597 47.0925 239.769C47.2653 239.942 47.4996 240.039 47.744 240.039C49.7156 240.076 51.7793 240.002 53.7693 239.91ZM333.589 202.1C331.746 202.192 329.701 202.247 327.656 202.247C327.534 202.242 327.413 202.262 327.299 202.305C327.185 202.348 327.081 202.414 326.993 202.498C326.905 202.583 326.836 202.684 326.788 202.796C326.74 202.908 326.716 203.028 326.716 203.15C326.716 203.396 326.812 203.633 326.985 203.808C327.157 203.984 327.391 204.085 327.637 204.09C329.738 204.09 331.433 204.09 333.663 203.943C333.784 203.938 333.902 203.909 334.012 203.858C334.122 203.808 334.221 203.736 334.303 203.647C334.386 203.558 334.449 203.454 334.491 203.34C334.533 203.226 334.552 203.105 334.547 202.984C334.524 202.745 334.414 202.522 334.237 202.359C334.06 202.196 333.829 202.103 333.589 202.1ZM11.426 185.314C11.6656 185.498 63.6273 177.796 65.8569 176.432C65.9803 176.342 66.0789 176.222 66.1434 176.084C66.2078 175.945 66.236 175.792 66.2254 175.64C66.2254 173.263 63.1114 150.949 61.6189 145.384C61.4346 144.702 61.2503 144.021 60.8265 143.781C58.0073 142.086 8.33043 151.446 5.36382 153.363C5.28342 153.41 5.21396 153.474 5.15998 153.55C5.106 153.627 5.06872 153.713 5.05057 153.805C4.42409 156.035 9.82295 184.208 11.426 185.314ZM6.17457 154.247C9.71239 152.644 54.8012 144.389 59.9605 145.034C61.2135 148.259 64.567 171.881 64.7882 175.345C62.2269 176.101 12.1262 184.706 11.942 184.742C11.7577 184.779 11.7393 185 11.3523 183.84C9.73082 178.975 6.08244 158.412 6.17457 154.247Z" fill="#2C383F"/>
<path d="M69.9105 178.073C70.0107 177.887 70.0555 177.675 70.0394 177.465C70.0394 174.535 65.8383 142.013 64.3458 139.415C64.2288 139.223 64.0631 139.066 63.8657 138.959C63.6683 138.852 63.4461 138.8 63.2218 138.807C57.049 138.051 4.97672 148.222 1.54945 150.599C1.07037 150.931 1.14408 151.76 1.19935 152.645C1.49417 157.491 6.7272 189.368 8.56981 189.184C8.7725 189.184 8.6988 189.036 8.21972 190.013C5.34524 195.928 -0.108901 214.87 0.00165544 218.684C0.00165544 220.287 0.370177 222.369 1.95483 222.259C13.3238 220.858 69.0629 212.014 85.0936 208.715C85.7201 208.586 86.1255 208.015 86.107 207.075C85.9179 205.51 85.4432 203.992 84.7067 202.598C82.4587 198.378 73.135 181.666 69.9105 178.073ZM8.68037 188.612C7.24313 186.77 1.95483 155.022 2.3602 151.502C6.41395 149.402 57.7861 139.47 63.1665 140.281C64.6406 144.334 68.4548 173.614 68.6943 177.133C62.1715 179.381 17.009 186.678 8.68037 188.612ZM9.49112 189.165C11.0389 188.778 63.7561 179.952 68.5838 178.681C71.2187 181.131 83.122 202.303 83.8959 204.109C73.3193 205.951 10.5783 216.436 1.34676 217.836C1.47575 212.253 7.20628 192.74 9.49112 189.165Z" fill="#2C383F"/>
<path d="M16.4193 208.273C18.0224 208.034 52.0371 203.943 64.3273 200.608C64.4031 200.588 64.4679 200.54 64.5077 200.472C64.5474 200.405 64.5588 200.324 64.5392 200.249C64.5197 200.173 64.4708 200.108 64.4034 200.068C64.3361 200.029 64.2556 200.017 64.1799 200.037C61.7661 200.534 32.3211 204.459 16.3825 207.702C16.3384 207.694 16.2932 207.696 16.2501 207.709C16.2071 207.721 16.1674 207.742 16.134 207.772C16.1006 207.802 16.0744 207.839 16.0575 207.88C16.0405 207.922 16.0332 207.967 16.0361 208.011C16.039 208.056 16.052 208.099 16.0741 208.138C16.0962 208.177 16.1269 208.21 16.1639 208.236C16.2008 208.261 16.243 208.277 16.2873 208.284C16.3315 208.29 16.3767 208.287 16.4193 208.273ZM41.2762 80.0641C40.5879 81.6187 40.0091 83.2196 39.5441 84.8549C39.5167 85.1174 39.5891 85.3805 39.7468 85.592C41.6079 88.3928 60.6789 109.896 65.654 112.918C66.3358 113.342 67.1465 113.637 67.644 113.029C71.2581 108.532 75.9746 105.047 81.3346 102.913C85.6973 101.369 90.2712 100.505 94.8963 100.351C98.5815 100.02 99.2264 99.6511 100.645 97.2373C102.319 94.0606 104.539 91.2039 107.205 88.7981C110.604 85.8264 114.376 83.3114 118.426 81.3171C118.609 81.2138 118.751 81.0525 118.831 80.8589C118.912 80.6652 118.925 80.4504 118.869 80.2484C118.246 78.6634 117.422 77.1648 116.418 75.7893C117.081 75.5682 117.818 75.3655 117.818 74.7021C117.818 72.8595 101.751 49.6057 97.2917 45.2203C96.831 44.7596 96.1677 44.1516 95.5596 44.1884C86.3465 44.7044 77.373 53.4015 72.1768 60.9931C66.2252 60.772 62.3741 60.2376 55.5933 63.0937C50.8064 65.1256 46.4905 68.1241 42.9161 71.9014C42.3633 72.4726 38.6044 76.4526 38.5491 76.7659C38.4938 77.0791 38.6044 77.0791 41.2762 80.0641ZM114.981 79.5482C107.297 80.8565 102.396 87.2503 98.7842 94.197C97.1811 97.2926 97.3285 97.44 95.6333 97.4032C92.669 97.2353 89.6955 97.3463 86.7519 97.7348C84.5929 98.0575 82.4702 98.5882 80.4133 99.3195C75.7331 100.978 70.3711 106.285 67.515 110.228C67.4544 110.309 67.3772 110.376 67.2887 110.425C67.2002 110.475 67.1022 110.505 67.0013 110.513C66.9004 110.522 66.7988 110.509 66.7031 110.476C66.6075 110.443 66.52 110.389 66.4463 110.32C60.4578 104.147 49.8628 93.3125 44.5376 87.0845C44.2797 86.8081 44.7219 86.4027 44.9799 86.6976C48.4255 90.3828 57.3254 99.2089 66.8701 108.809C70.0947 104.7 75.0698 99.7248 79.9895 97.9928C82.6723 97.0358 85.4639 96.4169 88.2997 96.1502C90.9554 95.9485 93.6226 95.9485 96.2782 96.1502C97.3654 94.8972 102.746 80.6722 114.944 79.0876C114.98 79.1138 115.009 79.1477 115.03 79.1868C115.051 79.2259 115.062 79.2692 115.064 79.3135C115.066 79.3577 115.058 79.4018 115.04 79.4424C115.022 79.4831 114.996 79.5192 114.962 79.5482H114.981ZM95.5412 45.681C99.2264 48.2606 114.225 70.4641 116.178 74.352C112.789 75.4259 109.517 76.8396 106.413 78.5716C103.472 80.0455 100.898 82.1567 98.8772 84.7514C96.8563 87.3461 95.4396 90.359 94.7305 93.5705C88.1155 82.8096 78.884 70.9616 72.7481 62.2461C73.1166 62.0065 83.4721 46.3996 95.5412 45.681ZM55.9987 64.1071C62.7242 61.3985 66.4463 62.0249 72.011 62.2645C77.5389 71.6987 87.4706 85.0023 94.0118 93.7179C87.9744 92.2893 81.6213 93.1631 76.1937 96.1686C72.9323 98.0112 68.9523 102.433 66.5016 105.179C62.9638 102.341 42.5476 80.5985 39.2677 76.9133C44.3165 71.2012 48.9783 66.9079 55.9987 64.0334V64.1071ZM22.2788 110.965C21.8234 110.645 21.285 110.465 20.729 110.445C20.173 110.425 19.6232 110.568 19.1464 110.854C18.7992 111.009 18.4858 111.231 18.2243 111.507C17.9628 111.783 17.7581 112.108 17.6221 112.463C17.4861 112.818 17.4213 113.196 17.4315 113.576C17.4417 113.956 17.5267 114.33 17.6815 114.678C17.8364 115.025 18.0581 115.338 18.3341 115.6C18.61 115.861 18.9348 116.066 19.2898 116.202C19.6449 116.338 20.0232 116.403 20.4033 116.393C20.7834 116.382 21.1577 116.297 21.5049 116.143C22.0597 116.021 22.5644 115.734 22.9522 115.32C23.3401 114.905 23.5927 114.382 23.6767 113.82C23.7606 113.259 23.6719 112.685 23.4222 112.175C23.1726 111.665 22.7738 111.243 22.2788 110.965ZM21.0627 114.65C19.7729 115.055 18.999 114.65 18.6857 114.024C18.0961 112.715 18.8332 110.707 20.7495 111.296C22.0946 111.794 23.1817 114.06 21.0627 114.742V114.65ZM115.976 26.6467C116.51 27.7339 118.998 27.3285 120.085 26.9784C120.656 26.7942 121.025 26.5915 121.08 26.0387C121.246 24.6567 121.43 12.6797 120.803 11.5189C120.739 11.3972 120.639 11.2972 120.518 11.2317C120.397 11.1661 120.259 11.1378 120.122 11.1504C118.156 11.1449 116.2 11.4305 114.317 11.998C113.562 12.4586 115.312 25.4306 115.976 26.6467ZM114.704 12.4402C116.406 12.1967 118.128 12.1165 119.845 12.2006C119.956 13.5642 119.661 25.3753 119.643 25.5596C118.864 25.8386 118.033 25.9393 117.21 25.8544C117.081 25.4306 116.86 24.2882 116.584 22.851C115.772 19.4167 115.145 15.9415 114.704 12.4402ZM20.4915 95.4131C20.6683 95.5037 20.8641 95.5509 21.0627 95.5509C21.2613 95.5509 21.4571 95.5037 21.6339 95.4131C22.3458 94.974 22.9104 94.3324 23.2554 93.5705C23.3023 93.4486 23.3167 93.3166 23.2974 93.1874C23.278 93.0582 23.2254 92.9363 23.1449 92.8335C22.2604 91.7832 12.6051 80.5985 11.4258 81.2987C9.97794 82.236 8.60422 83.2833 7.31681 84.4311C7.26492 84.4775 7.22335 84.5343 7.19479 84.5978C7.16622 84.6613 7.1513 84.7301 7.15097 84.7997C7.11412 85.7578 17.8381 94.3444 20.4915 95.4131ZM11.647 81.7778C12.9921 82.7544 17.5249 88.3559 21.7261 93.3125C21.5453 93.5971 21.3215 93.852 21.0627 94.068C16.6457 91.241 12.4285 88.1135 8.4408 84.7075C9.44045 83.6579 10.5117 82.679 11.647 81.7778ZM40.5944 41.1297C40.9998 33.9804 45.1641 30.6636 49.5127 29.816C48.2781 34.3489 48.4808 40.2452 52.9584 41.0007C55.0958 41.3508 56.1461 40.2452 57.6939 38.9554C64.3089 33.4276 58.9653 27.8997 51.5027 28.2867C54.2851 20.6582 60.7158 14.4486 69.2471 14.2459C69.3253 14.2459 69.4003 14.2149 69.4556 14.1596C69.5108 14.1043 69.5419 14.0293 69.5419 13.9511C69.5419 13.8729 69.5108 13.7979 69.4556 13.7427C69.4003 13.6874 69.3253 13.6563 69.2471 13.6563C60.034 13.472 52.7925 20.1055 49.9365 28.3972C45.0167 29.2448 40.1338 32.9301 40.0048 41.0191C39.9975 41.0579 39.998 41.0976 40.0061 41.1362C40.0142 41.1747 40.0298 41.2113 40.0521 41.2438C40.0743 41.2763 40.1027 41.3041 40.1357 41.3256C40.1687 41.3472 40.2056 41.362 40.2443 41.3692C40.2831 41.3765 40.3228 41.3761 40.3614 41.3679C40.3999 41.3598 40.4365 41.3442 40.469 41.322C40.5015 41.2997 40.5293 41.2713 40.5508 41.2383C40.5724 41.2053 40.5872 41.1684 40.5944 41.1297ZM51.0789 29.5949C53.8244 29.4107 57.915 30.2583 59.039 32.7458C59.6839 34.1646 59.039 35.9151 56.7542 37.8314C56.1339 38.4529 55.4262 38.9805 54.6536 39.3976C51.8897 40.5769 48.8309 37.1681 51.0789 29.5949ZM56.3488 290.196C54.5686 289.719 52.711 289.603 50.8853 289.855C49.0596 290.107 47.3027 290.721 45.718 291.662C44.1332 292.603 42.7527 293.851 41.6577 295.333C40.5626 296.816 39.7751 298.502 39.3415 300.293C38.5229 304.015 39.2162 307.909 41.2688 311.119C43.3214 314.329 46.5652 316.593 50.2866 317.411C54.008 318.23 57.9021 317.537 61.1123 315.484C64.3226 313.431 66.5859 310.188 67.4045 306.466C67.7541 304.671 67.7451 302.825 67.3778 301.034C67.0105 299.242 66.2924 297.541 65.2646 296.029C64.2369 294.516 62.92 293.222 61.3897 292.221C59.8595 291.22 58.1463 290.532 56.3488 290.196ZM62.0425 305.213C61.3031 308.162 59.5332 310.749 57.0527 312.506C54.5721 314.263 51.5447 315.075 48.5177 314.795C45.739 313.709 43.4322 311.678 42.0032 309.06C40.5742 306.441 40.1145 303.402 40.705 300.478C41.3945 297.457 43.148 294.786 45.6449 292.952C48.1418 291.119 51.2153 290.245 54.3035 290.491C57.1096 291.65 59.4168 293.762 60.8189 296.455C62.2211 299.148 62.6282 302.25 61.9688 305.213H62.0425Z" fill="#2C383F"/>
<path d="M80.8923 295.446C79.2882 294.893 77.5691 294.76 75.8989 295.059C75.2066 293.472 74.3546 291.96 73.3561 290.545C74.5538 289.458 77.8336 286.436 77.0413 285.017C74.2215 281.644 70.8737 278.751 67.128 276.449C65.5639 275.573 63.8417 275.015 62.0608 274.809C60.8815 274.975 58.0808 279.563 57.4543 280.595C57.0489 280.595 55.6117 280.134 55.5011 280.079C55.5011 278.752 55.1142 273.961 53.9165 273.409C52.5771 272.916 51.1863 272.576 49.7706 272.395C48.4623 272.192 36.688 274.348 35.822 275.933C35.2508 277.002 36.5775 281.037 36.9644 282.161C35.9707 282.708 35.0163 283.324 34.1084 284.004C32.2657 285.312 32.7633 285.257 32.4316 285.109C32.0307 284.918 31.6012 284.793 31.1602 284.741C29.6882 283.878 27.9625 283.552 26.2772 283.819C24.582 284.372 20.5836 293.475 19.9387 295.815C19.7276 296.405 19.6705 297.039 19.7728 297.657C20.215 298.874 23.1632 299.85 24.3978 300.237C24.0568 302.608 24.0568 305.016 24.3978 307.386C22.7763 307.829 19.4043 308.824 19.5886 310.482C19.7728 312.14 24.0845 323.086 25.8719 323.952C26.851 324.499 27.9337 324.836 29.0506 324.941C30.1676 325.045 31.2941 324.916 32.3579 324.56C32.957 324.26 33.5356 323.922 34.0899 323.546C34.827 324.099 35.6009 324.596 36.3932 325.076C35.822 326.494 34.5506 329.664 34.956 331.101C35.1586 331.856 35.7667 332.096 36.6143 332.409C38.9544 333.257 51.5579 336.279 53.4742 335.947C54.1929 335.836 54.5798 335.081 54.8009 334.362C55.2103 332.727 55.4511 331.053 55.5195 329.369C56.4658 329.275 57.4068 329.134 58.3387 328.945C58.9079 329.947 59.636 330.849 60.4946 331.617C61.4343 332.28 62.2267 331.948 63.2954 331.267C63.8113 331.93 64.5852 332.851 65.4144 332.943C67.4965 333.183 76.1016 325.076 76.986 323.417C77.7231 322.035 75.0328 319.566 73.8351 318.479C75.1308 316.529 76.1479 314.408 76.857 312.177C78.186 312.377 79.531 312.452 80.8739 312.398C81.482 312.398 82.1822 312.177 82.4401 311.606C83.5641 309.045 83.2325 299.334 82.4401 296.865C82.3296 296.146 81.5004 295.667 80.8923 295.446ZM81.3346 297.141C81.9611 299.537 82.1637 308.584 81.2424 310.924C79.6493 311.081 78.0418 311.007 76.4701 310.703C76.3022 310.674 76.1298 310.71 75.9866 310.802C75.8433 310.894 75.7398 311.036 75.6962 311.201C74.9624 313.692 73.8231 316.045 72.3242 318.166C72.2174 318.306 72.1693 318.483 72.1899 318.658C72.2105 318.833 72.2983 318.994 72.4347 319.105C73.7276 320.13 74.826 321.378 75.6777 322.791C74.7564 324.302 67.5518 330.898 65.5618 331.451C65.267 331.451 64.4562 330.345 64.2535 330.051C63.5729 329.028 62.9575 327.963 62.4109 326.863C62.3311 326.702 62.1943 326.578 62.0273 326.513C61.8603 326.448 61.6751 326.448 61.508 326.513C56.1645 328.521 54.1376 327.342 54.1376 328.669C54.14 330.655 53.8163 332.628 53.1794 334.51C48.8492 334.039 44.5849 333.087 40.4654 331.672C40.6643 329.705 41.2135 327.789 42.0869 326.015C42.6397 324.781 40.4285 325.131 36.3011 320.93C36.1682 320.807 35.9938 320.738 35.8128 320.738C35.6317 320.738 35.4573 320.807 35.3245 320.93C33.4819 322.441 31.0865 323.915 30.6074 323.675C29.6677 323.214 25.3375 313.393 25.0795 311.403C26.3901 310.49 27.8779 309.862 29.4465 309.561C29.6138 309.513 29.7583 309.407 29.8532 309.261C29.948 309.116 29.9869 308.941 29.9625 308.768C29.5109 306.159 29.5109 303.491 29.9625 300.882C29.9906 300.721 29.9569 300.556 29.868 300.419C29.7791 300.282 29.6417 300.184 29.4834 300.145C28.0943 299.781 26.7569 299.242 25.5033 298.542C25.098 298.247 25.1348 298.265 25.1717 297.952C26.3643 293.651 28.277 289.582 30.8285 285.92C31.8235 285.644 34.5137 287.615 35.435 288.315C35.5313 288.409 35.6602 288.461 35.7944 288.461C35.9285 288.461 36.0574 288.409 36.1537 288.315C37.0003 287.437 37.9119 286.624 38.8807 285.883C41.6815 283.764 42.437 284.04 42.1974 283.303C41.3504 281.455 40.8746 279.458 40.7971 277.425C41.0826 277.188 41.4067 277.001 41.7552 276.873C43.4755 276.192 45.2429 275.638 47.0435 275.214C49.2261 274.606 51.4693 274.242 53.7322 274.127C54.1192 274.293 54.4692 275.97 54.5614 276.486C55.2431 280.171 54.7825 280.926 55.3169 280.982C60.5683 281.498 61.637 282.953 62.0055 282.308C63.0273 280.522 64.2182 278.837 65.5618 277.278C65.9487 276.891 65.9303 276.707 67.0912 277.37C70.5592 279.636 73.6652 282.413 76.3042 285.607C76.5806 286.086 74.1852 288.629 72.4347 290.121C71.8267 290.655 72.6927 290.895 74.2774 293.917C75.862 296.939 75.4935 297.786 76.3411 297.602C77.9751 297.211 79.6566 297.056 81.3346 297.141ZM337.071 143.173C333.208 141.595 329.158 140.523 325.02 139.985C321.998 139.506 318.442 139.027 315.439 138.64C318.332 134.549 326.9 124.194 328.337 121.669C328.742 120.988 327.969 120.029 327.397 119.458C324.191 116.031 318 114.741 313.246 114.004C310.519 113.562 299.132 112.161 297.197 113.083C294.875 114.188 277.702 139.985 277.186 143.91C277.186 144.573 277.407 144.831 278.052 145.07C280.761 146.065 292.977 147.613 295.704 148.258C292.019 154.707 275.638 176.505 274.035 179.583C273.648 180.357 273.888 180.817 274.348 180.965C276.007 181.623 277.713 182.153 279.453 182.549C280.116 182.752 281.572 181.849 283.691 180.559C293.198 174.847 333.994 147.908 337.126 144.426C337.213 144.344 337.281 144.244 337.325 144.134C337.37 144.024 337.39 143.905 337.385 143.786C337.38 143.668 337.349 143.551 337.295 143.445C337.241 143.339 337.164 143.246 337.071 143.173ZM297.473 165.284C281.811 175.621 276.523 178.643 276.339 178.772C278.863 174.921 294.544 153.436 297.234 148.295C297.281 148.196 297.305 148.087 297.304 147.977C297.304 147.868 297.279 147.759 297.231 147.66C297.183 147.562 297.114 147.475 297.029 147.406C296.943 147.337 296.843 147.288 296.736 147.263C294.894 146.6 281.479 145.163 278.31 144.039C278.715 140.611 295.446 114.704 297.473 113.672C299.5 112.64 319.161 114.981 322.846 117.616C320.911 121.393 310.224 134.623 308.492 137.7C308.142 138.327 308.031 138.935 308.713 139.1C309.395 139.266 326.716 141.293 330.493 142.528C325.886 146.379 302.633 161.82 297.473 165.21V165.284ZM179.27 52.6265C179.27 52.7923 179.38 52.995 179.657 54.0637C179.729 54.2956 179.889 54.4903 180.102 54.6071C180.314 54.7239 180.564 54.7537 180.799 54.6902C181.034 54.6218 181.231 54.463 181.349 54.2488C181.466 54.0345 181.494 53.7824 181.425 53.5478C181.241 52.8292 181.075 52.2211 180.965 51.9263C180.857 51.724 180.679 51.5689 180.463 51.4913C180.248 51.4137 180.011 51.4191 179.799 51.5065C179.587 51.594 179.416 51.7572 179.318 51.9642C179.22 52.1713 179.203 52.4074 179.27 52.6265Z" fill="#2C383F"/>
</svg>
