<svg width="359" height="350" viewBox="0 0 359 350" fill="none" xmlns="http://www.w3.org/2000/svg">
<path fill-rule="evenodd" clip-rule="evenodd" d="M169.853 0.136717C196.202 -1.12749 223.423 6.40353 245.001 21.5773C265.793 36.1981 270.231 65.2496 288.123 83.3036C308.613 103.979 350.083 106.635 357.254 134.846C364.355 162.779 327.906 184.135 320.859 212.082C314.018 239.214 334.07 272.784 316.9 294.878C299.795 316.89 263.994 309.115 237.878 318.865C214.248 327.687 194.992 347.728 169.853 349.777C144.252 351.864 120.535 338.828 96.2698 330.407C69.6198 321.159 37.3804 319.33 19.4234 297.575C1.48339 275.841 4.35111 244.037 1.8098 215.97C-0.504154 190.414 -1.68635 164.759 5.15822 140.028C11.8568 115.825 24.7998 94.0587 40.8876 74.7752C56.7828 55.7226 76.6236 41.0544 98.0992 28.6254C120.655 15.5714 143.822 1.38565 169.853 0.136717Z" fill="#C8D6DF"/>
<path d="M239.007 197.536H238.896H239.007ZM84.7492 251.425C85.4512 251.536 89.2938 251.721 89.2938 251.056C89.2938 250.668 88.5918 250.686 88.5918 250.686C88.6842 247.73 92.4344 246.991 95.1131 248.543C95.8515 248.968 96.5341 249.483 97.1453 250.076C93.3581 250.28 88.3332 252.866 88.6657 256.616C88.8566 257.594 89.2667 258.516 89.865 259.313C90.4634 260.11 91.2344 260.76 92.1203 261.216C93.2277 262.045 94.489 262.645 95.8307 262.981C97.1723 263.317 98.5675 263.383 99.9348 263.175C102.37 262.554 104.513 261.103 105.994 259.073C109.343 259.18 112.619 258.086 115.231 255.988C115.342 255.901 115.433 255.792 115.5 255.668C115.566 255.544 115.607 255.408 115.619 255.268C115.619 254.621 115.619 254.658 111.924 250.557C111.82 250.44 111.689 250.35 111.542 250.295C111.396 250.239 111.238 250.22 111.082 250.238C110.927 250.256 110.778 250.311 110.648 250.399C110.518 250.486 110.411 250.604 110.336 250.742C110.272 250.822 110.216 250.909 110.169 251C109.876 251.551 109.402 251.984 108.826 252.227C108.251 252.469 107.61 252.505 107.01 252.33C105.163 251.795 102.78 246.899 98.4384 243.98C94.6513 241.431 89.5709 240.673 85.987 243.703C84.4444 245.027 83.3477 246.795 82.8464 248.765C82.6469 249.372 82.6866 250.033 82.9572 250.612C83.4425 251.082 84.0758 251.37 84.7492 251.425ZM91.6954 258.279C91.1889 257.917 90.8374 257.378 90.7107 256.768C90.584 256.159 90.6916 255.524 91.0119 254.991C91.8311 253.858 92.9697 252.996 94.2818 252.515C93.2233 254.31 92.3564 256.211 91.6954 258.187V258.279ZM109.098 255.36C109.541 254.03 109.098 254.492 109.837 254.159C110.397 253.88 110.903 253.505 111.333 253.051L113.014 255.046C111.622 255.929 110.083 256.554 108.47 256.893C108.655 256.413 108.95 255.674 109.098 255.268V255.36ZM102.41 250.649C104.165 252.848 105.625 254.806 108.304 254.584C107.921 255.38 107.612 256.208 107.38 257.06C106.031 257.152 105.847 256.838 105.311 257.06C104.258 257.466 102.521 261.253 98.3091 261.235C98.5713 260.649 98.7396 260.026 98.8079 259.387C99.9998 259.147 101.115 258.62 102.059 257.854C102.464 257.503 102.727 257.017 102.798 256.487C102.798 255.84 102.577 255.009 101.21 253.919C101.719 252.84 102.121 251.714 102.41 250.557V250.649ZM96.2031 257.632C94.5774 256.764 97.3485 255.231 99.1405 255.286C99.5522 255.289 99.9546 255.409 100.301 255.631C100.648 255.853 100.924 256.169 101.099 256.542C100.852 256.94 100.527 257.282 100.143 257.55C99.7587 257.817 99.3242 258.003 98.8659 258.096C98.4076 258.19 97.935 258.188 97.4771 258.093C97.0192 257.997 96.5857 257.809 96.2031 257.54V257.632ZM98.383 246.326C99.6375 247.393 100.777 248.588 101.782 249.892C101.198 250.958 100.751 252.094 100.452 253.272C99.6758 253.05 98.8619 252.989 98.061 253.094C97.2602 253.199 96.4894 253.467 95.7967 253.882C92.4159 255.73 93.2103 259.775 97.9027 259.313C97.6269 259.845 97.422 260.41 97.2931 260.995C95.4197 260.621 93.6679 259.79 92.1942 258.574C93.5039 256.54 94.5236 254.332 95.224 252.016C95.9422 251.686 96.7191 251.503 97.5091 251.478C98.299 251.453 99.0861 251.585 99.824 251.868L100.212 250.409L99.8055 250.224C98.9372 249.633 98.5493 249.171 97.5517 248.377C97.922 247.702 98.2015 246.982 98.383 246.234V246.326ZM91.2151 243.37C93.527 243.413 95.7655 244.189 97.6071 245.587C97.2763 246.34 97.0286 247.127 96.8682 247.933C95.9826 247.239 94.938 246.775 93.8285 246.585C92.719 246.394 91.5796 246.483 90.5131 246.844C90.9029 245.723 91.139 244.554 91.2151 243.37ZM86.9846 244.811C88.0087 244.014 89.2395 243.527 90.5316 243.407C89.9583 244.649 89.6022 245.98 89.4785 247.342C88.9281 247.672 88.4776 248.146 88.175 248.712C87.8725 249.278 87.7292 249.916 87.7605 250.557C86.4661 250.628 85.1708 250.433 83.9548 249.984C84.2296 247.932 85.3056 246.072 86.9476 244.811H86.9846ZM59.3844 241.726C56.0591 240.285 48.6695 244.553 47.3209 246.844C47.1258 247.349 47.1258 247.909 47.3209 248.414C48.4847 252.829 59.3474 268.421 61.3611 270.841C61.7121 271.285 62.1924 270.675 61.8784 270.158C60.9177 268.569 61.0286 271.765 65.9427 255.859C66.3979 255.681 66.8219 255.431 67.1989 255.12C67.3703 254.93 67.4651 254.683 67.4651 254.427C67.4651 254.171 67.3703 253.924 67.1989 253.734C67.0312 253.527 66.8389 253.341 66.6262 253.18L67.7901 248.876L72.4086 251.425C71.4746 253.76 70.7933 256.187 70.3764 258.667C68.5138 259.338 66.7683 260.298 65.2037 261.512C64.1137 262.713 65.8318 264.93 66.9033 266.26C67.9748 267.59 68.88 268.495 69.0832 268.698C69.2865 268.901 69.9331 268.698 69.8776 268.366C69.7603 268.098 69.6047 267.849 69.4158 267.627C68.4147 266.069 67.5554 264.424 66.8479 262.713C68.2837 261.854 69.7995 261.136 71.374 260.57C71.9467 260.366 73.7202 259.812 74.2005 260.108C76.5706 261.356 79.0428 262.401 81.5901 263.23C81.693 263.279 81.8112 263.285 81.9186 263.247C82.026 263.209 82.1138 263.13 82.1628 263.027C82.2118 262.924 82.218 262.806 82.1798 262.698C82.1417 262.591 82.0625 262.503 81.9596 262.454L78.7636 260.514C79.444 258.972 79.8803 257.332 80.0568 255.656L87.9452 259.923C88.4255 260.2 88.795 259.443 88.444 259.24C88.093 259.036 64.1507 243.814 59.3844 241.726ZM56.5763 243.684C57.221 243.491 57.9084 243.491 58.5531 243.684C58.978 243.869 60.0125 244.423 61.4165 245.199C60.9429 246.507 60.6206 247.864 60.4559 249.245C59.2181 248.543 58.4792 248.007 57.5 248.174C56.9664 248.293 56.4671 248.533 56.0406 248.876C56.2253 247.435 56.3916 246.326 56.5763 243.684ZM49.1867 247.749C51.1027 245.922 53.4272 244.579 55.9667 243.832C54.9808 248.19 54.2895 252.609 53.8976 257.06C52.0347 254.109 50.4632 250.985 49.2052 247.73L49.1867 247.749ZM57.5739 263.285C56.5579 261.604 55.4494 259.738 54.3964 257.909C55.0245 255.268 55.2277 254.048 55.6157 251.554C56.6265 253.308 57.7952 254.965 59.1073 256.505C58.3625 258.705 57.8546 260.978 57.5924 263.285H57.5739ZM60.8069 268.606C60.1418 267.553 59.292 266.13 58.1836 264.301C58.8849 261.984 59.3491 259.601 59.5691 257.189C59.9756 258.168 63.5965 256.764 64.5756 256.395C63.8551 258.667 61.3426 266.574 60.8254 268.606H60.8069ZM60.2527 256.616C59.1078 254.635 58.0957 252.58 57.2229 250.464L57.7956 250.15C58.0543 250.298 64.3724 254.03 64.8342 254.325C63.3944 255.241 61.8656 256.009 60.2711 256.616H60.2527ZM65.7949 252.552C64.4093 251.628 62.525 250.501 61.084 249.67C61.577 248.362 61.8999 246.996 62.0446 245.606L67.2913 248.562C67.1989 249.264 66.5708 250.705 65.9057 252.552H65.7949ZM78.0247 259.942L75.1797 258.223C73.9155 257.724 72.5089 257.724 71.2447 258.223C71.9607 256.064 72.4801 253.844 72.7965 251.591L79.4841 255.286C78.8009 256.793 78.3463 258.393 78.1355 260.034L78.0247 259.942Z" fill="#2C383F"/>
<path d="M354.193 266.518C351.2 238.659 325.41 195.818 310.003 172.412C318.606 173.1 327.24 173.316 335.866 173.058C338.323 173.058 344.752 172.615 345.99 172.375C346.711 172.227 346.822 171.543 345.732 171.506C344.642 171.469 336.883 171.1 335.83 171.081H317.041C314.16 171.192 309.652 171.451 309.393 171.451C303.851 163.008 299.99 157.725 299.953 157.706C299.911 157.663 299.859 157.63 299.803 157.608C299.746 157.586 299.686 157.577 299.626 157.581C299.565 157.584 299.506 157.601 299.453 157.629C299.399 157.657 299.352 157.696 299.315 157.744C299.278 157.792 299.252 157.847 299.237 157.906C299.223 157.964 299.222 158.025 299.233 158.085C299.245 158.144 299.269 158.201 299.304 158.25C299.339 158.299 299.384 158.341 299.436 158.371C300.286 159.055 337.621 213.609 349.038 251.185C353.565 266.093 356.243 284.807 341.649 289.98C306.992 302.358 35.553 306.385 9.89258 291.827C6.3271 289.814 5.49577 285.62 6.19778 279.967C7.28775 272.116 11.5183 261.493 16.6171 249.596C22.3625 255.138 70.0255 298.903 77.7476 297.259C85.4697 295.615 128.902 275.441 130.694 271.58C131.735 268.898 132.286 266.051 132.32 263.174C132.539 262.873 132.64 262.503 132.606 262.133C132.572 261.762 132.405 261.417 132.135 261.161C129.272 258.316 72.4641 213.276 68.8062 213.405C66.2568 213.516 61.6383 216.139 59.4399 217.433C58.7271 216.266 57.6659 215.354 56.4062 214.823C55.1465 214.293 53.752 214.172 52.4198 214.477C51.1636 214.984 50.0388 215.77 49.13 216.775C48.2213 217.779 47.5522 218.977 47.1731 220.278C47.1938 220.378 47.2483 220.467 47.3274 220.532C47.4065 220.596 47.5053 220.631 47.6073 220.631C47.7092 220.631 47.8081 220.596 47.8872 220.532C47.9662 220.467 48.0207 220.378 48.0414 220.278C49.1526 218.399 50.9141 216.992 52.9924 216.324C53.8566 216.192 54.7407 216.307 55.5419 216.657C56.3432 217.007 57.0286 217.577 57.5186 218.301L36.9755 227.076C35.8847 225.955 34.523 225.134 33.022 224.693C29.512 223.769 27.1473 226.079 25.7433 229.459C25.7124 229.557 25.7159 229.661 25.7534 229.756C25.7908 229.851 25.8599 229.93 25.9489 229.98C26.0379 230.03 26.1414 230.048 26.2419 230.03C26.3424 230.013 26.4338 229.961 26.5007 229.884C28.8654 226.466 31.5995 225.303 34.8694 228.037C30.916 229.792 25.3923 232.286 21.5127 234.207C21.7898 233.764 61.6568 161.567 61.6568 161.383C63.4118 158.131 66.9403 152.312 70.5797 151.554C72.2247 151.196 73.9026 151.01 75.5862 151C73.0183 155.249 52.1796 189.796 52.1426 194.673C52.1426 200.215 53.1033 199.347 56.0591 200.215C59.015 201.083 224.413 200.067 224.708 200.067C227.572 200.067 238.767 199.698 239.802 198.94C243.016 196.576 242.296 193.047 240.892 189.334C240.559 188.447 238.878 184.771 236.624 179.857C246.323 176.938 253.62 180.651 254.285 196.483C254.95 210.172 249.556 214.348 239.229 213.756C230.934 213.276 225.207 210.837 223.397 214.07C221.365 217.673 226.981 225.764 229.419 229.127C229.068 229.127 213.605 228.813 209.707 228.646C204.215 228.434 198.715 228.501 193.229 228.85C189.451 228.933 185.695 229.447 182.033 230.383C180.648 231.066 178.856 234.632 178.098 236.128C176.602 239.066 169.785 257.503 167.901 262.823C166.792 265.89 163.042 276.051 165.555 277.843C165.462 279.819 165.776 282.461 167.513 283.385C169.249 284.309 193.118 284.974 194.947 285.011C198.18 285.103 230.86 285.528 251.717 284.604C272.575 283.68 281.682 281.685 281.146 281.741C281.676 281.585 282.152 281.284 282.521 280.873C282.889 280.462 283.136 279.956 283.234 279.413C283.519 278.048 283.43 276.631 282.975 275.312C285.303 270.786 267.697 233.209 262.82 230.568C262.532 230.405 262.209 230.317 261.878 230.309C260.899 230.309 238.989 229.385 230.472 229.108C228.625 226.503 222.621 216.694 224.93 214.606C228.44 211.539 257.758 226.91 256.188 196.317C255.375 182.48 249.002 174.37 236.07 179.062C234.943 176.624 225.484 156.413 222.953 151.037C232.758 151.624 242.594 151.407 252.364 150.39C252.504 152.115 253 153.791 253.821 155.314C254.641 156.837 255.768 158.174 257.13 159.24C264.52 164.782 293.93 163.95 299.269 157.17C300.766 155.124 301.8 152.778 302.3 150.293C302.801 147.809 302.757 145.245 302.17 142.779C302.661 142.466 303.042 142.008 303.26 141.468C303.555 140.895 303.26 140.174 301.985 139.916C300.341 139.669 298.678 139.57 297.016 139.62C297.016 138.105 297.108 135.279 297.016 132.064C297.182 131.953 298.383 130.512 298.512 130.346C299.984 128.626 301.147 126.663 301.948 124.545C302.558 122.827 302.798 120.851 301.191 119.89C298.715 118.541 296.979 121.017 296.147 123.788C295.371 119.52 293.579 113.258 289.293 113.886C282.015 114.994 287.04 132.637 289.404 139.62C287.327 139.328 285.219 139.328 283.142 139.62C285.451 133.819 286.633 126.319 280.703 125.192C279.804 124.993 278.866 125.062 278.006 125.391C277.146 125.719 276.401 126.292 275.863 127.039C275.744 126.621 275.521 126.24 275.215 125.932C274.909 125.623 274.53 125.397 274.112 125.275C273.695 125.154 273.254 125.14 272.83 125.235C272.406 125.33 272.013 125.532 271.688 125.82C268.972 127.778 270.524 132.267 273.683 133.745C273.517 135.645 273.517 137.555 273.683 139.454C271.716 139.216 269.726 139.26 267.771 139.583C267.662 135.072 267.167 130.579 266.293 126.153C267.416 125.354 268.36 124.331 269.066 123.147C269.772 121.964 270.225 120.647 270.395 119.28C270.653 116.823 269.785 114.773 267.734 114.237C265.166 113.572 263.652 115.364 263.208 117.932C260.936 114.791 256.484 113.664 254.322 117.267C247.394 110.062 244.051 114.089 245.806 117.267C247.117 119.705 250.535 121.072 253.195 121.83C253.195 125.968 255.043 129.459 257.333 133.025C258.867 135.427 260.585 137.736 261.915 139.435C259.04 139.343 256.164 139.529 253.325 139.99C251.588 140.451 251.311 141.708 252.918 142.613C252.41 144.778 252.223 147.007 252.364 149.227C242.44 148.699 232.49 148.933 222.602 149.929C221.974 148.58 220.108 144.645 219.887 144.183C219.665 143.721 221.438 138.364 223.932 88.558C235.386 87.5973 286.892 88.7427 291.621 86.9138C291.892 86.8164 292.133 86.6488 292.318 86.4281C292.503 86.2074 292.626 85.9415 292.674 85.6576C294.245 80.5033 295.316 36.2026 292.674 32.0829C292.028 31.0668 289.718 30.7528 288.444 30.5681C271.983 28.1664 203.297 29.201 199.768 31.0668C196.24 32.9327 197.736 51.1481 198.401 54.769C162.728 53.6236 80.3524 55.859 72.5934 58.7594C70.746 59.4245 70.0624 61.9554 69.6929 63.8582C66.6263 79.6904 75.2352 130.642 78.1171 146.382C77.9324 146.382 78.1171 146.382 75.8633 149.892C73.9556 149.75 72.0377 149.85 70.1548 150.187C65.9427 150.834 62.0632 156.653 59.9202 160.274C59.8278 160.459 54.378 169.511 53.5651 170.989C48.9282 170.269 27.369 170.546 24.6348 170.693C21.9007 170.841 19.0926 171.044 16.6171 171.229C16.1737 171.229 16.1368 172.079 16.6171 172.097C21.7898 172.411 23.6927 172.522 27.7015 172.578C37.5112 172.726 51.9764 173.132 52.4382 173.077C51.4776 174.758 37.2526 200.067 35.3498 203.651C27.0734 219.169 20.5706 233.376 20.1826 234.577C18.0351 235.553 16.0181 236.794 14.1786 238.271C13.5852 239.899 13.2305 241.604 13.1255 243.333C13.0332 246.308 14.1047 247.028 15.7488 248.691C11.3371 258.144 7.7101 267.943 4.9046 277.99C3.98871 282.055 3.95092 286.269 4.79376 290.35C5.54806 294.429 6.95802 298.359 8.96888 301.988C9.87216 302.906 11.0427 303.513 12.3127 303.725C17.1713 305.092 32.2277 306.847 37.2711 307.42C36.8909 309.677 36.7854 311.972 36.957 314.255C36.962 316.607 37.3042 318.946 37.9731 321.201C37.9791 321.257 37.9961 321.311 38.0231 321.36C38.0501 321.409 38.0864 321.453 38.1302 321.488C38.1739 321.523 38.2242 321.549 38.278 321.565C38.3319 321.581 38.3884 321.586 38.4442 321.58C38.5 321.574 38.554 321.557 38.6033 321.53C38.6525 321.503 38.6959 321.467 38.7311 321.423C38.7663 321.379 38.7925 321.329 38.8082 321.275C38.824 321.221 38.8289 321.165 38.8229 321.109C39.1184 318.806 39.1988 316.48 39.063 314.163C39.0509 311.931 38.7969 309.707 38.3056 307.53C40.855 307.752 43.3121 307.937 45.4551 308.011C45.1143 310.167 45.0213 312.355 45.1779 314.532C45.1842 316.884 45.5263 319.223 46.194 321.478C46.194 321.591 46.2388 321.699 46.3185 321.779C46.3981 321.858 46.5062 321.903 46.6189 321.903C46.7316 321.903 46.8397 321.858 46.9194 321.779C46.9991 321.699 47.0438 321.591 47.0438 321.478C47.3493 319.176 47.4359 316.85 47.3025 314.532C47.2898 312.375 47.042 310.225 46.5635 308.122C50.6832 308.214 111.315 313.664 216.026 311.595C244.088 311.04 277.821 309.747 305.606 306.699C305.239 308.927 305.134 311.19 305.292 313.442C305.301 315.789 305.649 318.123 306.327 320.37C306.313 320.432 306.314 320.496 306.329 320.557C306.344 320.619 306.372 320.676 306.412 320.725C306.452 320.775 306.502 320.814 306.559 320.841C306.616 320.869 306.679 320.883 306.742 320.883C306.805 320.883 306.868 320.869 306.925 320.841C306.982 320.814 307.033 320.775 307.072 320.725C307.112 320.676 307.141 320.619 307.155 320.557C307.17 320.496 307.171 320.432 307.158 320.37C307.481 318.069 307.567 315.742 307.417 313.424C307.396 311.142 307.13 308.868 306.622 306.644C308.673 306.422 313.421 305.831 313.827 305.775C313.463 307.991 313.364 310.242 313.531 312.481C313.533 314.834 313.875 317.174 314.547 319.428C314.56 319.54 314.616 319.644 314.705 319.715C314.793 319.786 314.906 319.819 315.019 319.806C315.131 319.794 315.234 319.738 315.305 319.649C315.376 319.561 315.41 319.448 315.397 319.335C315.701 317.039 315.782 314.719 315.637 312.408C315.626 310.131 315.359 307.863 314.843 305.646C323.175 304.519 348.65 301.083 352.124 293.97C356.225 285.86 355.892 275.312 354.193 266.518ZM186.079 236.775C186.282 236.276 192.471 234.928 199.233 236.775C199.295 236.762 199.359 236.763 199.42 236.778C199.482 236.792 199.539 236.821 199.588 236.861C199.637 236.9 199.677 236.951 199.704 237.008C199.732 237.065 199.746 237.127 199.746 237.191C199.746 237.254 199.732 237.316 199.704 237.373C199.677 237.431 199.637 237.481 199.588 237.521C199.539 237.561 199.482 237.589 199.42 237.604C199.359 237.619 199.295 237.619 199.233 237.606C195.866 238.204 192.428 238.292 189.035 237.865C187.446 237.606 185.433 237.588 186.024 236.775H186.079ZM281.054 280.706C263.966 283.958 169.563 283.219 168.141 282.554C166.718 281.888 166.589 279.746 166.552 278.341C176.787 281.667 276.787 279.099 282.347 276.162C282.643 277.787 282.717 280.392 280.999 280.706H281.054ZM245.196 236.978C245.196 236.35 249.26 235.999 249.445 235.981C251.862 235.795 254.289 235.795 256.705 235.981C258.054 236.128 259.92 236.313 259.772 236.886C259.624 237.459 256.835 237.699 256.354 237.773C254.549 237.939 252.736 238.013 250.923 237.994C249.704 237.957 245.067 237.736 245.141 236.978H245.196ZM268.935 243.13C273.557 251.937 277.438 261.113 280.537 270.564C280.931 271.758 281.149 273.002 281.183 274.259C272.852 276.845 176.824 279.505 167.106 276.716C166.645 276.586 166.515 276.716 166.404 275.94C165.702 270.915 173.923 250.945 175.826 246.289C210.779 245.125 268.566 243.333 268.88 243.13H268.935ZM253.38 120.998C251.359 119.889 249.526 118.467 247.949 116.786C247.228 115.696 247.394 114.939 249.519 115.973C250.849 116.583 252.715 117.673 253.971 118.43C253.648 119.253 253.449 120.118 253.38 120.998ZM297.718 124.305C299.196 121.645 300.655 120.887 300.507 122.458C299.713 125.268 298.584 127.972 297.145 130.512C297.034 128.665 296.905 127.427 296.757 126.208C296.831 125.949 297.2 125.173 297.662 124.305H297.718ZM289.866 140.378C290.236 141.431 290.476 142.059 290.494 142.096C290.515 142.148 290.545 142.196 290.584 142.236C290.623 142.277 290.67 142.309 290.721 142.331C290.773 142.354 290.828 142.366 290.884 142.366C290.941 142.367 290.996 142.357 291.049 142.336C291.861 142.022 290.661 141.264 288.739 130.124C288.167 126.799 286.467 116.546 289.829 116.066C292.563 115.659 294.041 122.439 294.559 125.118C295.517 130.281 296.134 135.502 296.406 140.747C296.405 140.849 296.44 140.949 296.506 141.027C296.572 141.105 296.664 141.157 296.766 141.172C296.867 141.188 296.97 141.167 297.057 141.112C297.143 141.058 297.208 140.974 297.237 140.876C297.243 140.772 297.243 140.667 297.237 140.562C298.907 140.612 300.567 140.841 302.188 141.246C301.982 141.487 301.723 141.676 301.431 141.8C297.551 143.795 285.82 143.407 281.775 143.333C282.329 142.225 282.717 141.375 283.142 140.359C285.349 140.722 287.601 140.728 289.811 140.378H289.866ZM275.456 136.332C275.881 132.637 276.824 126.744 280.555 127.446C284.287 128.148 283.345 133.561 282.532 137.182C282.031 139.259 281.414 141.306 280.685 143.315H275.142C275.098 140.984 275.184 138.653 275.401 136.332H275.456ZM273.11 127.649C273.196 127.567 273.298 127.504 273.41 127.464C273.522 127.424 273.641 127.408 273.759 127.417C273.877 127.425 273.992 127.459 274.097 127.515C274.202 127.571 274.293 127.648 274.366 127.741C274.661 128.036 274.927 128.358 275.161 128.702C274.636 129.88 274.27 131.122 274.071 132.397C273.11 131.067 271.872 128.647 273.11 127.649ZM267.291 116.417C269.693 117.174 267.808 123.492 266.201 125.414C265.757 123.425 265.094 121.492 264.224 119.65C264.76 118.024 265.665 115.9 267.291 116.398V116.417ZM262.746 140.581C263.652 141.726 264.243 142.428 264.243 142.428C264.316 142.501 264.413 142.544 264.516 142.55C264.619 142.556 264.721 142.524 264.802 142.461C264.883 142.398 264.939 142.307 264.959 142.206C264.978 142.105 264.96 142 264.908 141.911C264.908 141.911 261.638 137.255 258.941 132.434C256.909 128.739 254.969 125.044 255.505 120.961C255.929 117.747 257.629 116.38 260.493 118.246C264.631 120.906 266.515 137.311 267.106 142.262C267.112 142.391 267.158 142.516 267.237 142.619C267.316 142.721 267.426 142.797 267.55 142.835C268.048 142.835 267.974 142.299 267.956 142.04C267.938 141.782 267.956 140.488 267.956 140.359C269.919 140.607 271.905 140.607 273.868 140.359C273.979 141.708 274.108 142.761 274.2 143.315C267.642 143.315 259.717 143.758 254.285 141.634C257.077 141.081 259.904 140.73 262.746 140.581ZM253.897 143.296C256.599 144.344 259.447 144.967 262.34 145.144C265.61 145.439 287.871 145.476 290.402 145.347C294.218 145.284 297.997 144.579 301.579 143.26C301.922 145.528 301.793 147.843 301.198 150.059C300.604 152.275 299.557 154.344 298.124 156.136C293.635 161.401 265.24 162.602 258.423 157.799C253.934 154.713 253.121 148.543 253.897 143.278V143.296ZM239.007 197.536C239.395 198.774 63.2455 198.829 63.0608 198.811C55.6712 198.811 57.5186 198.811 55.0431 198.201C54.378 198.053 54.2487 198.053 54.1194 197.407C53.9627 196.393 53.9193 195.364 53.99 194.34C54.0288 194.416 54.0913 194.477 54.1681 194.514C54.2449 194.55 54.3316 194.561 54.4149 194.543C54.4149 194.543 238.952 192.031 240.153 191.994C240.651 194.155 240.725 196.169 239.007 197.536ZM290.975 85.4174C290.975 85.4174 291.085 85.2326 291.122 85.2881C291.159 85.3435 290.975 85.3989 290.882 85.4174H290.975ZM199.103 38.8259C199.103 37.6251 199.584 33.0805 200.655 32.5263C203.094 31.307 280.592 30.2725 291.178 33.5793C293.025 37.4589 292.434 81.039 290.882 85.4174C281.793 86.8399 236.051 86.729 224.154 87.9483C224.875 73.4093 225.189 61.161 224.598 58.7779C224.484 58.4671 224.299 58.1869 224.059 57.9593C223.818 57.7318 223.529 57.563 223.212 57.4662C219.166 55.7112 203.944 55.2124 199.51 55.0646C198.934 49.6717 198.799 44.2409 199.103 38.8259ZM71.3556 85.3435C71.0785 81.4639 69.7114 61.8815 73.4062 60.5144C75.2536 59.8678 81.7565 59.2212 91.1967 58.667C109.283 57.5401 137.788 56.6349 163.726 56.4501C169.49 56.4501 218.187 56.0252 222.953 59.2951C224.357 65.6871 219.868 136.701 218.871 143.555C175.216 144.978 123.489 147.121 79.4657 146.049C78.7267 141.819 73.0737 109.175 71.3556 85.3435ZM78.893 147.287C78.8965 147.244 78.8965 147.201 78.893 147.158C110.022 148.118 207.435 144.922 219.295 144.848C220.607 147.896 239.026 188.761 239.802 191.033C239.598 191.033 54.2672 193.546 54.027 193.731C56.3547 185.934 75.6046 152.977 78.893 147.287ZM129.678 271.063C128.311 273.723 86.8923 292.234 78.3757 294.802C78.5409 293.95 78.6029 293.082 78.5605 292.215C91.1413 287.856 118.446 276.346 130.694 268.199C130.461 269.194 130.12 270.16 129.678 271.081V271.063ZM130.953 266.98C127.258 269.16 123.729 270.675 78.542 291.218C78.5437 290.381 78.4319 289.549 78.2095 288.742C84.1211 285.971 124.21 270.435 131.359 264.246C131.267 265.04 131.138 266.001 130.953 266.998V266.98ZM35.7931 229.071C36.6815 230.118 37.2313 231.409 37.3698 232.775C37.5084 234.14 37.2292 235.516 36.5691 236.72C36.2735 237.181 36.9755 237.662 37.2711 237.181C38.3864 235.966 39.0457 234.401 39.1366 232.754C39.2276 231.106 38.7445 229.479 37.7699 228.148C46.7482 224.028 55.5788 220.148 57.9989 219.095C58.6044 220.325 58.9284 221.675 58.9476 223.046C58.9668 224.416 58.6806 225.774 58.1098 227.021C57.8881 227.612 58.5531 227.834 58.8672 227.446C59.8832 226.155 60.5156 224.604 60.692 222.97C60.8684 221.337 60.5817 219.687 59.8648 218.209C61.86 217.082 66.5154 214.514 68.7877 214.514C71.6327 214.514 129.364 261.475 130.435 262.546C125.614 267.516 80.8512 285.232 77.0826 287.043C69.1387 285.195 20.6629 243.499 16.1183 239.214C18.9448 236.867 32.6156 230.549 35.7931 229.071ZM14.7143 240.063C20.4782 245.698 68.566 287.671 76.6207 289.001C76.4591 289.697 76.3846 290.411 76.399 291.125C63.4672 284.807 26.5192 252.81 14.2894 242.52C14.3448 242.52 14.6219 240.71 14.7697 240.063H14.7143ZM14.9914 246.4C14.4703 245.607 14.2118 244.669 14.2524 243.721C26.3344 255.914 60.4375 285.897 76.3805 292.142C76.3477 293.129 76.4471 294.117 76.6761 295.079C67.199 292.954 16.2476 247.915 15.0468 246.4H14.9914ZM351.218 293.361C339.284 317.045 15.4348 310.856 10.1882 301.619C7.96424 297.753 6.46188 293.515 5.7544 289.112C6.46707 290.673 7.65746 291.967 9.15362 292.807C36.3474 308.639 306.899 304.501 342.222 291.809C349.703 289.112 353.472 283.293 354.322 275.182C354.823 281.41 353.743 287.663 351.181 293.361H351.218Z" fill="#2C383F"/>
<path d="M74.5886 167.72C205.218 169.567 217.688 168.44 221.346 167.867C222.214 167.738 222.769 167.443 222.732 166.427C222.732 163.748 216.451 151.463 214.788 150.613C214.049 150.225 81.775 152.091 81.3132 152.238C81.2271 152.259 81.1464 152.298 81.0764 152.352C81.0064 152.406 80.9485 152.475 80.9067 152.553C79.6505 154.603 73.5171 164.727 73.7943 167.018C73.8243 167.209 73.92 167.384 74.065 167.512C74.21 167.64 74.3952 167.713 74.5886 167.72ZM81.8489 153.513C83.1791 153.347 213.31 152.054 214.104 152.128C215.484 154.112 216.718 156.192 217.799 158.353C214.769 158.353 79.3549 159.074 78.6529 159.092C79.4658 157.467 80.5373 155.619 81.8489 153.513ZM78.1541 159.979C78.8746 159.979 215.896 159.277 218.243 159.222C219.458 161.485 220.419 163.877 221.106 166.353C214.529 167.406 154.6 166.888 75.2537 166.353C75.9951 164.115 76.9541 161.956 78.1172 159.905L78.1541 159.979ZM176.547 174.001C176.178 173.185 175.576 172.497 174.816 172.024C174.057 171.55 173.174 171.312 172.279 171.341C167.587 171.341 128.182 170.251 124.635 171.692C122.37 174.435 120.618 177.564 119.462 180.929C119.351 181.741 119.758 182.111 120.256 182.166C131.341 183.367 168.086 184.513 177.618 182.758C178.801 182.536 178.948 181.28 178.708 180.079C178.136 178.003 177.414 175.972 176.547 174.001ZM120.774 180.929C121.835 177.931 123.275 175.081 125.06 172.449C127.868 171.525 164.391 173.447 172.335 173.428C172.808 173.411 173.275 173.531 173.682 173.774C174.088 174.016 174.416 174.371 174.625 174.795C175.523 176.714 176.223 178.72 176.713 180.781C167.347 182.24 127.572 181.409 120.774 180.929ZM304.849 176.366C302.244 172.782 289.183 172.948 284.804 173.077C281.11 173.077 267.679 173.687 267.679 177.308C267.694 177.601 267.78 177.886 267.927 178.14C268.075 178.394 268.281 178.609 268.529 178.767C268.88 179.044 266.46 203.393 269.785 216.454C270.875 220.777 272.279 222.92 276.399 224.712C284.306 228.148 297.422 227.391 302.687 220.057C303.74 217.914 303.519 211.669 303.611 209.767C311.795 211.392 318.501 208.067 320.238 199.255C321.327 193.583 319.923 189.87 317.503 187.616C315.886 186.3 313.975 185.394 311.933 184.976C309.89 184.558 307.777 184.64 305.772 185.215C305.702 185.238 305.628 185.245 305.555 185.234C305.482 185.222 305.413 185.194 305.353 185.151C305.293 185.107 305.245 185.05 305.212 184.984C305.179 184.918 305.162 184.845 305.163 184.771C305.163 183.792 305.514 177.16 304.849 176.366ZM269.748 176.753C274.736 173.835 295.057 173.613 301.616 176.587C301.837 176.698 302.669 177.123 302.669 177.308C302.669 177.492 301.819 177.936 301.616 178.028C296.665 180.264 278.985 181.28 269.693 177.88C269.046 177.529 269.693 176.827 269.693 176.753H269.748ZM306.29 187.099C307.969 186.615 309.74 186.546 311.452 186.896C313.163 187.247 314.764 188.007 316.118 189.113C318.113 190.96 319.111 194.138 318.187 198.848C318.003 200.486 317.436 202.057 316.53 203.434C315.625 204.812 314.408 205.956 312.977 206.774C309.947 208.137 306.536 208.399 303.334 207.513C303.176 207.456 303.009 207.432 302.842 207.442C302.675 207.452 302.512 207.497 302.363 207.573C302.214 207.65 302.082 207.756 301.976 207.885C301.869 208.015 301.791 208.165 301.745 208.326C301.246 209.73 301.948 215.401 300.932 218.985C296.258 225.322 284.306 225.894 277.23 222.92C273.646 221.387 272.648 219.798 271.688 215.974C269.212 206.903 269.065 188.429 269.619 179.34C275.438 182.092 295.593 182.887 303.519 178.823C303.519 184.55 302.817 185.51 304.258 186.674C304.536 186.884 304.858 187.031 305.199 187.105C305.54 187.178 305.894 187.176 306.234 187.099H306.29ZM126.833 226.245C121.981 222.13 116.762 218.469 111.241 215.309C109.114 214.054 106.852 213.044 104.498 212.297C102.521 211.78 101.69 212.796 102.096 214.145C102.929 216.081 104.03 217.891 105.366 219.521C109.617 224.902 114.505 229.746 119.924 233.949C128.163 240.84 138.841 249.19 146.637 255.12C147.034 255.41 147.486 255.619 147.964 255.732C148.443 255.846 148.939 255.862 149.425 255.782C149.91 255.701 150.374 255.524 150.79 255.261C151.206 254.998 151.565 254.655 151.847 254.252C153.214 252.756 154.064 250.132 152.53 248.71C150.757 247.121 139.913 236.905 126.833 226.245ZM109.135 222.144L106.604 218.061C107.505 217.687 108.267 217.041 108.784 216.214L112.793 217.84C111.787 218.039 110.878 218.573 110.214 219.355C109.55 220.136 109.17 221.119 109.135 222.144ZM114.807 226.855C113.471 225.731 112.235 224.495 111.112 223.16C111.241 220.925 111.943 219.927 114.178 219.853C115.668 220.565 117.074 221.438 118.372 222.458C117.379 222.7 116.492 223.261 115.848 224.055C115.204 224.85 114.838 225.833 114.807 226.855ZM146.397 253.735C144.347 252.017 117.079 228.887 115.398 227.409C115.539 226.375 115.99 225.408 116.693 224.636C117.396 223.864 118.316 223.324 119.333 223.086C125.706 227.816 134.869 235.649 150.849 248.95C150.227 248.918 149.606 249.023 149.029 249.257C148.452 249.491 147.933 249.849 147.508 250.305C147.084 250.761 146.765 251.304 146.573 251.897C146.381 252.489 146.321 253.117 146.397 253.735ZM292.785 274.204C295.094 275.774 296.702 275.054 298.198 272.874C301.893 267.627 314.825 244.405 314.825 244.221C314.825 244.036 314.972 244.387 314.363 236.923C314.336 236.643 314.235 236.374 314.069 236.146C313.903 235.919 313.679 235.739 313.421 235.628C313.162 235.516 312.878 235.477 312.598 235.513C312.318 235.549 312.054 235.66 311.832 235.833L305.514 240.433C305.514 240.433 291.492 269.419 291.344 269.678C291.091 270.489 291.093 271.358 291.351 272.168C291.608 272.978 292.109 273.689 292.785 274.204ZM312.349 238.087C312.46 239.436 312.608 241.228 312.719 242.466C311.346 241.809 309.91 241.295 308.433 240.932L312.349 238.087ZM307.066 242.188C308.667 243.323 310.516 244.058 312.46 244.331C312.183 244.812 298.069 270.565 297.921 270.823C297.492 269.95 296.787 269.244 295.915 268.813C295.043 268.382 294.053 268.251 293.099 268.44C294.54 265.761 306.548 243.112 307.066 242.188Z" fill="#2C383F"/>
<path d="M298.567 205.554C298.368 205.274 298.115 205.037 297.823 204.856C297.532 204.675 297.207 204.555 296.868 204.501C295.775 204.209 294.664 203.986 293.542 203.836C294.171 208.232 294.54 213.073 294.522 213.497C294.494 213.779 294.355 214.038 294.137 214.217C293.919 214.397 293.639 214.484 293.358 214.458C293.075 214.426 292.816 214.284 292.637 214.063C292.457 213.842 292.371 213.559 292.397 213.276C292.397 212.962 292.286 211.687 292.194 203.651C288.499 203.189 270.709 201.803 271.411 205.35C271.411 205.535 269.951 214.587 275.604 218.929C281.257 223.27 292.563 222.42 296.517 218.005C297.639 216.661 298.379 215.041 298.66 213.313C299.096 210.742 299.065 208.113 298.567 205.554ZM303.001 188.835C303.001 189.666 301.893 196.021 301.154 204.556L302.041 204.741C305.291 205.431 308.677 205.062 311.702 203.688C312.758 203.102 313.631 202.237 314.227 201.188C314.824 200.138 315.12 198.945 315.083 197.739C315.208 196.24 314.948 194.733 314.326 193.363C313.704 191.992 312.741 190.804 311.53 189.912C310.318 189.019 308.899 188.451 307.406 188.263C305.913 188.074 304.396 188.271 303.001 188.835ZM303.833 189.463C305.012 189.276 306.217 189.344 307.367 189.663C308.518 189.982 309.587 190.543 310.502 191.31C311.38 192.116 312.06 193.114 312.49 194.226C312.919 195.338 313.086 196.534 312.977 197.721C312.811 202.468 307.934 203.374 303.26 202.893C303.481 199.531 303.666 195.67 303.833 189.463ZM125.023 172.448C125.023 172.448 125.041 172.467 125.023 172.448V172.448ZM284.047 81.0203C284.042 81.3494 284.102 81.6762 284.224 81.9818C284.346 82.2875 284.528 82.566 284.758 82.8012C284.988 83.0365 285.262 83.2239 285.565 83.3526C285.868 83.4814 286.193 83.5489 286.522 83.5513C287.025 83.5623 287.52 83.4233 287.943 83.1519C288.367 82.8806 288.7 82.4893 288.9 82.0279C289.1 81.5665 289.158 81.056 289.067 80.5614C288.975 80.0669 288.739 79.6107 288.387 79.2512C288.035 78.8917 287.585 78.6451 287.092 78.5429C286.6 78.4406 286.088 78.4874 285.622 78.6772C285.157 78.867 284.758 79.1913 284.478 79.6086C284.197 80.026 284.047 80.5174 284.047 81.0203ZM81.8488 141.966C82.2737 142.797 82.8279 142.89 83.1789 142.631C83.53 142.373 200.526 141.356 209.227 140.895C211.098 140.923 212.964 140.687 214.769 140.193C218.926 136.498 220.552 67.4235 218.926 64.2275C214.769 55.9326 84.6753 61.2716 76.6761 63.6917C70.3026 65.613 78.9115 136.073 81.8488 141.966ZM76.3251 66.6845C76.3251 66.352 76.7315 65.0588 77.0456 64.9664C85.8946 62.3062 214.381 57.9278 217.873 64.8741C218.171 66.2639 218.307 67.6835 218.279 69.1046C218.593 77.1593 218.279 94.414 217.448 109.877C217.282 112.833 215.97 137.052 214.049 139.25C206.382 140.876 88.2408 141.246 82.9942 141.449C80.0014 134.503 73.5355 78.8774 76.3251 66.6845ZM286.763 40.2851C287.265 40.2961 287.758 40.1575 288.181 39.887C288.604 39.6165 288.937 39.2263 289.138 38.766C289.339 38.3057 289.398 37.7961 289.308 37.3021C289.218 36.8081 288.983 36.3519 288.634 35.9917C288.284 35.6314 287.835 35.3834 287.344 35.2791C286.852 35.1748 286.341 35.2189 285.875 35.4059C285.409 35.5929 285.01 35.9143 284.727 36.3291C284.444 36.744 284.291 37.2336 284.287 37.7357C284.28 38.0663 284.338 38.3951 284.459 38.7029C284.58 39.0107 284.761 39.2914 284.991 39.5286C285.221 39.7659 285.497 39.9549 285.801 40.0848C286.105 40.2147 286.432 40.2828 286.763 40.2851Z" fill="#2C383F"/>
<path d="M112.479 113.238H134.426C136.966 113.229 139.398 112.212 141.188 110.411C142.979 108.61 143.982 106.172 143.977 103.632V85.823C143.977 83.2778 142.975 80.835 141.188 79.0232C139.4 77.2115 136.971 76.1766 134.426 76.1426H112.479C111.206 76.1377 109.945 76.3848 108.768 76.8695C107.592 77.3543 106.523 78.0671 105.623 78.967C104.723 79.8669 104.01 80.936 103.525 82.1127C103.041 83.2894 102.794 84.5504 102.798 85.823V103.632C102.803 104.898 103.057 106.151 103.547 107.319C104.036 108.488 104.75 109.548 105.649 110.44C106.548 111.332 107.614 112.038 108.786 112.519C109.957 112.999 111.212 113.243 112.479 113.238ZM104.369 85.823C104.402 83.6877 105.269 81.6501 106.785 80.1452C108.3 78.6403 110.343 77.7873 112.479 77.7683H134.426C135.504 77.7561 136.575 77.9577 137.575 78.3614C138.575 78.7651 139.485 79.363 140.253 80.1205C141.021 80.878 141.631 81.7801 142.048 82.7747C142.465 83.7693 142.681 84.8368 142.684 85.9153V103.632C142.679 104.712 142.462 105.78 142.044 106.775C141.626 107.771 141.017 108.674 140.25 109.434C139.483 110.194 138.574 110.796 137.575 111.204C136.575 111.613 135.506 111.821 134.426 111.816H112.479C111.409 111.811 110.35 111.596 109.364 111.182C108.377 110.768 107.482 110.164 106.729 109.404C105.976 108.644 105.38 107.743 104.975 106.752C104.57 105.762 104.364 104.702 104.369 103.632V85.823ZM171.817 126.429C172.187 127.519 173.11 127.279 173.369 126.595C173.72 125.616 175.771 118.577 176.029 117.358C177.452 116.915 173.443 118.3 185.839 113.793C185.968 113.743 186.078 113.655 186.156 113.542C186.234 113.428 186.276 113.293 186.276 113.155C186.276 113.017 186.234 112.883 186.156 112.769C186.078 112.655 185.968 112.568 185.839 112.518L166.848 104.925C166.731 104.87 166.602 104.846 166.473 104.856C166.345 104.867 166.221 104.91 166.115 104.983C166.008 105.056 165.923 105.156 165.866 105.272C165.81 105.388 165.786 105.517 165.795 105.646C165.795 105.646 170.801 123.491 171.817 126.429ZM167.698 106.902L183.696 113.201C181.553 113.996 177.932 115.363 176.196 116.065C175.42 116.361 175.106 116.49 174.921 116.73C174.736 116.97 175.383 115.529 172.667 123.898L167.698 106.902ZM211.296 52.736C211.318 52.8468 211.378 52.9464 211.466 53.0174C211.554 53.0883 211.664 53.1261 211.777 53.124C212.165 53.124 224.117 54.2694 226.556 53.6228C228.126 53.1979 228.403 50.4268 228.551 48.8011C228.736 46.344 228.551 40.3215 227.516 38.2709C226.112 35.4998 215.748 36.4235 212.737 36.9592C211.938 37.0717 211.174 37.3621 210.502 37.809C210.11 38.2633 209.883 38.8357 209.855 39.4347C209.837 43.9084 210.32 48.37 211.296 52.736ZM211.832 39.2315C214.751 38.3263 223.064 37.9753 225.706 39.2315C226.611 41.6331 227.092 49.891 226.002 51.8123C224.283 52.2557 213.79 52.2557 212.035 52.2742C211.98 50.8332 211.13 43.0556 211.832 39.2315ZM236.088 52.6621C236.113 52.7713 236.174 52.869 236.261 52.9393C236.348 53.0097 236.457 53.0487 236.569 53.0501C236.957 53.0501 248.909 54.1955 251.348 53.5489C252.918 53.124 253.195 50.3529 253.362 48.7272C253.528 46.2701 253.362 40.2476 252.309 38.197C250.905 35.4074 240.541 36.3496 237.529 36.8853C236.732 37.0054 235.97 37.2952 235.294 37.7351C234.911 38.1943 234.684 38.7639 234.647 39.3608C234.63 43.8345 235.114 48.296 236.088 52.6621ZM236.624 39.1576C239.543 38.2339 247.856 37.9014 250.498 39.1576C251.403 41.5592 251.884 49.8171 250.794 51.7199C249.076 52.1818 238.582 52.1818 236.827 52.2003C236.772 50.7593 235.922 42.9817 236.624 39.1576ZM262.026 53.475C262.048 53.5858 262.108 53.6854 262.195 53.7564C262.283 53.8273 262.393 53.865 262.506 53.8629C262.894 53.8629 274.847 55.0083 277.285 54.3617C278.856 53.9368 279.133 51.1657 279.281 49.54C279.465 47.083 279.281 41.0604 278.246 39.0098C276.842 36.2387 266.478 37.1624 263.467 37.6982C262.669 37.8154 261.906 38.1054 261.232 38.548C260.84 39.0022 260.612 39.5747 260.585 40.1737C260.567 44.6474 261.05 49.109 262.026 53.475ZM262.562 39.9705C265.481 39.0653 273.794 38.7142 276.436 39.9705C277.341 42.3721 277.821 50.63 276.731 52.5513C275.013 52.9946 264.52 52.9946 262.765 53.0131C262.709 51.5722 261.86 43.7946 262.562 39.9705ZM236.255 81.0751C236.384 81.4446 236.68 81.4816 236.735 81.4631C237.141 81.4631 249.076 82.6085 251.514 81.9619C253.084 81.537 253.362 78.7659 253.528 77.1402C253.694 74.6831 253.528 68.6606 252.493 66.6285C251.071 63.8389 240.707 64.7811 237.714 65.2983C236.91 65.413 236.14 65.7031 235.46 66.1481C235.073 66.6124 234.847 67.189 234.814 67.7923C234.796 72.2599 235.28 76.7153 236.255 81.0751ZM236.809 67.5706C239.728 66.6654 248.023 66.3144 250.664 67.5706C251.57 69.9723 252.05 78.2302 250.96 80.1514C249.242 80.5948 238.767 80.5948 237.012 80.6133C236.938 79.1723 236.088 71.3948 236.809 67.5706ZM279.447 65.871C282.403 61.5112 284.989 57.5762 285.081 57.3915C285.174 57.2067 283.825 55.5441 283.031 56.7264C277.378 65.4277 278.154 64.5963 277.747 64.4485C274.496 63.2662 264.003 63.6726 262.358 65.206C261.25 66.2405 261.675 69.9907 261.804 71.598C260.622 70.9329 259.717 70.4526 259.384 70.3233C258.534 69.9907 258.59 70.8221 259.052 71.1177L261.934 72.9651C262.167 75.3929 262.543 77.8048 263.06 80.1884C263.079 80.3009 263.138 80.4028 263.226 80.4744C263.315 80.5461 263.427 80.5824 263.541 80.5764C263.929 80.5764 275.881 81.7217 278.32 81.0751C281.497 80.1884 280.518 68.5313 279.447 65.871ZM263.596 66.6285C267.942 65.6396 272.445 65.5579 276.824 66.3883L270.413 76.4936C269.766 76.1241 266.312 74.092 263.43 72.4663C263.308 70.5378 263.364 68.6022 263.596 66.6839V66.6285ZM277.766 79.1908C276.029 79.6526 265.554 79.6526 263.799 79.6711C263.799 78.9322 263.522 76.5121 263.393 73.8333L270.413 78.1932C270.59 78.2126 270.77 78.1812 270.93 78.1027C271.09 78.0243 271.225 77.9019 271.318 77.7498C271.91 76.9924 274.884 72.6695 277.914 68.2172C278.486 71.5426 278.671 77.602 277.803 79.1908H277.766ZM204.313 39.6749C204.814 39.6822 205.307 39.5405 205.727 39.2677C206.148 38.9948 206.478 38.6033 206.676 38.1426C206.873 37.6819 206.93 37.1728 206.838 36.68C206.746 36.1872 206.51 35.7327 206.159 35.3744C205.809 35.016 205.359 34.7698 204.869 34.667C204.378 34.5643 203.868 34.6095 203.403 34.7971C202.938 34.9847 202.539 35.3062 202.257 35.7207C201.975 36.1352 201.823 36.6241 201.819 37.1255C201.819 37.7921 202.08 38.4323 202.546 38.9089C203.012 39.3854 203.647 39.6604 204.313 39.6749Z" fill="#2C383F"/>
</svg>
