<svg width="35" height="35" viewBox="0 0 35 35" fill="none" xmlns="http://www.w3.org/2000/svg">
<path d="M11.6667 30.625V10.2083C11.6667 8.85212 11.6667 8.17402 11.8158 7.61767C12.2204 6.10789 13.3996 4.92862 14.9094 4.52407C15.4658 4.375 16.1439 4.375 17.5001 4.375C18.8563 4.375 19.5344 4.375 20.0907 4.52407C21.6005 4.92862 22.7798 6.10789 23.1843 7.61767C23.3334 8.17402 23.3334 8.85212 23.3334 10.2083V30.625M7.58342 30.625H27.4167C29.0502 30.625 29.867 30.625 30.4909 30.3071C31.0397 30.0275 31.4859 29.5813 31.7655 29.0325C32.0834 28.4086 32.0834 27.5918 32.0834 25.9583V14.875C32.0834 13.2415 32.0834 12.4248 31.7655 11.8009C31.4859 11.2521 31.0397 10.8059 30.4909 10.5262C29.867 10.2083 29.0502 10.2083 27.4167 10.2083H7.58341C5.94993 10.2083 5.13318 10.2083 4.50928 10.5262C3.96047 10.8059 3.51428 11.2521 3.23465 11.8009C2.91675 12.4248 2.91675 13.2415 2.91675 14.875V25.9583C2.91675 27.5918 2.91675 28.4086 3.23465 29.0325C3.51428 29.5813 3.96047 30.0275 4.50928 30.3071C5.13318 30.625 5.94993 30.625 7.58342 30.625Z" stroke="white" stroke-width="2" stroke-linecap="round" stroke-linejoin="round"/>
</svg>
