<svg width="30" height="30" viewBox="0 0 30 30" fill="none" xmlns="http://www.w3.org/2000/svg">
<path d="M8.45021 27.5H21.5502C25.0002 27.5 26.3752 25.3875 26.5377 22.8125L27.1877 12.4875C27.3627 9.7875 25.2127 7.5 22.5002 7.5C21.7377 7.5 21.0377 7.0625 20.6877 6.3875L19.7877 4.575C19.2127 3.4375 17.7127 2.5 16.4377 2.5H13.5752C12.2877 2.5 10.7877 3.4375 10.2127 4.575L9.31271 6.3875C8.96271 7.0625 8.26271 7.5 7.50021 7.5C4.78771 7.5 2.63771 9.7875 2.81271 12.4875L3.46271 22.8125C3.61271 25.3875 5.00021 27.5 8.45021 27.5Z" stroke="white" stroke-width="2" stroke-linecap="round" stroke-linejoin="round"/>
<path d="M13.125 10H16.875" stroke="white" stroke-width="2" stroke-linecap="round" stroke-linejoin="round"/>
<path d="M15 22.5C17.2375 22.5 19.0625 20.675 19.0625 18.4375C19.0625 16.2 17.2375 14.375 15 14.375C12.7625 14.375 10.9375 16.2 10.9375 18.4375C10.9375 20.675 12.7625 22.5 15 22.5Z" stroke="white" stroke-width="2" stroke-linecap="round" stroke-linejoin="round"/>
</svg>
