<svg width="40" height="41" viewBox="0 0 40 41" fill="none" xmlns="http://www.w3.org/2000/svg">
<path d="M11.2663 37.1673H28.733C33.333 37.1673 35.1663 34.3507 35.383 30.9173L36.2496 17.1507C36.483 13.5507 33.6163 10.5007 29.9996 10.5007C28.983 10.5007 28.0496 9.91732 27.583 9.01732L26.383 6.60065C25.6163 5.08398 23.6163 3.83398 21.9163 3.83398H18.0996C16.383 3.83398 14.383 5.08398 13.6163 6.60065L12.4163 9.01732C11.9496 9.91732 11.0163 10.5007 9.99963 10.5007C6.38296 10.5007 3.51629 13.5507 3.74963 17.1507L4.61629 30.9173C4.81629 34.3507 6.66629 37.1673 11.2663 37.1673Z" stroke="#2C383F" stroke-width="2" stroke-linecap="round" stroke-linejoin="round"/>
<path d="M17.5 13.834H22.5" stroke="#2C383F" stroke-width="2" stroke-linecap="round" stroke-linejoin="round"/>
<path d="M19.9997 30.4993C22.983 30.4993 25.4163 28.066 25.4163 25.0827C25.4163 22.0993 22.983 19.666 19.9997 19.666C17.0163 19.666 14.583 22.0993 14.583 25.0827C14.583 28.066 17.0163 30.4993 19.9997 30.4993Z" stroke="#2C383F" stroke-width="2" stroke-linecap="round" stroke-linejoin="round"/>
</svg>
