<svg width="35" height="35" viewBox="0 0 35 35" fill="none" xmlns="http://www.w3.org/2000/svg">
<path d="M24.7917 21.1458V16.7627C24.7917 16.5009 24.7917 16.37 24.7519 16.2545C24.7167 16.1523 24.6591 16.0593 24.5835 15.9821C24.498 15.8947 24.3809 15.8362 24.1468 15.7192L17.5001 12.3958M5.83341 13.8541V23.7804C5.83341 24.3228 5.83341 24.594 5.91802 24.8314C5.99282 25.0413 6.11473 25.2313 6.27438 25.3868C6.45498 25.5626 6.70152 25.6756 7.19455 25.9016L16.5279 30.1794C16.8855 30.3433 17.0643 30.4252 17.2506 30.4576C17.4157 30.4862 17.5845 30.4862 17.7495 30.4576C17.9358 30.4252 18.1146 30.3433 18.4723 30.1794L27.8056 25.9016C28.2986 25.6756 28.5452 25.5626 28.7258 25.3868C28.8854 25.2313 29.0073 25.0413 29.0821 24.8314C29.1667 24.594 29.1667 24.3228 29.1667 23.7804V13.8541M2.91675 12.3958L16.9783 5.36499C17.1696 5.26934 17.2653 5.22151 17.3656 5.20269C17.4545 5.18602 17.5457 5.18602 17.6345 5.20269C17.7349 5.22151 17.8305 5.26934 18.0218 5.36499L32.0834 12.3958L18.0218 19.4266C17.8305 19.5222 17.7349 19.5701 17.6345 19.5889C17.5457 19.6056 17.4545 19.6056 17.3656 19.5889C17.2653 19.5701 17.1696 19.5222 16.9783 19.4266L2.91675 12.3958Z" stroke="white" stroke-width="2" stroke-linecap="round" stroke-linejoin="round"/>
</svg>
