<svg width="15" height="15" viewBox="0 0 15 15" fill="none" xmlns="http://www.w3.org/2000/svg">
<path fill-rule="evenodd" clip-rule="evenodd" d="M9.98121 13.999C11.4135 13.6322 12.913 13.4471 14.3677 13.2776C14.681 13.242 14.9719 13.4404 14.9943 13.7198C15.039 13.9994 14.8151 14.2552 14.5242 14.2907C13.1143 14.4539 11.6598 14.6286 10.2946 14.9818C10.0037 15.0584 9.69023 14.9007 9.60071 14.6294C9.5112 14.3583 9.69027 14.0758 9.98121 13.999Z" fill="#03C988"/>
<path fill-rule="evenodd" clip-rule="evenodd" d="M5.63957 8.79838C7.94465 6.65134 10.5407 4.78066 12.801 2.57602C13.0024 2.37011 13.3605 2.35908 13.5843 2.5513C13.8081 2.74372 13.8304 3.06727 13.6066 3.27318C11.3462 5.48416 8.75022 7.36096 6.44514 9.51434C6.22135 9.71534 5.86336 9.71819 5.63957 9.52046C5.43815 9.32294 5.41577 8.99938 5.63957 8.79838Z" fill="#03C988"/>
<path fill-rule="evenodd" clip-rule="evenodd" d="M1.31987 0.538398C1.25274 1.76727 1.18573 2.99613 1.11859 4.2252C1.11859 4.50668 0.849906 4.72402 0.536594 4.71034C0.223282 4.69645 -0.000381351 4.45684 -0.000381351 4.17516C0.066757 2.94425 0.133764 1.71354 0.200902 0.482837C0.223282 0.201357 0.491879 -0.0145526 0.805191 0.000767395C1.09612 0.0160874 1.34225 0.257123 1.31987 0.538398Z" fill="#03C988"/>
</svg>
