<svg width="552" height="864" viewBox="0 0 552 864" fill="none" xmlns="http://www.w3.org/2000/svg">
<path d="M113.733 298.55C113.733 241.683 199.033 113.733 326.983 113.733C454.933 113.733 483.367 170.6 526.017 241.683C549.102 280.159 540.233 398.067 469.15 497.583C444.12 582.169 440.717 653.967 440.717 653.967H213.25C213.25 653.967 199.033 483.367 184.817 483.367C170.6 483.367 113.733 355.417 113.733 298.55Z" fill="#03C988"/>
<path d="M419.305 665.918C413.691 661.142 406.428 658.262 398.496 658.262H255.471C247.537 658.262 240.273 661.143 234.658 665.921M419.305 665.918C426.287 671.858 430.72 680.731 430.72 690.644V710.059M419.305 665.918C445.506 638.333 463.067 593.13 463.067 523.336C463.067 454.599 540.233 407.77 540.233 328.036C540.233 209.68 444.758 113.733 326.983 113.733C209.209 113.733 113.733 209.68 113.733 328.036C113.733 407.77 190.899 452.043 190.899 523.336C190.899 593.133 208.459 638.337 234.658 665.921M234.658 665.921C227.678 671.861 223.247 680.733 223.247 690.644V741.264M430.72 710.059H293.319M430.72 710.059V772.441M223.247 741.264V791.884C223.247 801.341 228.23 809.83 235.798 813.268L319.815 851.43C324.425 853.523 329.542 853.523 334.151 851.43L418.168 813.268C425.737 809.83 430.72 801.341 430.72 791.884V772.441M223.247 741.264H268.489M430.72 772.441H328.496" stroke="#03C988" stroke-width="22" stroke-linecap="round" stroke-linejoin="round"/>
<path fill-rule="evenodd" clip-rule="evenodd" d="M57.0804 159.203C40.7906 155.031 23.7357 152.926 7.1913 150.998C3.6279 150.593 0.319522 152.849 0.0649929 156.027C-0.444064 159.208 2.10271 162.116 5.41159 162.521C21.4469 164.377 37.9898 166.363 53.516 170.38C56.8249 171.251 60.3898 169.458 61.4079 166.372C62.426 163.29 60.3893 160.077 57.0804 159.203Z" fill="#03C988"/>
<path fill-rule="evenodd" clip-rule="evenodd" d="M106.457 100.048C80.2404 75.6287 50.7151 54.3529 25.0077 29.2787C22.7169 26.9369 18.6445 26.8115 16.0992 28.9976C13.5539 31.186 13.3004 34.866 15.8457 37.2077C41.553 62.354 71.0784 83.6995 97.2948 108.191C99.8401 110.477 103.912 110.509 106.457 108.26C108.748 106.014 109.002 102.334 106.457 100.048Z" fill="#03C988"/>
<path fill-rule="evenodd" clip-rule="evenodd" d="M155.584 6.12338C156.348 20.0997 157.11 34.076 157.874 48.0547C157.874 51.256 160.929 53.7279 164.493 53.5722C168.056 53.4143 170.6 50.6892 170.6 47.4855C169.836 33.4859 169.074 19.4887 168.311 5.49146C168.056 2.2901 165.001 -0.165512 161.438 0.00872784C158.129 0.182967 155.33 2.92434 155.584 6.12338Z" fill="#03C988"/>
</svg>
