<svg width="552" height="864" viewBox="0 0 552 864" fill="none" xmlns="http://www.w3.org/2000/svg">
<path d="M114.117 298.55C114.117 241.683 199.417 113.733 327.367 113.733C455.317 113.733 483.75 170.6 526.4 241.683C549.486 280.159 540.617 398.067 469.533 497.583C444.504 582.169 441.1 653.967 441.1 653.967H213.633C213.633 653.967 199.417 483.367 185.2 483.367C170.983 483.367 114.117 355.417 114.117 298.55Z" fill="#C8D6DF"/>
<path d="M419.688 665.918C414.074 661.142 406.811 658.262 398.879 658.262H255.854C247.92 658.262 240.656 661.143 235.041 665.921M419.688 665.918C426.67 671.858 431.103 680.731 431.103 690.644V710.059M419.688 665.918C445.889 638.333 463.45 593.13 463.45 523.336C463.45 454.599 540.617 407.77 540.617 328.036C540.617 209.68 445.141 113.733 327.367 113.733C209.592 113.733 114.117 209.68 114.117 328.036C114.117 407.77 191.283 452.043 191.283 523.336C191.283 593.133 208.842 638.337 235.041 665.921M235.041 665.921C228.061 671.861 223.63 680.733 223.63 690.644V741.264M431.103 710.059H293.703M431.103 710.059V772.441M223.63 741.264V791.884C223.63 801.341 228.613 809.83 236.182 813.268L320.198 851.43C324.808 853.523 329.925 853.523 334.535 851.43L418.551 813.268C426.12 809.83 431.103 801.341 431.103 791.884V772.441M223.63 741.264H268.872M431.103 772.441H328.879" stroke="#C8D6DF" stroke-width="22" stroke-linecap="round" stroke-linejoin="round"/>
<path fill-rule="evenodd" clip-rule="evenodd" d="M57.4637 159.203C41.1739 155.031 24.119 152.926 7.5746 150.998C4.0112 150.593 0.702822 152.849 0.448294 156.027C-0.0607636 159.208 2.48601 162.116 5.79489 162.521C21.8302 164.377 38.3731 166.363 53.8993 170.38C57.2082 171.251 60.7731 169.458 61.7912 166.372C62.8093 163.29 60.7726 160.077 57.4637 159.203Z" fill="#C8D6DF"/>
<path fill-rule="evenodd" clip-rule="evenodd" d="M106.84 100.048C80.6237 75.6287 51.0984 54.3529 25.391 29.2787C23.1002 26.9369 19.0278 26.8115 16.4825 28.9976C13.9372 31.186 13.6837 34.866 16.2289 37.2077C41.9363 62.354 71.4617 83.6995 97.6781 108.191C100.223 110.477 104.295 110.509 106.84 108.26C109.131 106.014 109.385 102.334 106.84 100.048Z" fill="#C8D6DF"/>
<path fill-rule="evenodd" clip-rule="evenodd" d="M155.968 6.12338C156.731 20.0997 157.493 34.076 158.257 48.0547C158.257 51.256 161.313 53.7279 164.876 53.5722C168.44 53.4143 170.983 50.6892 170.983 47.4855C170.22 33.4859 169.458 19.4887 168.694 5.49146C168.44 2.2901 165.385 -0.165512 161.821 0.00872784C158.512 0.182967 155.713 2.92434 155.968 6.12338Z" fill="#C8D6DF"/>
</svg>
