<svg width="30" height="30" viewBox="0 0 30 30" fill="none" xmlns="http://www.w3.org/2000/svg">
<path d="M20 7.875V7.5C20 4.7375 17.7625 2.5 15 2.5C12.2375 2.5 10 4.7375 10 7.5V13.75" stroke="white" stroke-width="1.5" stroke-linecap="round" stroke-linejoin="round"/>
<path d="M11.2998 17.7375C12.2123 18.75 13.5373 19.375 14.9998 19.375C17.7623 19.375 19.9998 17.1375 19.9998 14.375V13.75" stroke="white" stroke-width="1.5" stroke-linecap="round" stroke-linejoin="round"/>
<path d="M8.47461 21.1875C10.1871 22.775 12.4746 23.75 14.9996 23.75C20.2746 23.75 24.5621 19.4625 24.5621 14.1875V12.0625" stroke="white" stroke-width="1.5" stroke-linecap="round" stroke-linejoin="round"/>
<path d="M5.4375 12.0625V14.1875C5.4375 15.5125 5.7 16.7625 6.1875 17.9125" stroke="white" stroke-width="1.5" stroke-linecap="round" stroke-linejoin="round"/>
<path d="M25.0871 3.5498L4.91211 23.7373" stroke="white" stroke-width="1.5" stroke-linecap="round" stroke-linejoin="round"/>
<path d="M13.75 3.75V7.5" stroke="white" stroke-width="1.5" stroke-linecap="round" stroke-linejoin="round"/>
<path d="M15 23.75V27.5" stroke="white" stroke-width="1.5" stroke-linecap="round" stroke-linejoin="round"/>
</svg>
