<svg width="33" height="35" viewBox="0 0 33 35" fill="none" xmlns="http://www.w3.org/2000/svg">
<g clip-path="url(#clip0_1245_2351)">
<path d="M25.7035 27.3109C25.0679 27.3132 24.4381 27.1909 23.8505 26.9511C23.2629 26.7114 22.7292 26.3589 22.2803 25.914L17.3355 21.0223C17.1606 20.8569 16.9279 20.7646 16.6859 20.7646C16.4439 20.7646 16.2113 20.8569 16.0364 21.0223L11.0749 25.9274C10.6262 26.373 10.0927 26.7262 9.50509 26.9666C8.91753 27.2071 8.28758 27.3301 7.65166 27.3285H6.68359L12.9494 33.5232C13.8892 34.4503 15.1625 34.9709 16.4901 34.9709C17.8177 34.9709 19.0911 34.4503 20.0308 33.5232L26.3092 27.315L25.7035 27.3109Z" fill="#03C988"/>
<path d="M7.65271 10.0237C8.28864 10.022 8.9186 10.1449 9.50617 10.3854C10.0937 10.6259 10.6273 10.9791 11.0759 11.4247L16.0374 16.3309C16.2099 16.5009 16.4435 16.5963 16.687 16.5963C16.9305 16.5963 17.1641 16.5009 17.3365 16.3309L22.2803 11.4433C22.7286 10.9971 23.262 10.6435 23.8496 10.4028C24.4373 10.1621 25.0674 10.0392 25.7035 10.0412H26.2988L20.0204 3.83413C19.5555 3.37433 19.0035 3.00958 18.396 2.76073C17.7885 2.51187 17.1373 2.38379 16.4797 2.38379C15.8221 2.38379 15.1709 2.51187 14.5634 2.76073C13.9559 3.00958 13.4039 3.37433 12.939 3.83413L6.68359 10.0237H7.65271Z" fill="#03C988"/>
<path d="M31.492 15.1766L27.698 11.4257C27.6124 11.4603 27.521 11.4785 27.4286 11.4794H25.7034C24.8056 11.4816 23.9451 11.8341 23.3088 12.4602L18.3651 17.3447C17.9198 17.7841 17.3165 18.0309 16.6874 18.0309C16.0583 18.0309 15.4549 17.7841 15.0097 17.3447L10.0472 12.4416C9.41107 11.8151 8.55048 11.4623 7.6526 11.4598H5.53475C5.44747 11.4578 5.36121 11.4407 5.27994 11.4092L1.46196 15.1766C0.524213 16.1057 -0.00244141 17.3646 -0.00244141 18.6771C-0.00244141 19.9896 0.524213 21.2485 1.46196 22.1776L5.27158 25.944C5.35268 25.9119 5.43905 25.8947 5.52639 25.8934H7.6526C8.55046 25.8908 9.411 25.5379 10.0472 24.9115L15.0087 20.0064C15.9057 19.1205 17.4691 19.1205 18.3651 20.0064L23.3088 24.893C23.9451 25.5191 24.8056 25.8716 25.7034 25.8738H27.4286C27.521 25.8744 27.6125 25.8926 27.698 25.9275L31.492 22.1766C31.957 21.717 32.326 21.1712 32.5777 20.5706C32.8294 19.97 32.959 19.3262 32.959 18.6761C32.959 18.0259 32.8294 17.3822 32.5777 16.7815C32.326 16.1809 31.957 15.6352 31.492 15.1756" fill="#03C988"/>
</g>
<defs>
<clipPath id="clip0_1245_2351">
<rect width="33" height="35" fill="white"/>
</clipPath>
</defs>
</svg>
