<svg width="60" height="60" viewBox="0 0 60 60" fill="none" xmlns="http://www.w3.org/2000/svg">
<path d="M4.60822 9.75226C4.85901 7.59005 6.17079 5.80503 8.29615 5.335C11.6113 4.60184 18.0373 3.75 30 3.75C41.9627 3.75 48.3886 4.60184 51.7039 5.335C53.8292 5.80503 55.141 7.59005 55.3918 9.75226C55.771 13.022 56.25 18.407 56.25 24.75C56.25 36.5997 49.996 47.6878 39.4598 53.1104C35.9401 54.9218 32.5051 56.25 30 56.25C27.4949 56.25 24.0599 54.9218 20.5402 53.1104C10.004 47.6878 3.75 36.5997 3.75 24.75C3.75 18.407 4.22896 13.022 4.60822 9.75226Z" stroke="#03C988" stroke-width="3" stroke-linecap="round" stroke-linejoin="round"/>
<path d="M14.1761 17.3592C14.3769 15.3261 15.6083 13.6673 17.6188 13.3045C19.8824 12.8961 23.7015 12.5 30 12.5C36.2985 12.5 40.1176 12.8961 42.3812 13.3045C44.3917 13.6673 45.6231 15.3261 45.8239 17.3592C46.0334 19.4801 46.25 22.5151 46.25 26C46.25 32.6426 43.0254 38.7634 37.6221 42.6274C34.8675 44.5974 31.9696 46.25 30 46.25C28.0304 46.25 25.1325 44.5974 22.3779 42.6274C16.9746 38.7634 13.75 32.6426 13.75 26C13.75 22.5151 13.9666 19.4801 14.1761 17.3592Z" stroke="#03C988" stroke-width="3" stroke-linecap="round" stroke-linejoin="round"/>
</svg>
