<svg width="60" height="60" viewBox="0 0 60 60" fill="none" xmlns="http://www.w3.org/2000/svg">
<path d="M43.75 52.926C43.0294 53.2543 42.2294 53.4528 41.3802 53.4959C38.703 53.6316 34.9521 53.7496 30 53.7496C25.0479 53.7496 21.297 53.6316 18.6197 53.4958C17.7706 53.4528 16.9706 53.2543 16.25 52.926" stroke="#03C988" stroke-width="3" stroke-linecap="round" stroke-linejoin="round"/>
<path d="M49.375 46.0996C48.4581 46.6941 47.3661 47.0571 46.1826 47.1219C42.6972 47.3124 37.3885 47.5001 30 47.5001C22.6115 47.5001 17.3027 47.3124 13.8174 47.1219C12.6339 47.0571 11.5418 46.6941 10.625 46.0996" stroke="#03C988" stroke-width="3" stroke-linecap="round" stroke-linejoin="round"/>
<path d="M4.24733 35.2621C4.55473 38.3819 7.07052 40.6229 10.2008 40.7942C14.2279 41.0147 20.7028 41.25 30 41.25C39.2972 41.25 45.7721 41.0147 49.7993 40.7942C52.9295 40.6229 55.4453 38.382 55.7526 35.2621C56.0173 32.5766 56.25 28.7839 56.25 23.75C56.25 18.7161 56.0173 14.9234 55.7526 12.2379C55.4453 9.11806 52.9295 6.8771 49.7993 6.70571C45.7721 6.48521 39.2972 6.25 30 6.25C20.7028 6.25 14.2279 6.48521 10.2008 6.70571C7.07052 6.8771 4.55473 9.11806 4.24733 12.2379C3.98271 14.9234 3.75 18.7161 3.75 23.75C3.75 28.7839 3.98271 32.5766 4.24733 35.2621Z" stroke="#03C988" stroke-width="3" stroke-linecap="round" stroke-linejoin="round"/>
<path d="M35 18.1383C35 18.1383 33 16.6077 30 16.6077C27.5 16.6077 25 18.1383 25 20.1792C25 25.2812 35 22.2199 35 27.322C35 29.3628 32.5 30.8934 30 30.8934C27 30.8934 25 29.3628 25 29.3628" stroke="#03C988" stroke-width="3" stroke-linecap="round" stroke-linejoin="round"/>
<path d="M30 16.6071V13.75" stroke="#03C988" stroke-width="3" stroke-linecap="round" stroke-linejoin="round"/>
<path d="M30 33.7495V30.8923" stroke="#03C988" stroke-width="3" stroke-linecap="round" stroke-linejoin="round"/>
<path d="M46.25 23.75H45" stroke="#03C988" stroke-width="3" stroke-linecap="round" stroke-linejoin="round"/>
<path d="M15 23.75H13.75" stroke="#03C988" stroke-width="3" stroke-linecap="round" stroke-linejoin="round"/>
</svg>
