<svg width="60" height="60" viewBox="0 0 60 60" fill="none" xmlns="http://www.w3.org/2000/svg">
<path d="M53.2499 23.75C50.9335 12.3388 40.8448 3.75 28.75 3.75C14.9429 3.75 3.75 14.9429 3.75 28.75C3.75 33.4951 5.072 37.9315 7.36777 41.7109C6.25339 44.3825 5.1201 47.5401 4.39546 50.4421C3.98881 52.0707 5.41756 53.4438 7.03499 52.9948C9.83907 52.2161 12.9244 51.0835 15.5821 50.0051C18.051 51.5379 20.8066 52.6524 23.75 53.2499" stroke="#03C988" stroke-width="3" stroke-linecap="round" stroke-linejoin="round"/>
<path d="M26.25 41.25C26.25 32.9658 32.9658 26.25 41.25 26.25C49.5342 26.25 56.25 32.9658 56.25 41.25C56.25 44.1282 55.4394 46.8171 54.034 49.1008C54.5731 50.2399 55.1095 51.5515 55.5331 52.9574C56.0174 54.5646 54.5776 55.9465 52.9821 55.4248C51.6384 54.9854 50.3669 54.459 49.24 53.9472C46.9267 55.406 44.1869 56.25 41.25 56.25C32.9658 56.25 26.25 49.5342 26.25 41.25Z" stroke="#03C988" stroke-width="3" stroke-linejoin="round"/>
</svg>
