<svg width="25" height="24" viewBox="0 0 25 24" fill="none" xmlns="http://www.w3.org/2000/svg">
<path d="M21.58 8.58003V15.42C21.58 16.54 20.98 17.58 20.01 18.15L14.07 21.58C13.1 22.14 11.9 22.14 10.92 21.58L4.97997 18.15C4.00997 17.59 3.40997 16.55 3.40997 15.42V8.58003C3.40997 7.46003 4.00997 6.41999 4.97997 5.84999L10.92 2.42C11.89 1.86 13.09 1.86 14.07 2.42L20.01 5.84999C20.98 6.41999 21.58 7.45003 21.58 8.58003Z" stroke="#03C988" stroke-width="1.5" stroke-linecap="round" stroke-linejoin="round"/>
<path d="M12.5 10.9998C13.7868 10.9998 14.83 9.95662 14.83 8.6698C14.83 7.38298 13.7868 6.33984 12.5 6.33984C11.2132 6.33984 10.17 7.38298 10.17 8.6698C10.17 9.95662 11.2132 10.9998 12.5 10.9998Z" stroke="#03C988" stroke-width="1.5" stroke-linecap="round" stroke-linejoin="round"/>
<path d="M16.5 16.6594C16.5 14.8594 14.71 13.3994 12.5 13.3994C10.29 13.3994 8.5 14.8594 8.5 16.6594" stroke="#03C988" stroke-width="1.5" stroke-linecap="round" stroke-linejoin="round"/>
</svg>
