<svg width="30" height="30" viewBox="0 0 30 30" fill="none" xmlns="http://www.w3.org/2000/svg">
<path d="M15.6625 25.5251H7.7625C3.8125 25.5251 2.5 22.9001 2.5 20.2626V9.7376C2.5 5.7876 3.8125 4.4751 7.7625 4.4751H15.6625C19.6125 4.4751 20.925 5.7876 20.925 9.7376V20.2626C20.925 24.2126 19.6 25.5251 15.6625 25.5251Z" stroke="white" stroke-width="1.5" stroke-linecap="round" stroke-linejoin="round"/>
<path d="M24.3998 21.3752L20.9248 18.9377V11.0502L24.3998 8.61266C26.0998 7.42516 27.4998 8.15016 27.4998 10.2377V19.7627C27.4998 21.8502 26.0998 22.5752 24.3998 21.3752Z" stroke="white" stroke-width="1.5" stroke-linecap="round" stroke-linejoin="round"/>
<path d="M14.375 13.75C15.4105 13.75 16.25 12.9105 16.25 11.875C16.25 10.8395 15.4105 10 14.375 10C13.3395 10 12.5 10.8395 12.5 11.875C12.5 12.9105 13.3395 13.75 14.375 13.75Z" stroke="white" stroke-width="1.5" stroke-linecap="round" stroke-linejoin="round"/>
</svg>
