<svg width="40" height="40" viewBox="0 0 40 40" fill="none" xmlns="http://www.w3.org/2000/svg">
<path d="M36.6668 25.0002V15.0002C36.6668 6.66683 33.3335 3.3335 25.0002 3.3335H15.0002C6.66683 3.3335 3.3335 6.66683 3.3335 15.0002V25.0002C3.3335 33.3335 6.66683 36.6668 15.0002 36.6668H25.0002C33.3335 36.6668 36.6668 33.3335 36.6668 25.0002Z" stroke="#2C383F" stroke-width="2" stroke-linecap="round" stroke-linejoin="round"/>
<path d="M4.2002 11.8501H35.8002" stroke="#2C383F" stroke-width="2" stroke-linecap="round" stroke-linejoin="round"/>
<path d="M14.2002 3.5166V11.6166" stroke="#2C383F" stroke-width="2" stroke-linecap="round" stroke-linejoin="round"/>
<path d="M25.7998 3.5166V10.8666" stroke="#2C383F" stroke-width="2" stroke-linecap="round" stroke-linejoin="round"/>
<path d="M16.25 24.0832V22.0832C16.25 19.5165 18.0667 18.4665 20.2833 19.7499L22.0167 20.7499L23.75 21.7499C25.9667 23.0332 25.9667 25.1332 23.75 26.4165L22.0167 27.4165L20.2833 28.4165C18.0667 29.6999 16.25 28.6499 16.25 26.0832V24.0832V24.0832Z" stroke="#2C383F" stroke-width="2" stroke-miterlimit="10" stroke-linecap="round" stroke-linejoin="round"/>
</svg>
