<svg width="35" height="36" viewBox="0 0 35 36" fill="none" xmlns="http://www.w3.org/2000/svg">
<path d="M12.9584 10.956C13.2252 10.9632 13.521 10.9776 13.8025 11.6023C13.9891 12.0182 14.3035 12.7838 14.5596 13.4075C14.7589 13.8928 14.9229 14.2922 14.9639 14.3739C15.0577 14.5606 15.1154 14.776 14.9928 15.0273C14.9783 15.0569 14.9646 15.0853 14.9515 15.1125C14.8531 15.3167 14.7831 15.462 14.6177 15.652C14.5497 15.7301 14.4788 15.8157 14.4082 15.901C14.284 16.051 14.1607 16.2001 14.0549 16.3054C13.8674 16.492 13.6725 16.6932 13.8889 17.0665C14.1055 17.4399 14.863 18.6677 15.9811 19.6586C17.1833 20.7289 18.2286 21.1799 18.7571 21.4079C18.8596 21.4522 18.9428 21.488 19.0037 21.5184C19.379 21.705 19.6025 21.6763 19.8189 21.425C20.0355 21.1736 20.7568 20.3335 21.0094 19.9602C21.2546 19.5869 21.5071 19.6443 21.8534 19.7735C22.1996 19.9027 24.0465 20.8075 24.4215 20.9941C24.4957 21.031 24.565 21.0643 24.6293 21.0951C24.8903 21.2203 25.0677 21.3054 25.143 21.4322C25.2367 21.5901 25.2367 22.3369 24.9266 23.2129C24.6092 24.0889 23.0798 24.929 22.3872 24.9936C22.3216 24.9998 22.2564 25.0077 22.1892 25.0158C21.5545 25.0926 20.7488 25.19 17.8784 24.0602C14.3413 22.6693 12.0065 19.2183 11.5345 18.5206C11.4972 18.4655 11.4716 18.4276 11.4578 18.4092L11.4498 18.3985C11.2351 18.1111 9.9212 16.3531 9.9212 14.5392C9.9212 12.8037 10.7761 11.9002 11.166 11.4881C11.1908 11.4619 11.2136 11.4378 11.2342 11.4155C11.5805 11.0422 11.9845 10.9489 12.237 10.9489C12.4896 10.9489 12.742 10.9489 12.9584 10.956Z" fill="#03C988"/>
<path fill-rule="evenodd" clip-rule="evenodd" d="M3.185 31.6083C3.06569 32.0414 3.46015 32.4412 3.8948 32.3277L10.6138 30.5727C12.7348 31.7215 15.1227 32.3318 17.5539 32.3318H17.5611C25.5615 32.3318 32.0831 25.848 32.0831 17.8779C32.0831 14.0149 30.5752 10.3816 27.8339 7.65299C25.0926 4.92453 21.4494 3.41666 17.561 3.41666C9.56068 3.41666 3.03906 9.90049 3.03906 17.8707C3.03815 20.4062 3.70741 22.8974 4.97964 25.0941L3.185 31.6083ZM7.08858 25.6751C7.24436 25.1096 7.16654 24.5053 6.87259 23.9977C5.7932 22.134 5.22579 20.0205 5.22656 17.8707C5.22656 11.119 10.7584 5.60416 17.561 5.60416C20.8712 5.60416 23.9595 6.8831 26.2907 9.20341C28.6193 11.5212 29.8956 14.5964 29.8956 17.8779C29.8956 24.6295 24.3638 30.1443 17.5611 30.1443H17.5539C15.4881 30.1443 13.4582 29.6255 11.6557 28.6492C11.1679 28.385 10.5978 28.316 10.061 28.4562L6.03251 29.5084L7.08858 25.6751Z" fill="#03C988"/>
</svg>
